<svg width="20" height="20" viewBox="0 0 20 20" fill="none" xmlns="http://www.w3.org/2000/svg">
<g clip-path="url(#clip0_239_2130)">
<path d="M14.3077 20.0005C14.198 20.0011 14.0893 19.9801 13.9878 19.9386C13.8863 19.8972 13.7939 19.836 13.716 19.7588L6.90771 12.9505C6.51968 12.5634 6.21182 12.1036 6.00177 11.5974C5.79172 11.0912 5.68359 10.5485 5.68359 10.0005C5.68359 9.45242 5.79172 8.90974 6.00177 8.40353C6.21182 7.89732 6.51968 7.43753 6.90771 7.05048L13.716 0.242147C13.7937 0.164448 13.886 0.102814 13.9875 0.0607636C14.089 0.0187133 14.1978 -0.00292969 14.3077 -0.00292969C14.4176 -0.00292969 14.5264 0.0187133 14.6279 0.0607636C14.7294 0.102814 14.8217 0.164448 14.8994 0.242147C14.9771 0.319845 15.0387 0.412087 15.0808 0.513606C15.1228 0.615124 15.1445 0.723931 15.1445 0.833813C15.1445 0.943696 15.1228 1.0525 15.0808 1.15402C15.0387 1.25554 14.9771 1.34778 14.8994 1.42548L8.09104 8.23381C7.62287 8.70256 7.35991 9.33798 7.35991 10.0005C7.35991 10.663 7.62287 11.2984 8.09104 11.7671L14.8994 18.5755C14.9775 18.6529 15.0395 18.7451 15.0818 18.8467C15.1241 18.9482 15.1459 19.0571 15.1459 19.1671C15.1459 19.2772 15.1241 19.3861 15.0818 19.4876C15.0395 19.5892 14.9775 19.6813 14.8994 19.7588C14.8215 19.836 14.7292 19.8972 14.6276 19.9386C14.5261 19.9801 14.4174 20.0011 14.3077 20.0005Z" fill="#EBE9FC"/>
</g>
<defs>
<clipPath id="clip0_239_2130">
<rect width="20" height="20" fill="white"/>
</clipPath>
</defs>
</svg>
