<svg width="20" height="20" viewBox="0 0 20 20" fill="none" xmlns="http://www.w3.org/2000/svg">
<g clip-path="url(#clip0_239_2132)">
<path d="M5.69229 20.0005C5.80196 20.0011 5.91068 19.9801 6.01221 19.9386C6.11375 19.8972 6.20609 19.836 6.28396 19.7588L13.0923 12.9505C13.4803 12.5634 13.7882 12.1036 13.9982 11.5974C14.2083 11.0912 14.3164 10.5485 14.3164 10.0005C14.3164 9.45242 14.2083 8.90974 13.9982 8.40353C13.7882 7.89732 13.4803 7.43753 13.0923 7.05048L6.28396 0.242147C6.20626 0.164448 6.11402 0.102814 6.0125 0.0607636C5.91098 0.0187133 5.80217 -0.00292969 5.69229 -0.00292969C5.58241 -0.00292969 5.4736 0.0187133 5.37208 0.0607636C5.27057 0.102814 5.17832 0.164448 5.10063 0.242147C5.02293 0.319845 4.96129 0.412087 4.91924 0.513606C4.87719 0.615124 4.85555 0.723931 4.85555 0.833813C4.85555 0.943696 4.87719 1.0525 4.91924 1.15402C4.96129 1.25554 5.02293 1.34778 5.10063 1.42548L11.909 8.23381C12.3771 8.70256 12.6401 9.33798 12.6401 10.0005C12.6401 10.663 12.3771 11.2984 11.909 11.7671L5.10063 18.5755C5.02252 18.6529 4.96052 18.7451 4.91821 18.8467C4.87591 18.9482 4.85413 19.0571 4.85413 19.1671C4.85413 19.2772 4.87591 19.3861 4.91821 19.4876C4.96052 19.5892 5.02252 19.6813 5.10063 19.7588C5.17849 19.836 5.27084 19.8972 5.37237 19.9386C5.4739 19.9801 5.58262 20.0011 5.69229 20.0005Z" fill="#EBE9FC"/>
</g>
<defs>
<clipPath id="clip0_239_2132">
<rect width="20" height="20" fill="white" transform="matrix(-1 0 0 1 20 0)"/>
</clipPath>
</defs>
</svg>
