<svg width="20" height="20" viewBox="0 0 20 20" fill="none" xmlns="http://www.w3.org/2000/svg">
<g clip-path="url(#clip0_327_1447)">
<path d="M0.000497818 5.69156C-0.000137329 5.80123 0.0208836 5.90995 0.062355 6.01148C0.103825 6.11301 0.16493 6.20536 0.242165 6.28323L7.0505 13.0916C7.43754 13.4796 7.89734 13.7874 8.40355 13.9975C8.90976 14.2076 9.45244 14.3157 10.0005 14.3157C10.5486 14.3157 11.0912 14.2076 11.5974 13.9975C12.1037 13.7874 12.5634 13.4796 12.9505 13.0916L19.7588 6.28323C19.8365 6.20553 19.8982 6.11329 19.9402 6.01177C19.9823 5.91025 20.0039 5.80144 20.0039 5.69156C20.0039 5.58168 19.9823 5.47287 19.9402 5.37135C19.8982 5.26983 19.8365 5.17759 19.7588 5.09989C19.6811 5.02219 19.5889 4.96056 19.4874 4.91851C19.3859 4.87646 19.277 4.85482 19.1672 4.85482C19.0573 4.85482 18.9485 4.87646 18.847 4.91851C18.7454 4.96056 18.6532 5.02219 18.5755 5.09989L11.7672 11.9082C11.2984 12.3764 10.663 12.6394 10.0005 12.6394C9.33799 12.6394 8.70258 12.3764 8.23383 11.9082L1.4255 5.09989C1.34803 5.02179 1.25586 4.95979 1.15431 4.91748C1.05276 4.87518 0.94384 4.85339 0.83383 4.85339C0.723822 4.85339 0.614899 4.87518 0.51335 4.91748C0.4118 4.95979 0.319633 5.02179 0.242165 5.09989C0.16493 5.17776 0.103825 5.27011 0.062355 5.37164C0.0208836 5.47317 -0.000137329 5.58189 0.000497818 5.69156Z" fill="#EBE9FC"/>
</g>
<defs>
<clipPath id="clip0_327_1447">
<rect width="20" height="20" fill="white" transform="matrix(0 -1 -1 0 20 20)"/>
</clipPath>
</defs>
</svg>
