<svg width="70" height="164" viewBox="0 0 70 164" fill="none" xmlns="http://www.w3.org/2000/svg">
<path d="M47.5314 62.4601C52.9787 59.6324 57.3095 55.0455 59.8199 49.445C62.3304 43.8445 62.8729 37.5595 61.3594 31.6117C59.8458 25.6638 56.3651 20.4026 51.483 16.6833C46.6009 12.964 40.6044 11.0052 34.4681 11.1252C28.3318 11.2452 22.4165 13.437 17.6836 17.3444C12.9507 21.2518 9.67838 26.6451 8.39856 32.6476C7.11873 38.6501 7.90662 44.909 10.6342 50.4071C13.3617 55.9052 17.8686 60.3191 23.4222 62.9316L28.592 51.9417C25.5182 50.4957 23.0237 48.0527 21.5141 45.0096C20.0045 41.9666 19.5684 38.5024 20.2767 35.1802C20.9851 31.8579 22.7962 28.8729 25.4158 26.7102C28.0354 24.5476 31.3093 23.3345 34.7056 23.268C38.1019 23.2016 41.4208 24.2858 44.1229 26.3443C46.8251 28.4029 48.7516 31.3148 49.5893 34.6068C50.427 37.8988 50.1267 41.3774 48.7373 44.4772C47.3478 47.5769 44.9508 50.1156 41.9359 51.6807L47.5314 62.4601Z" fill="#EBE9FC"/>
<path d="M25.579 79.7892C32.0394 82.1746 39.1642 82.0205 45.5155 79.358L35 54.2735L25.579 79.7892Z" fill="#EBE9FC"/>
<path d="M1.8 152.593L8.64 126.313H12.996L19.8 152.593H16.524L14.796 145.609H6.84L5.112 152.593H1.8ZM7.488 142.873H14.112L12.096 134.773C11.712 133.237 11.412 131.953 11.196 130.921C10.98 129.889 10.848 129.217 10.8 128.905C10.752 129.217 10.62 129.889 10.404 130.921C10.188 131.953 9.888 133.225 9.504 134.737L7.488 142.873ZM31.2339 152.953C29.2659 152.953 27.6699 152.293 26.4459 150.973C25.2459 149.653 24.6459 147.865 24.6459 145.609V139.813C24.6459 137.533 25.2459 135.733 26.4459 134.413C27.6459 133.093 29.2419 132.433 31.2339 132.433C32.8659 132.433 34.1739 132.877 35.1579 133.765C36.1419 134.653 36.6339 135.841 36.6339 137.329L35.9859 136.573H36.7059L36.6339 132.073V126.313H39.8739V152.593H36.6339V148.813H35.9859L36.6339 148.057C36.6339 149.569 36.1419 150.769 35.1579 151.657C34.1739 152.521 32.8659 152.953 31.2339 152.953ZM32.3139 150.145C33.6579 150.145 34.7139 149.725 35.4819 148.885C36.2499 148.045 36.6339 146.881 36.6339 145.393V139.993C36.6339 138.505 36.2499 137.341 35.4819 136.501C34.7139 135.661 33.6579 135.241 32.3139 135.241C30.9459 135.241 29.8659 135.649 29.0739 136.465C28.2819 137.281 27.8859 138.457 27.8859 139.993V145.393C27.8859 146.929 28.2819 148.105 29.0739 148.921C29.8659 149.737 30.9459 150.145 32.3139 150.145ZM52.2439 152.953C50.1559 152.953 48.5119 152.425 47.3119 151.369C46.1119 150.289 45.5119 148.837 45.5119 147.013C45.5119 145.165 46.1119 143.713 47.3119 142.657C48.5119 141.601 50.1319 141.073 52.1719 141.073H58.2919V139.093C58.2919 137.869 57.9199 136.933 57.1759 136.285C56.4559 135.613 55.4239 135.277 54.0799 135.277C52.9039 135.277 51.9199 135.529 51.1279 136.033C50.3359 136.513 49.8799 137.173 49.7599 138.013H46.5199C46.7359 136.309 47.5399 134.953 48.9319 133.945C50.3239 132.937 52.0639 132.433 54.1519 132.433C56.4319 132.433 58.2319 133.021 59.5519 134.197C60.8719 135.373 61.5319 136.969 61.5319 138.985V152.593H58.3639V148.813H57.8239L58.3639 148.273C58.3639 149.713 57.7999 150.853 56.6719 151.693C55.5679 152.533 54.0919 152.953 52.2439 152.953ZM53.0359 150.397C54.5719 150.397 55.8319 150.013 56.8159 149.245C57.7999 148.477 58.2919 147.493 58.2919 146.293V143.485H52.2439C51.1639 143.485 50.3119 143.785 49.6879 144.385C49.0639 144.985 48.7519 145.801 48.7519 146.833C48.7519 147.937 49.1239 148.813 49.8679 149.461C50.6359 150.085 51.6919 150.397 53.0359 150.397Z" fill="#EBE9FC"/>
</svg>
