<svg width="2962" height="2962" viewBox="0 0 2962 2962" fill="none" xmlns="http://www.w3.org/2000/svg">
<rect width="2962" height="2962" rx="1481" fill="#EBE9FC"/>
<path d="M1868.97 1981.14C2037.56 1893.62 2171.6 1751.66 2249.3 1578.32C2327 1404.99 2343.79 1210.47 2296.95 1026.38C2250.1 842.293 2142.37 679.46 1991.27 564.348C1840.17 449.235 1654.58 388.609 1464.66 392.324C1274.75 396.039 1091.67 463.876 945.184 584.81C798.7 705.743 697.422 872.664 657.811 1058.44C618.201 1244.22 642.586 1437.93 727.003 1608.1C811.42 1778.26 950.907 1914.88 1122.79 1995.73L1282.8 1655.59C1187.66 1610.84 1110.46 1535.23 1063.74 1441.05C1017.01 1346.87 1003.52 1239.65 1025.44 1136.83C1047.36 1034 1103.42 941.615 1184.49 874.682C1265.57 807.748 1366.9 770.202 1472.01 768.145C1577.13 766.089 1679.85 799.644 1763.48 863.356C1847.11 927.068 1906.74 1017.19 1932.66 1119.08C1958.59 1220.97 1949.3 1328.63 1906.29 1424.57C1863.29 1520.5 1789.1 1599.08 1695.79 1647.52L1868.97 1981.14Z" fill="#010104"/>
<path d="M1189.54 2517.48C1389.49 2591.31 1610.01 2586.54 1806.58 2504.13L1481.13 1727.77L1189.54 2517.48Z" fill="#010104"/>
</svg>
