<svg width="815" height="767" viewBox="0 0 815 767" fill="none" xmlns="http://www.w3.org/2000/svg">
<g clip-path="url(#clip0_53_1714)">
<path d="M591.694 435.242V647.12L627.155 704.878L629.854 709.272H769.773L772.601 435.242H591.694Z" fill="#E6E6E6"/>
<path opacity="0.1" d="M591.694 435.242V647.12L627.155 704.878L629.331 435.242H591.694Z" fill="black"/>
<path d="M253.908 429.591V641.47L218.447 699.228L215.749 703.621H75.8291L73.002 429.591H253.908Z" fill="#E6E6E6"/>
<path opacity="0.1" d="M253.908 429.591V641.47L218.447 699.228L216.271 429.591H253.908Z" fill="black"/>
<path d="M815 425.354V438.066H54.6284V419.703L125.295 382.977H752.814L815 425.354Z" fill="#E6E6E6"/>
<path opacity="0.1" d="M815 425.354V438.066H54.6284V419.703L815 425.354Z" fill="black"/>
<path d="M163.455 488.917H129.535L115.401 479.03H179.002L163.455 488.917Z" fill="#3F3D56"/>
<path d="M163.455 529.88H129.535L115.401 519.993H179.002L163.455 529.88Z" fill="#3F3D56"/>
<path d="M163.455 587.795H129.535L115.401 577.906H179.002L163.455 587.795Z" fill="#3F3D56"/>
<path d="M163.455 645.708H129.535L115.401 635.82H179.002L163.455 645.708Z" fill="#3F3D56"/>
<path d="M682.147 494.567H716.068L730.201 484.679H666.601L682.147 494.567Z" fill="#3F3D56"/>
<path d="M682.147 535.53H716.068L730.201 525.643H666.601L682.147 535.53Z" fill="#3F3D56"/>
<path d="M682.147 593.445H716.068L730.201 583.557H666.601L682.147 593.445Z" fill="#3F3D56"/>
<path d="M682.147 651.358H716.068L730.201 641.47H666.601L682.147 651.358Z" fill="#3F3D56"/>
<path d="M705.246 137.961H419.687C418.268 137.961 416.864 138.24 415.554 138.782C414.243 139.324 413.053 140.119 412.05 141.122C411.047 142.124 410.252 143.314 409.709 144.623C409.166 145.933 408.887 147.337 408.887 148.754V341.005C408.887 342.422 409.166 343.826 409.709 345.135C410.252 346.445 411.047 347.635 412.05 348.637C413.053 349.639 414.243 350.434 415.554 350.977C416.864 351.519 418.268 351.798 419.687 351.798H528.087L524.026 377.712C524.026 377.712 500.817 390.035 517.136 390.397C533.455 390.76 610.335 390.397 610.335 390.397C610.335 390.397 625.203 390.397 601.632 377.35L597.811 351.798H705.246C706.664 351.798 708.068 351.519 709.379 350.977C710.689 350.434 711.88 349.639 712.883 348.637C713.885 347.635 714.681 346.445 715.223 345.135C715.766 343.826 716.045 342.422 716.045 341.005V148.754C716.045 147.337 715.766 145.933 715.223 144.623C714.681 143.314 713.885 142.124 712.883 141.122C711.88 140.119 710.689 139.324 709.379 138.782C708.068 138.24 706.664 137.961 705.246 137.961Z" fill="#3F3D56"/>
<path d="M705.71 149.377H419.223V309.574H705.71V149.377Z" fill="#F2F2F2"/>
<path d="M562.467 146.116C563.468 146.116 564.28 145.304 564.28 144.303C564.28 143.303 563.468 142.491 562.467 142.491C561.465 142.491 560.653 143.303 560.653 144.303C560.653 145.304 561.465 146.116 562.467 146.116Z" fill="#F2F2F2"/>
<path d="M562.466 344.006C566.272 344.006 569.357 340.923 569.357 337.119C569.357 333.316 566.272 330.233 562.466 330.233C558.661 330.233 555.576 333.316 555.576 337.119C555.576 340.923 558.661 344.006 562.466 344.006Z" fill="#F2F2F2"/>
<path d="M551.729 409.969V413.594H356.628V410.694L356.896 409.969L361.705 396.922H547.74L551.729 409.969Z" fill="#3F3D56"/>
<path d="M626.811 406.421C626.455 407.939 625.113 409.541 622.082 411.056C611.203 416.493 589.081 409.607 589.081 409.607C589.081 409.607 572.037 406.707 572.037 399.096C572.516 398.768 573.015 398.472 573.531 398.208C578.105 395.79 593.271 389.822 620.161 398.461C622.142 399.082 623.912 400.241 625.273 401.808C625.876 402.401 626.329 403.128 626.597 403.93C626.864 404.732 626.937 405.585 626.811 406.421Z" fill="#3F3D56"/>
<path opacity="0.1" d="M626.811 406.421C613.494 411.52 601.625 411.901 589.444 403.445C584.838 400.042 579.26 398.206 573.531 398.208C578.105 395.79 593.271 389.822 620.161 398.461C622.142 399.082 623.912 400.241 625.273 401.808C625.876 402.401 626.329 403.128 626.597 403.93C626.864 404.732 626.937 405.585 626.811 406.421Z" fill="black"/>
<path d="M610.115 403.445C612.718 403.445 614.829 402.796 614.829 401.996C614.829 401.195 612.718 400.546 610.115 400.546C607.511 400.546 605.4 401.195 605.4 401.996C605.4 402.796 607.511 403.445 610.115 403.445Z" fill="#F2F2F2"/>
<path opacity="0.1" d="M551.729 409.969V413.594H356.628V410.694L356.896 409.969H551.729Z" fill="black"/>
<path d="M108.479 0.000147078C106.499 -0.162332 104.516 0.280339 102.794 1.2695C101.102 2.42719 100.036 4.45534 98.948 6.34265C94.7874 13.6448 89.1547 20.0037 82.4068 25.0167C77.4918 28.6153 71.2431 33.1022 72.084 39.7371C72.5276 41.9282 73.3375 44.0289 74.4797 45.951C79.0139 55.0987 91.3869 62.1679 90.1698 72.6061C94.6746 65.0689 88.6491 61.3419 93.1539 53.8047C95.2993 50.2153 99.026 46.1635 102.265 48.4177C103.35 49.1724 104.062 50.5262 105.191 51.1884C107.885 52.7686 110.752 49.7476 113.137 47.6078C121.361 40.2289 133.057 42.162 143.292 44.4611C148.123 45.5465 153.43 46.9705 156.287 51.5858C160.042 57.6539 152.719 64.2076 150.869 71.0682C150.717 71.6528 150.71 72.2652 150.848 72.8532C150.985 73.4411 151.263 73.9871 151.657 74.4443C152.052 74.9015 152.551 75.2565 153.113 75.4788C153.675 75.701 154.282 75.784 154.883 75.7206C157.954 75.4179 161.592 75.1697 161.773 73.8229C165.637 73.9604 170.371 73.5231 172.027 69.5022C172.532 67.9113 172.8 66.2543 172.82 64.5851C173.428 57.831 176.296 51.6692 178.196 45.2408C180.096 38.8124 180.922 31.2788 177.716 25.5793C176.571 23.683 175.156 21.9639 173.515 20.4763C155.318 2.87646 131.393 -0.0259776 108.479 0.000147078Z" fill="#2F2E41"/>
<path d="M94.1275 85.7903C94.1275 85.7903 98.085 118.751 83.5741 121.388C69.0633 124.024 96.7658 168.851 96.7658 168.851L162.724 176.761L146.894 124.024C146.894 124.024 136.341 120.069 142.937 93.7008C149.533 67.3325 94.1275 85.7903 94.1275 85.7903Z" fill="#FFB8B8"/>
<path d="M53.8926 652.05L59.1698 724.564H86.8713L78.9572 652.05H53.8926Z" fill="#FFB8B8"/>
<path d="M257.044 514.935L261.001 575.582L291.343 562.398L279.47 512.299L257.044 514.935Z" fill="#FFB8B8"/>
<path d="M34.105 375.183C34.105 375.183 35.4241 451.651 43.3392 476.701C51.2543 501.751 49.935 503.069 48.6159 507.025C47.2967 510.98 45.9775 508.343 45.9775 514.935C45.9775 521.527 43.3392 625.682 45.9775 634.911C48.6159 644.14 38.0625 659.961 45.9775 661.28C53.8925 662.598 90.8292 661.28 92.1484 653.369C93.4676 645.459 81.5951 642.822 86.8717 637.548C92.1484 632.274 100.063 524.164 100.063 524.164L118.532 449.014L152.83 409.462H225.384L247.81 496.477C247.81 496.477 238.576 521.527 245.172 521.527C251.768 521.527 291.343 529.438 291.343 500.433C291.343 471.427 278.151 385.73 275.513 383.093C272.874 380.457 276.832 371.228 272.874 367.272C268.917 363.317 222.746 335.63 205.597 330.357C188.448 325.083 164.39 318.806 164.39 318.806L34.105 375.183Z" fill="#2F2E41"/>
<path d="M291.343 551.851C291.343 551.851 271.556 545.259 262.321 565.035C253.087 584.812 257.045 590.085 257.045 590.085C257.045 590.085 287.386 600.633 292.662 595.359C294.958 593.064 302.248 592.267 309.752 592.099C321.18 591.843 324.221 575.683 313.427 571.92C313.105 571.808 312.78 571.71 312.45 571.627C301.896 568.991 291.343 551.851 291.343 551.851Z" fill="#2F2E41"/>
<path d="M123.808 107.544C145.665 107.544 163.383 89.836 163.383 67.9917C163.383 46.1475 145.665 28.4392 123.808 28.4392C101.952 28.4392 84.2334 46.1475 84.2334 67.9917C84.2334 89.836 101.952 107.544 123.808 107.544Z" fill="#FFB8B8"/>
<path d="M72.361 137.868C72.361 137.868 137 151.052 152.83 129.957C168.66 108.863 175.256 189.286 175.256 189.286L183.171 273.665L171.299 319.809C171.299 319.809 109.298 369.909 89.5102 373.865C69.7227 377.82 39.3818 380.457 39.3818 380.457C39.3818 380.457 48.6161 234.112 48.6161 231.475C48.6161 228.839 72.361 137.868 72.361 137.868Z" fill="#FD550E"/>
<path d="M92.0193 113.141C92.0193 113.141 77.6377 104.907 73.6802 112.818C69.7227 120.728 32.786 140.505 28.8285 140.505C24.871 140.505 36.7435 249.933 31.4668 263.117C26.1901 276.302 1.12597 372.546 15.6368 380.457C30.1477 388.367 19.5943 372.546 34.1052 392.322C48.616 412.099 119.851 412.099 123.809 404.188C127.766 396.278 92.1485 336.949 98.7443 281.575C105.34 226.202 115.894 149.734 106.659 139.186C97.4252 128.639 92.0193 113.141 92.0193 113.141Z" fill="#2F2E41"/>
<path d="M139.639 122.047L141.476 115.727C141.476 115.727 196.363 133.913 199.001 145.778C201.64 157.644 200.32 240.705 191.086 247.297C181.852 253.889 168.66 264.436 177.895 280.257C187.129 296.078 197.682 313.217 205.597 314.536C213.512 315.854 228.023 325.083 224.065 334.312C220.108 343.541 172.618 326.402 172.618 326.402C172.618 326.402 140.958 302.67 142.277 265.754C143.596 228.839 139.639 122.047 139.639 122.047Z" fill="#2F2E41"/>
<path d="M185.809 277.62L154.149 336.949C154.149 336.949 107.978 384.412 134.362 389.686C160.745 394.959 175.256 346.178 175.256 346.178L209.554 297.396L185.809 277.62Z" fill="#FFB8B8"/>
<path d="M110.407 10.349C108.812 10.2309 107.214 10.5406 105.779 11.2462C104.481 12.1934 103.411 13.4185 102.648 14.8318C99.1295 20.1216 94.5429 24.6174 89.1829 28.0305C85.1818 30.574 80.0952 33.7453 80.7797 38.4348C81.1513 40.0071 81.8126 41.4965 82.7299 42.8268C86.4336 49.3576 87.9081 56.9165 86.9301 64.3595L97.9315 48.3777C99.6779 45.8408 102.712 42.977 105.348 44.5702C106.231 45.1037 106.811 46.0605 107.73 46.5286C109.923 47.6455 112.257 45.5102 114.198 43.9978C120.894 38.7824 130.415 40.1487 138.746 41.7737C142.679 42.5409 146.999 43.5473 149.324 46.8094C153.188 52.2303 149.154 60.0632 151.409 66.3256C152.04 65.8839 152.576 65.3201 152.985 64.6674C153.394 64.0148 153.668 63.2868 153.791 62.5264C156.936 62.6236 160.79 62.3145 162.137 59.4726C162.547 58.3588 162.765 57.1838 162.783 55.9972C163.278 51.2234 165.613 46.8683 167.159 42.3248C168.706 37.7812 169.379 32.4565 166.768 28.4282C165.814 27.0633 164.661 25.8477 163.349 24.8214C148.536 12.382 129.06 10.3305 110.407 10.349Z" fill="#2F2E41"/>
<path d="M185.81 140.505L198.101 143.765C198.101 143.765 226.704 216.973 220.108 267.073C213.512 317.173 209.555 306.625 209.555 306.625C209.555 306.625 199.001 282.894 175.256 288.167L185.81 140.505Z" fill="#2F2E41"/>
<path d="M55.7204 714.98C52.5393 719.301 53.1771 725.477 50.3592 730.042C47.9167 734 43.3134 736.075 40.2582 739.581C39.2833 740.746 38.4143 741.996 37.6613 743.315C34.8272 748.059 32.5236 754.14 35.3148 758.91C37.5602 762.747 42.2798 764.247 46.6083 765.269C52.0792 766.561 57.7636 767.595 63.2977 766.607C68.8318 765.62 74.2404 762.233 76.2136 756.972C76.6014 755.65 77.0624 754.349 77.5945 753.078C80.5941 747.176 90.0025 747.112 93.0723 741.246C95.2206 737.142 93.2458 732.18 91.2718 727.988L85.2427 715.187C83.242 710.939 75.1311 713.382 70.9028 712.364C65.3881 711.036 59.6877 709.574 55.7204 714.98Z" fill="#2F2E41"/>
<path d="M11.6792 303.988L67.0842 389.686C67.0842 389.686 101.383 433.193 111.936 413.417C122.489 393.641 74.9992 360.68 74.9992 360.68L39.3817 294.76L11.6792 303.988Z" fill="#FFB8B8"/>
<path d="M39.3819 143.141L28.8285 140.505C28.8285 140.505 7.72185 147.097 2.44518 174.783C-2.83148 202.47 1.12601 313.217 7.72185 314.536C14.3177 315.854 40.2986 295.252 44.4573 299.62C48.6161 303.988 35.4244 281.575 39.3818 269.71C43.3393 257.844 39.3819 143.141 39.3819 143.141Z" fill="#2F2E41"/>
<path d="M535.351 201.991H501.255V210.195H535.351V201.991Z" fill="#6C63FF"/>
<path d="M653.421 201.991H641.425V210.195H653.421V201.991Z" fill="#6C63FF"/>
<path d="M677.414 201.991H665.418V210.195H677.414V201.991Z" fill="#6C63FF"/>
<path d="M628.797 201.991H547.347V210.195H628.797V201.991Z" fill="#6C63FF"/>
<path d="M492.416 254.999H458.32V263.202H492.416V254.999Z" fill="#6C63FF"/>
<path d="M610.486 254.999H598.49V263.202H610.486V254.999Z" fill="#6C63FF"/>
<path d="M634.479 254.999H622.483V263.202H634.479V254.999Z" fill="#6C63FF"/>
<path d="M585.862 254.999H504.412V263.202H585.862V254.999Z" fill="#6C63FF"/>
<path d="M633.216 220.292H599.121V228.495H633.216V220.292Z" fill="#6C63FF"/>
<path d="M679.308 220.292H645.213V228.495H679.308V220.292Z" fill="#6C63FF"/>
<path d="M470.317 220.292H458.32V228.495H470.317V220.292Z" fill="#6C63FF"/>
<path d="M494.31 220.292H482.313V228.495H494.31V220.292Z" fill="#6C63FF"/>
<path d="M587.756 220.292H506.306V228.495H587.756V220.292Z" fill="#6C63FF"/>
<path d="M562.501 237.96H528.405V246.164H562.501V237.96Z" fill="#6C63FF"/>
<path d="M516.409 237.96H482.313V246.164H516.409V237.96Z" fill="#6C63FF"/>
<path d="M470.317 237.96H458.32V246.164H470.317V237.96Z" fill="#6C63FF"/>
<path d="M679.309 237.96H667.312V246.164H679.309V237.96Z" fill="#6C63FF"/>
<path d="M655.316 237.96H573.866V246.164H655.316V237.96Z" fill="#6C63FF"/>
</g>
<defs>
<clipPath id="clip0_53_1714">
<rect width="815" height="767" fill="white"/>
</clipPath>
</defs>
</svg>
