<svg width="297" height="419" viewBox="0 0 297 419" fill="none" xmlns="http://www.w3.org/2000/svg">
<g clip-path="url(#clip0_50_1385)">
<path d="M0.00281835 417.782C-0.00110521 417.971 0.0398108 418.159 0.122239 418.33C0.145145 418.39 0.18421 418.443 0.235185 418.483C0.28616 418.523 0.347094 418.548 0.411366 418.556H296.592C296.817 418.556 297 418.209 297 417.782C297 417.354 296.817 417.008 296.592 417.008H0.409272C0.344907 417.015 0.283862 417.04 0.232787 417.08C0.181713 417.12 0.142564 417.173 0.119617 417.234C0.0380926 417.405 -0.00192129 417.592 0.00281835 417.782Z" fill="#CCCCCC"/>
<path d="M84.8399 273.159C84.8399 269.672 86.0121 266.841 87.451 266.835H195.863C197.309 266.841 198.475 269.672 198.482 273.159V416.712C198.482 417.036 198.603 417.348 198.821 417.588C199.039 417.828 199.338 417.978 199.66 418.009C200.713 418.11 201.766 418.204 202.819 418.291C202.845 418.291 202.872 418.298 202.897 418.298C203.47 418.35 204.043 418.389 204.616 418.434H204.623C204.918 417.89 205.209 417.34 205.497 416.786C205.595 416.6 205.646 416.392 205.646 416.182V264.955C205.646 263.992 205.606 263.023 205.541 262.066C205.448 260.753 205.285 259.446 205.053 258.15C203.953 252.106 201.465 248.013 198.638 248H84.6838C84.2713 248.003 83.8636 248.089 83.4854 248.254C82.9301 248.499 82.428 248.851 82.0073 249.288C81.4363 249.882 80.9479 250.549 80.5554 251.273C79.1622 253.726 78.1659 257.383 77.8139 261.635C77.8139 261.674 77.8077 261.713 77.8077 261.752C77.7165 262.806 77.671 263.88 77.6772 264.954L77.5861 278.897L77.5274 287.212L77.3515 313.301L77.2865 322.564L77 417.685C77 418.03 77.1372 418.361 77.3814 418.605C77.6256 418.849 77.9568 418.986 78.3021 418.986H83.5399C83.8853 418.986 84.2165 418.849 84.4607 418.605C84.7048 418.361 84.842 418.03 84.842 417.685L84.8399 273.159Z" fill="#5D6E7A"/>
<path d="M161.693 209.331L169.235 242.483L174.054 247.757H177.53L163.201 187.48L162.492 197.72V197.728L161.693 209.331Z" fill="#5D6E7A"/>
<path d="M125.401 243.211L169.641 242.931L173.569 242.905L176.369 242.886L179.631 242.867H179.657C180.131 242.867 180.584 243.055 180.921 243.387L186.429 248.892C186.551 249.013 186.651 249.154 186.722 249.311C186.757 249.354 186.785 249.402 186.807 249.453C186.926 249.73 186.976 250.032 186.951 250.333C186.926 250.633 186.827 250.923 186.664 251.176C186.501 251.429 186.277 251.639 186.014 251.786C185.75 251.932 185.455 252.012 185.153 252.018H127.842C127.499 252.017 127.162 251.918 126.872 251.734C126.581 251.55 126.349 251.287 126.201 250.977L125.752 250.001L124.828 248.016L123.78 245.778C123.668 245.54 123.61 245.28 123.611 245.016C123.613 244.541 123.802 244.086 124.137 243.749C124.472 243.412 124.926 243.22 125.402 243.214L125.401 243.211Z" fill="#5D6E7A"/>
<path opacity="0.17" d="M125.751 249.996L126.204 250.975C126.351 251.285 126.582 251.547 126.872 251.731C127.161 251.915 127.497 252.013 127.84 252.015H185.152C185.454 252.01 185.75 251.931 186.014 251.785C186.278 251.638 186.502 251.429 186.665 251.175C186.829 250.921 186.927 250.631 186.951 250.33C186.975 250.029 186.925 249.727 186.804 249.451C186.783 249.399 186.755 249.351 186.721 249.308L125.751 249.996Z" fill="black"/>
<path opacity="0.17" d="M162.493 197.72V197.728L174.762 247.759H177.529L163.201 187.48L162.493 197.72Z" fill="black"/>
<path d="M147.436 206.887L164.803 74.8696C164.866 74.3749 165.124 73.9256 165.519 73.6203L177.474 58.6689L178.548 57.8426C178.946 57.5414 179.447 57.4082 179.942 57.4715L181.739 57.7123C182.234 57.7764 182.684 58.0345 182.989 58.4297C183.295 58.825 183.43 59.3251 183.367 59.8203L165.369 196.607V196.613L164.269 204.981L162.96 214.916V214.929L160.928 230.387C160.896 230.652 160.806 230.907 160.666 231.134C160.525 231.361 160.337 231.554 160.114 231.702C159.895 231.852 159.646 231.955 159.384 232.002C159.122 232.049 158.853 232.04 158.595 231.975L157.456 231.688C157.019 231.576 156.636 231.314 156.374 230.947L155.866 230.225L155.632 229.887L147.766 208.22C147.491 207.834 147.373 207.357 147.436 206.887Z" fill="#5D6E7A"/>
<path opacity="0.17" d="M177.478 58.6695L155.632 229.889L155.869 230.224L156.375 230.944C156.636 231.312 157.019 231.574 157.456 231.686L158.597 231.973C158.856 232.037 159.125 232.046 159.387 231.999C159.649 231.952 159.898 231.85 160.118 231.701C160.338 231.551 160.524 231.357 160.663 231.13C160.803 230.904 160.893 230.651 160.928 230.387L183.364 59.8224C183.429 59.327 183.295 58.8261 182.99 58.4298C182.686 58.0335 182.236 57.7743 181.74 57.7091L179.938 57.4726C179.694 57.4396 179.445 57.4555 179.207 57.5195C178.969 57.5835 178.746 57.6942 178.551 57.8452L177.478 58.6695Z" fill="#5D6E7A"/>
<path d="M176.834 63.5664L165.241 80.0993L151.462 184.851L158.933 199.658L176.834 63.5664Z" fill="#FD550E"/>
<path d="M162.739 147.3C162.719 147.142 162.638 146.998 162.513 146.898C162.389 146.798 162.23 146.751 162.071 146.767L61.6099 147.034C61.4514 147.02 61.2934 147.067 61.1695 147.167C61.0457 147.267 60.9657 147.411 60.9468 147.569C60.9665 147.728 61.0474 147.872 61.1721 147.972C61.2969 148.071 61.4557 148.118 61.6146 148.103L162.076 147.835C162.234 147.85 162.392 147.802 162.516 147.702C162.64 147.603 162.72 147.458 162.739 147.3Z" fill="#5D6E7A"/>
<path d="M136.172 209.122L140.437 213.811C140.635 213.977 140.876 214.083 141.133 214.116C141.389 214.149 141.649 214.108 141.883 213.998C142.59 213.748 143.22 213.317 143.709 212.748C146.757 209.29 150.18 206.181 153.914 203.477C154.527 203.045 155.016 202.46 155.333 201.78C155.461 201.561 155.526 201.311 155.52 201.057C155.515 200.804 155.439 200.557 155.301 200.344C155.258 197.779 153.812 196.19 151.002 195.62C150.509 195.108 149.397 195.302 148.399 196.08C144.295 199.279 140.439 202.782 136.862 206.56C135.984 207.489 135.687 208.59 136.172 209.122Z" fill="#FD550E"/>
<path d="M147.136 199.031L150.727 202.977C150.851 203.113 151.149 203.043 151.394 202.82C151.64 202.596 151.737 202.307 151.613 202.17L148.023 198.225C147.899 198.089 147.6 198.158 147.355 198.382C147.11 198.605 147.011 198.895 147.136 199.031Z" fill="white"/>
<path d="M143.59 202.253L147.181 206.198C147.305 206.335 147.604 206.265 147.849 206.041C148.094 205.818 148.191 205.529 148.068 205.393L144.477 201.447C144.353 201.311 144.054 201.381 143.809 201.604C143.564 201.828 143.466 202.117 143.59 202.253Z" fill="white"/>
<path d="M140.044 205.474L143.635 209.419C143.759 209.555 144.057 209.486 144.303 209.262C144.548 209.039 144.645 208.749 144.522 208.613L140.931 204.667C140.807 204.531 140.508 204.601 140.263 204.824C140.018 205.048 139.921 205.338 140.044 205.474Z" fill="white"/>
<path d="M32.4601 183.661H72.2464C73.3126 183.659 74.3348 183.235 75.0886 182.482C75.8424 181.729 76.2664 180.707 76.2675 179.642V127.004C76.2662 125.939 75.8421 124.917 75.0882 124.164C74.3343 123.411 73.3121 122.987 72.2459 122.986H32.4596C31.3934 122.987 30.3712 123.411 29.6173 124.164C28.8633 124.917 28.4392 125.939 28.438 127.004V179.642C28.4392 180.707 28.8634 181.729 29.6174 182.482C30.3715 183.235 31.3938 183.659 32.4601 183.66V183.661Z" fill="#E6E6E6"/>
<path d="M35.2567 180.293H69.4496C70.3964 180.292 71.3042 179.916 71.9737 179.247C72.6432 178.578 73.0197 177.671 73.0207 176.725V129.886C73.0197 128.94 72.6432 128.032 71.9737 127.364C71.3042 126.695 70.3964 126.318 69.4496 126.317H35.2567C34.3098 126.318 33.4021 126.695 32.7326 127.364C32.0631 128.032 31.6865 128.94 31.6855 129.886V176.725C31.6865 177.671 32.0631 178.578 32.7326 179.247C33.4021 179.916 34.3098 180.292 35.2567 180.293Z" fill="white"/>
<path d="M38.6677 135.218H66.0388C66.2756 135.218 66.5027 135.124 66.6701 134.957C66.8376 134.789 66.9316 134.562 66.9316 134.326C66.9316 134.089 66.8376 133.862 66.6701 133.695C66.5027 133.528 66.2756 133.434 66.0388 133.434H38.6677C38.4309 133.434 38.2038 133.528 38.0364 133.695C37.869 133.862 37.7749 134.089 37.7749 134.326C37.7749 134.562 37.869 134.789 38.0364 134.957C38.2038 135.124 38.4309 135.218 38.6677 135.218Z" fill="#FD550E"/>
<path d="M38.6677 138.744H66.0388C66.2756 138.744 66.5027 138.65 66.6701 138.483C66.8376 138.316 66.9316 138.089 66.9316 137.852C66.9316 137.616 66.8376 137.389 66.6701 137.221C66.5027 137.054 66.2756 136.96 66.0388 136.96H38.6677C38.4309 136.96 38.2038 137.054 38.0364 137.221C37.869 137.389 37.7749 137.616 37.7749 137.852C37.7749 138.089 37.869 138.316 38.0364 138.483C38.2038 138.65 38.4309 138.744 38.6677 138.744Z" fill="#FD550E"/>
<path d="M54.174 142.268H66.0387C66.2755 142.268 66.5026 142.174 66.67 142.007C66.8374 141.839 66.9315 141.612 66.9315 141.376C66.9315 141.139 66.8374 140.912 66.67 140.745C66.5026 140.578 66.2755 140.484 66.0387 140.484H54.174C53.9373 140.484 53.7102 140.578 53.5428 140.745C53.3753 140.912 53.2812 141.139 53.2812 141.376C53.2812 141.612 53.3753 141.839 53.5428 142.007C53.7102 142.174 53.9373 142.268 54.174 142.268Z" fill="#FD550E"/>
<path d="M38.6677 149.648H66.0388C66.2756 149.648 66.5027 149.554 66.6701 149.386C66.8376 149.219 66.9316 148.992 66.9316 148.756C66.9316 148.519 66.8376 148.292 66.6701 148.125C66.5027 147.957 66.2756 147.863 66.0388 147.863H38.6677C38.4309 147.863 38.2038 147.957 38.0364 148.125C37.869 148.292 37.7749 148.519 37.7749 148.756C37.7749 148.992 37.869 149.219 38.0364 149.386C38.2038 149.554 38.4309 149.648 38.6677 149.648Z" fill="#E4E4E4"/>
<path d="M38.6677 153.172H66.0388C66.2756 153.172 66.5027 153.078 66.6701 152.911C66.8376 152.744 66.9316 152.517 66.9316 152.28C66.9316 152.044 66.8376 151.817 66.6701 151.649C66.5027 151.482 66.2756 151.388 66.0388 151.388H38.6677C38.4309 151.388 38.2038 151.482 38.0364 151.649C37.869 151.817 37.7749 152.044 37.7749 152.28C37.7749 152.517 37.869 152.744 38.0364 152.911C38.2038 153.078 38.4309 153.172 38.6677 153.172Z" fill="#E4E4E4"/>
<path d="M54.174 156.697H66.0387C66.2755 156.697 66.5026 156.603 66.67 156.436C66.8374 156.268 66.9315 156.042 66.9315 155.805C66.9315 155.568 66.8374 155.341 66.67 155.174C66.5026 155.007 66.2755 154.913 66.0387 154.913H54.174C53.9373 154.913 53.7102 155.007 53.5428 155.174C53.3753 155.341 53.2812 155.568 53.2812 155.805C53.2812 156.042 53.3753 156.268 53.5428 156.436C53.7102 156.603 53.9373 156.697 54.174 156.697Z" fill="#E4E4E4"/>
<path d="M167.851 113.506L61.1156 22.2871H60.9464V23.6264H60.6206L166.979 114.523L167.851 113.506Z" fill="#5D6E7A"/>
<path d="M226.138 407.882C226.557 410.962 228.653 413.744 231.348 415.557C231.99 415.991 232.668 416.369 233.374 416.689C234.15 417.039 234.951 417.333 235.769 417.567C239.361 418.614 243.241 418.661 247.018 418.682L258.469 418.755C261.478 418.772 264.584 418.772 267.364 417.619C267.405 417.604 267.446 417.587 267.486 417.567C270.216 416.39 272.542 413.799 272.475 410.84C272.448 409.796 272.153 408.778 271.617 407.882C271.263 407.28 270.836 406.723 270.348 406.223C268.835 404.653 266.734 403.425 264.769 402.436C261.527 400.809 257.862 398.698 256.913 395.353C256.812 395.001 256.745 394.641 256.71 394.277C256.487 391.977 257.607 389.863 259.033 387.971C259.172 387.783 259.319 387.595 259.469 387.407C259.789 387.006 260.121 386.612 260.449 386.236C260.588 386.076 260.728 385.912 260.871 385.748C262.189 384.222 263.517 382.592 264.211 380.77C264.51 380.007 264.676 379.199 264.703 378.38C264.779 375.422 261.47 372.443 258.967 373.84C257.739 373.722 256.512 373.6 255.285 373.474C253.778 373.324 252.279 373.174 250.776 373.021H250.772C250.434 372.993 250.103 372.958 249.771 372.924C246.644 372.614 243.518 372.301 240.396 371.986C239.008 371.85 237.376 371.799 236.473 372.865C235.49 374.029 235.999 375.868 236.972 377.042C237.944 378.216 239.294 379.042 240.208 380.254C240.764 381.043 241.15 381.939 241.343 382.885C241.535 383.831 241.53 384.806 241.327 385.749C241.229 386.314 241.082 386.869 240.888 387.408C240.546 388.371 240.073 389.282 239.482 390.115C237.432 392.986 234.395 394.964 231.699 397.24C229.004 399.515 226.476 402.41 226.106 405.915C226.096 406.016 226.085 406.121 226.082 406.225C226.043 406.778 226.062 407.334 226.138 407.883L226.138 407.882Z" fill="#E6E6E6"/>
<path d="M248.066 375.982C250.787 373.297 253.104 370.232 254.947 366.883C256.783 363.551 258.14 359.977 258.976 356.266C259.824 352.5 260.105 348.628 259.809 344.779C259.197 336.941 256.298 329.454 251.471 323.244C251.177 322.866 250.875 322.495 250.566 322.129C250.222 321.719 249.637 322.309 249.979 322.716C256.269 330.201 259.505 339.78 259.042 349.544C258.579 359.307 254.45 368.538 247.479 375.395C247.098 375.771 247.685 376.357 248.066 375.982Z" fill="#E6E6E6"/>
<path d="M251.806 323.951C251.47 323.825 251.141 323.682 250.82 323.521L250.771 323.596L251.806 323.951Z" fill="#E6E6E6"/>
<path d="M245.393 316.63C245.529 317.39 245.774 318.127 246.122 318.818C247.081 320.742 248.608 322.325 250.498 323.354C250.603 323.409 250.71 323.469 250.818 323.521C250.947 323.319 251.08 323.117 251.205 322.915C252.095 321.591 252.753 320.126 253.151 318.581C253.556 316.766 253.336 314.728 252.171 313.275C251.006 311.822 248.792 311.171 247.185 312.111C246.72 312.388 246.326 312.768 246.033 313.223C246.193 313.421 246.353 313.616 246.514 313.815C246.528 313.834 246.543 313.851 246.56 313.868C246.699 314.042 246.842 314.212 246.982 314.387C247.564 315.101 248.143 315.819 248.725 316.529C247.905 316.68 247.069 316.737 246.236 316.7L246.034 316.689C245.822 316.675 245.606 316.658 245.393 316.63Z" fill="#E6E6E6"/>
<path d="M257.154 330.916L257.378 333.822L257.437 334.607C257.5 334.575 257.566 334.544 257.628 334.512C259.797 333.437 261.711 331.912 263.243 330.038C264.774 328.164 265.888 325.986 266.51 323.648C266.717 322.837 266.863 322.011 266.945 321.178C265.816 321.003 264.683 320.826 263.553 320.652C264.468 319.463 265.613 318.471 266.921 317.736C266.623 314.828 265.571 312.048 263.87 309.67C263.578 314.541 258.473 317.638 256.604 322.143C256.03 323.553 255.782 325.073 255.877 326.592C255.973 328.111 256.409 329.589 257.154 330.916Z" fill="#E6E6E6"/>
<path d="M258.122 356.435C258.394 356.449 258.666 356.456 258.934 356.453C261.255 356.438 263.548 355.95 265.673 355.019C267.799 354.087 269.711 352.732 271.293 351.035C272.574 349.634 273.603 348.023 274.337 346.273L274.268 346.263C273.138 346.088 272.005 345.911 270.875 345.737C272.075 344.174 273.67 342.96 275.495 342.218C275.742 340.643 275.761 339.042 275.551 337.462C272.998 341.618 267.033 341.953 263.263 345.046C261.466 346.543 260.241 348.613 259.794 350.908C259.683 351.475 259.623 352.051 259.616 352.629C259.612 352.768 259.612 352.904 259.616 353.04L259.532 353.228L258.122 356.435Z" fill="#E6E6E6"/>
<path d="M246.907 361.247C247.629 362.132 248.35 363.026 249.072 363.909C248.185 364.072 247.281 364.125 246.38 364.069C247.18 366.93 248.715 369.533 250.832 371.619C251.031 371.814 251.237 372.005 251.446 372.186C251.488 372.225 251.533 372.263 251.575 372.302L251.763 371.768L251.767 371.765L252.834 368.813C254.188 367.454 255.125 365.736 255.536 363.863V363.856C255.786 362.759 255.844 361.627 255.707 360.511C255.111 355.672 251.017 351.321 252.035 346.551C249.792 348.366 248.051 350.725 246.979 353.404C247.561 354.118 248.14 354.835 248.722 355.546C247.901 355.697 247.066 355.754 246.233 355.717C245.941 356.896 245.782 358.104 245.759 359.319C245.755 359.493 245.755 359.664 245.759 359.838C246.125 360.291 246.492 360.74 246.859 361.194C246.873 361.212 246.888 361.229 246.904 361.246L246.907 361.247Z" fill="#E6E6E6"/>
<path d="M26.5998 44.4094H66.3861C67.4522 44.4079 68.4742 43.9839 69.2279 43.2305C69.9816 42.4772 70.4055 41.4558 70.4066 40.3906V4.01823C70.4054 2.95291 69.9813 1.93158 69.2274 1.17829C68.4734 0.424995 67.4513 0.00124656 66.3851 0H26.5987C25.5325 0.00124656 24.5103 0.424995 23.7564 1.17829C23.0025 1.93158 22.5784 2.95291 22.5771 4.01823V40.3906C22.5784 41.4559 23.0025 42.4773 23.7564 43.2306C24.5103 43.9839 25.5325 44.4076 26.5987 44.4089L26.5998 44.4094Z" fill="#E6E6E6"/>
<path d="M29.3963 41.06H63.5892C64.536 41.059 65.4438 40.6828 66.1133 40.0138C66.7828 39.3449 67.1594 38.4379 67.1603 37.4918V6.91703C67.1594 5.97099 66.7828 5.06399 66.1133 4.39504C65.4438 3.72609 64.536 3.34985 63.5892 3.34888H29.3963C28.4495 3.34985 27.5418 3.72609 26.8722 4.39504C26.2027 5.06399 25.8262 5.97099 25.8252 6.91703V37.4923C25.8262 38.4384 26.2027 39.3454 26.8722 40.0143C27.5418 40.6833 28.4495 41.059 29.3963 41.06Z" fill="white"/>
<path d="M32.8073 12.2504H60.1785C60.4153 12.2504 60.6424 12.1564 60.8098 11.9892C60.9772 11.8219 61.0713 11.595 61.0713 11.3584C61.0713 11.1218 60.9772 10.8949 60.8098 10.7276C60.6424 10.5603 60.4153 10.4664 60.1785 10.4664H32.8073C32.5706 10.4664 32.3435 10.5603 32.1761 10.7276C32.0086 10.8949 31.9146 11.1218 31.9146 11.3584C31.9146 11.595 32.0086 11.8219 32.1761 11.9892C32.3435 12.1564 32.5706 12.2504 32.8073 12.2504Z" fill="#FD550E"/>
<path d="M32.8073 15.7767H60.1785C60.4153 15.7767 60.6424 15.6827 60.8098 15.5154C60.9772 15.3482 61.0713 15.1213 61.0713 14.8847C61.0713 14.6481 60.9772 14.4212 60.8098 14.2539C60.6424 14.0866 60.4153 13.9926 60.1785 13.9926H32.8073C32.5706 13.9926 32.3435 14.0866 32.1761 14.2539C32.0086 14.4212 31.9146 14.6481 31.9146 14.8847C31.9146 15.1213 32.0086 15.3482 32.1761 15.5154C32.3435 15.6827 32.5706 15.7767 32.8073 15.7767Z" fill="#FD550E"/>
<path d="M48.3137 19.3004H60.1783C60.4151 19.3004 60.6422 19.2064 60.8096 19.0391C60.9771 18.8718 61.0711 18.6449 61.0711 18.4084C61.0711 18.1718 60.9771 17.9449 60.8096 17.7776C60.6422 17.6103 60.4151 17.5163 60.1783 17.5163H48.3137C48.0769 17.5163 47.8498 17.6103 47.6824 17.7776C47.515 17.9449 47.4209 18.1718 47.4209 18.4084C47.4209 18.6449 47.515 18.8718 47.6824 19.0391C47.8498 19.2064 48.0769 19.3004 48.3137 19.3004Z" fill="#FD550E"/>
<path d="M32.8073 26.6801H60.1785C60.4153 26.6801 60.6424 26.5861 60.8098 26.4188C60.9772 26.2515 61.0713 26.0246 61.0713 25.788C61.0713 25.5514 60.9772 25.3246 60.8098 25.1573C60.6424 24.99 60.4153 24.896 60.1785 24.896H32.8073C32.5706 24.896 32.3435 24.99 32.1761 25.1573C32.0086 25.3246 31.9146 25.5514 31.9146 25.788C31.9146 26.0246 32.0086 26.2515 32.1761 26.4188C32.3435 26.5861 32.5706 26.6801 32.8073 26.6801Z" fill="#E4E4E4"/>
<path d="M32.8073 30.2048H60.1785C60.4153 30.2048 60.6424 30.1108 60.8098 29.9435C60.9772 29.7762 61.0713 29.5493 61.0713 29.3127C61.0713 29.0762 60.9772 28.8493 60.8098 28.682C60.6424 28.5147 60.4153 28.4207 60.1785 28.4207H32.8073C32.5706 28.4207 32.3435 28.5147 32.1761 28.682C32.0086 28.8493 31.9146 29.0762 31.9146 29.3127C31.9146 29.5493 32.0086 29.7762 32.1761 29.9435C32.3435 30.1108 32.5706 30.2048 32.8073 30.2048Z" fill="#E4E4E4"/>
<path d="M48.3137 33.7295H60.1783C60.4151 33.7295 60.6422 33.6355 60.8096 33.4682C60.9771 33.3009 61.0711 33.074 61.0711 32.8375C61.0711 32.6009 60.9771 32.374 60.8096 32.2067C60.6422 32.0394 60.4151 31.9454 60.1783 31.9454H48.3137C48.0769 31.9454 47.8498 32.0394 47.6824 32.2067C47.515 32.374 47.4209 32.6009 47.4209 32.8375C47.4209 33.074 47.515 33.3009 47.6824 33.4682C47.8498 33.6355 48.0769 33.7295 48.3137 33.7295Z" fill="#E4E4E4"/>
<path d="M46.1658 159.672L37.7754 167.951L46.1658 176.23L48.0514 174.346L41.7064 168.006L48.1038 161.613L46.1658 159.672Z" fill="#FD550E"/>
<path d="M58.5413 159.672L66.9318 167.951L58.5413 176.23L56.6557 174.346L63.0008 168.006L56.5991 161.611L58.5413 159.672Z" fill="#FD550E"/>
<path d="M144.826 112.189C144.568 111.933 144.219 111.789 143.855 111.789C143.492 111.789 143.143 111.933 142.885 112.189L124.233 130.826C123.976 131.083 123.832 131.432 123.832 131.795C123.832 132.159 123.976 132.507 124.233 132.765L125.25 133.781C125.508 134.038 125.857 134.182 126.221 134.182C126.584 134.182 126.933 134.038 127.191 133.781L145.842 115.145C146.099 114.888 146.244 114.539 146.244 114.176C146.244 113.812 146.099 113.463 145.842 113.206L144.825 112.19M145.796 111.22L146.813 112.236C147.328 112.751 147.617 113.449 147.617 114.176C147.617 114.903 147.328 115.601 146.813 116.115L128.162 134.751C127.647 135.265 126.949 135.554 126.221 135.554C125.493 135.554 124.794 135.265 124.28 134.751L123.263 133.735C122.748 133.22 122.458 132.523 122.458 131.795C122.458 131.068 122.748 130.37 123.263 129.856L141.914 111.22C142.429 110.706 143.127 110.417 143.855 110.417C144.583 110.417 145.281 110.706 145.796 111.22L145.796 111.22Z" fill="#5D6E7A"/>
<path d="M143.359 119.214C143.181 119.214 143.01 119.145 142.883 119.022L138.861 115.147C138.796 115.085 138.744 115.01 138.708 114.927C138.672 114.845 138.653 114.756 138.651 114.666C138.649 114.576 138.666 114.486 138.699 114.403C138.732 114.319 138.781 114.242 138.843 114.177C138.906 114.113 138.981 114.061 139.063 114.025C139.146 113.989 139.235 113.97 139.325 113.968C139.415 113.966 139.505 113.982 139.589 114.015C139.673 114.048 139.749 114.098 139.814 114.16L143.836 118.033C143.934 118.128 144.002 118.25 144.03 118.384C144.059 118.517 144.047 118.656 143.995 118.783C143.944 118.91 143.856 119.018 143.743 119.095C143.629 119.171 143.496 119.212 143.359 119.212V119.214Z" fill="#5D6E7A"/>
<path d="M130.51 116.56C130.328 116.56 130.153 116.487 130.024 116.359C129.896 116.23 129.823 116.056 129.823 115.874C129.823 115.284 129.588 114.719 129.171 114.302C128.753 113.885 128.187 113.651 127.597 113.65C127.415 113.65 127.241 113.578 127.112 113.449C126.983 113.32 126.911 113.146 126.911 112.964C126.911 112.782 126.983 112.608 127.112 112.48C127.241 112.351 127.415 112.279 127.597 112.279C128.187 112.278 128.753 112.043 129.171 111.626C129.588 111.21 129.823 110.644 129.823 110.054C129.823 109.873 129.896 109.698 130.024 109.57C130.153 109.441 130.328 109.369 130.51 109.369C130.691 109.369 130.866 109.441 130.995 109.57C131.123 109.698 131.196 109.873 131.196 110.054C131.196 110.644 131.431 111.21 131.848 111.626C132.266 112.043 132.832 112.278 133.422 112.279C133.604 112.279 133.778 112.351 133.907 112.48C134.036 112.608 134.108 112.782 134.108 112.964C134.108 113.146 134.036 113.32 133.907 113.449C133.778 113.578 133.604 113.65 133.422 113.65C132.832 113.651 132.266 113.885 131.848 114.302C131.431 114.719 131.196 115.284 131.196 115.874C131.196 116.056 131.123 116.23 130.995 116.359C130.866 116.487 130.691 116.56 130.51 116.56ZM129.709 112.964C130.016 113.188 130.286 113.458 130.51 113.765C130.733 113.458 131.003 113.188 131.311 112.964C131.003 112.741 130.733 112.471 130.51 112.164C130.286 112.471 130.016 112.741 129.709 112.964Z" fill="#5D6E7A"/>
<path d="M145.07 131.109C144.888 131.109 144.714 131.036 144.585 130.908C144.456 130.779 144.384 130.605 144.384 130.423C144.383 129.833 144.148 129.268 143.731 128.851C143.314 128.434 142.748 128.2 142.158 128.199C141.976 128.199 141.801 128.127 141.673 127.998C141.544 127.869 141.472 127.695 141.472 127.513C141.472 127.331 141.544 127.157 141.673 127.028C141.801 126.9 141.976 126.828 142.158 126.828C142.748 126.827 143.314 126.592 143.731 126.175C144.148 125.758 144.383 125.193 144.384 124.603C144.384 124.422 144.456 124.247 144.585 124.119C144.714 123.99 144.888 123.918 145.07 123.918C145.252 123.918 145.427 123.99 145.555 124.119C145.684 124.247 145.756 124.422 145.756 124.603C145.757 125.193 145.992 125.758 146.409 126.175C146.826 126.592 147.392 126.827 147.982 126.828C148.164 126.828 148.339 126.9 148.467 127.028C148.596 127.157 148.668 127.331 148.668 127.513C148.668 127.695 148.596 127.869 148.467 127.998C148.339 128.127 148.164 128.199 147.982 128.199C147.392 128.2 146.826 128.434 146.409 128.851C145.992 129.268 145.757 129.833 145.756 130.423C145.756 130.605 145.684 130.779 145.555 130.908C145.427 131.036 145.252 131.109 145.07 131.109ZM144.269 127.513C144.576 127.737 144.847 128.007 145.07 128.314C145.294 128.007 145.564 127.737 145.871 127.513C145.564 127.29 145.294 127.02 145.071 126.713C144.847 127.02 144.577 127.29 144.269 127.513Z" fill="#5D6E7A"/>
</g>
<defs>
<clipPath id="clip0_50_1385">
<rect width="297" height="419" fill="white"/>
</clipPath>
</defs>
</svg>
