<svg width="391" height="342" viewBox="0 0 391 342" fill="none" xmlns="http://www.w3.org/2000/svg">
<g clip-path="url(#clip0_49_947)">
<path d="M352.541 177.982C352.592 220.301 336.303 260.992 307.099 291.501C305.338 293.352 303.53 295.158 301.674 296.92C298.847 299.621 295.924 302.217 292.907 304.708C264.682 328.06 229.446 341.183 192.884 341.958C191.666 341.986 190.443 342 189.215 342C160.056 342 123.38 326.36 90.0975 304.708C87.3438 302.917 84.6147 301.084 81.91 299.21C80.6458 298.342 79.3878 297.462 78.1358 296.57C65.299 287.467 53.1144 277.471 41.6717 266.655C34.1798 259.594 27.1543 252.05 20.64 244.071C-4.93359 212.393 -10.5742 183.85 25.8853 177.982C30.202 177.29 34.3914 176.55 38.4537 175.762C44.338 174.626 49.9695 173.4 55.3481 172.082C62.5931 170.314 69.3998 168.397 75.7683 166.33C77.9106 165.638 80.0038 164.932 82.048 164.211C112.269 153.552 132.496 139.652 146.265 124.57C148.6 122.017 150.753 119.433 152.724 116.819C155.739 112.839 158.477 108.656 160.92 104.299C164.292 98.2452 167.124 91.9036 169.383 85.3486L169.508 84.9886C180.462 53.2551 177.13 23.8206 189.215 13.9691C240.877 -28.1467 305.195 31.8302 335.384 102.559C336.906 106.123 338.337 109.708 339.678 113.315C340.28 114.926 340.861 116.54 341.42 118.158C342.891 122.373 344.226 126.598 345.424 130.834C345.884 132.45 346.322 134.064 346.739 135.677C347.185 137.418 347.613 139.153 348.008 140.889C350.946 153.598 352.541 166.132 352.541 177.982Z" fill="#EDE3FF"/>
<path d="M192.884 341.958C191.666 341.986 190.443 342 189.215 342C160.056 342 123.381 326.36 90.0976 304.708C87.3439 302.917 84.6148 301.084 81.9102 299.21L84.2823 284.715L156.093 275.14L192.135 302.816L192.884 341.958Z" fill="#2F2E41"/>
<path d="M196.341 83.1189H186.108C185.791 83.1191 185.487 83.2456 185.263 83.4706C185.039 83.6957 184.913 84.0009 184.913 84.3192V94.6C184.913 94.7573 184.944 94.9131 185.004 95.0584C185.064 95.2037 185.152 95.3357 185.263 95.4467C185.374 95.5578 185.506 95.6458 185.651 95.7056C185.796 95.7655 185.951 95.7961 186.108 95.7957H196.341C196.657 95.7958 196.961 95.67 197.185 95.4459C197.409 95.2217 197.535 94.9176 197.536 94.6V84.3192C197.535 84.0011 197.409 83.6964 197.185 83.4715C196.961 83.2466 196.658 83.1199 196.341 83.1189Z" fill="white"/>
<path d="M196.341 100.638H186.108C185.791 100.638 185.487 100.765 185.263 100.99C185.039 101.215 184.913 101.52 184.913 101.839V112.119C184.913 112.277 184.944 112.433 185.004 112.578C185.064 112.723 185.152 112.855 185.263 112.966C185.374 113.077 185.506 113.165 185.651 113.225C185.796 113.285 185.951 113.316 186.108 113.315H196.341C196.657 113.315 196.961 113.189 197.185 112.965C197.409 112.741 197.535 112.437 197.536 112.119V101.839C197.535 101.521 197.409 101.216 197.185 100.991C196.961 100.766 196.658 100.639 196.341 100.638Z" fill="#E6E6E6"/>
<path d="M196.341 118.158H186.108C185.791 118.158 185.487 118.284 185.263 118.51C185.039 118.735 184.913 119.04 184.913 119.358V129.634C184.912 129.792 184.943 129.948 185.003 130.094C185.063 130.24 185.151 130.372 185.262 130.484C185.373 130.595 185.505 130.684 185.65 130.744C185.795 130.804 185.951 130.835 186.108 130.834H196.341C196.658 130.834 196.962 130.708 197.186 130.483C197.41 130.258 197.536 129.953 197.536 129.634V119.358C197.535 119.04 197.409 118.735 197.185 118.51C196.961 118.285 196.658 118.159 196.341 118.158Z" fill="#E6E6E6"/>
<path d="M197.518 136.665C197.467 136.389 197.321 136.139 197.106 135.958C196.892 135.778 196.621 135.679 196.341 135.677H186.108C185.791 135.677 185.487 135.804 185.263 136.029C185.039 136.254 184.913 136.559 184.913 136.877V147.154C184.912 147.311 184.943 147.468 185.003 147.613C185.063 147.759 185.151 147.892 185.262 148.003C185.373 148.115 185.505 148.203 185.65 148.263C185.795 148.323 185.951 148.354 186.108 148.354H196.341C196.658 148.354 196.962 148.227 197.186 148.002C197.41 147.777 197.536 147.472 197.536 147.154V136.877C197.537 136.806 197.531 136.735 197.518 136.665Z" fill="#E6E6E6"/>
<path d="M196.805 153.289C196.658 153.228 196.5 153.196 196.341 153.197H186.108C185.951 153.196 185.795 153.227 185.65 153.287C185.505 153.348 185.373 153.436 185.262 153.547C185.151 153.659 185.063 153.791 185.003 153.937C184.943 154.083 184.912 154.239 184.913 154.397V164.673C184.912 164.831 184.942 164.987 185.002 165.133C185.062 165.279 185.15 165.412 185.261 165.523C185.372 165.635 185.504 165.723 185.65 165.783C185.795 165.844 185.951 165.874 186.108 165.873H196.341C196.658 165.873 196.962 165.747 197.186 165.522C197.41 165.297 197.536 164.991 197.536 164.673V154.397C197.536 154.161 197.466 153.93 197.336 153.733C197.206 153.536 197.022 153.382 196.805 153.289Z" fill="#E6E6E6"/>
<path d="M217.837 83.1189H207.604C207.287 83.1191 206.983 83.2456 206.759 83.4706C206.535 83.6957 206.409 84.0009 206.409 84.3192V94.6C206.409 94.7573 206.44 94.9131 206.5 95.0584C206.56 95.2037 206.648 95.3357 206.759 95.4467C206.87 95.5578 207.002 95.6458 207.147 95.7056C207.292 95.7655 207.447 95.7961 207.604 95.7957H217.837C218.153 95.7958 218.457 95.67 218.681 95.4459C218.905 95.2217 219.031 94.9176 219.032 94.6V84.3192C219.031 84.0011 218.905 83.6964 218.681 83.4715C218.457 83.2466 218.154 83.1199 217.837 83.1189Z" fill="#E6E6E6"/>
<path d="M217.837 100.638H207.604C207.287 100.638 206.983 100.765 206.759 100.99C206.535 101.215 206.409 101.52 206.409 101.839V112.119C206.409 112.277 206.44 112.433 206.5 112.578C206.56 112.723 206.648 112.855 206.759 112.966C206.87 113.077 207.002 113.165 207.147 113.225C207.292 113.285 207.447 113.316 207.604 113.315H217.837C218.153 113.315 218.457 113.189 218.681 112.965C218.905 112.741 219.031 112.437 219.032 112.119V101.839C219.031 101.521 218.905 101.216 218.681 100.991C218.457 100.766 218.154 100.639 217.837 100.638Z" fill="#FD550E"/>
<path d="M217.837 118.158H207.604C207.287 118.158 206.983 118.284 206.759 118.51C206.535 118.735 206.409 119.04 206.409 119.358V129.634C206.408 129.792 206.439 129.948 206.499 130.094C206.559 130.24 206.647 130.372 206.758 130.484C206.869 130.595 207.001 130.684 207.146 130.744C207.291 130.804 207.447 130.835 207.604 130.834H217.837C218.154 130.834 218.458 130.708 218.682 130.483C218.906 130.258 219.032 129.953 219.032 129.634V119.358C219.031 119.04 218.905 118.735 218.681 118.51C218.457 118.285 218.154 118.159 217.837 118.158Z" fill="#FD550E"/>
<path d="M217.837 135.677H207.604C207.353 135.677 207.109 135.757 206.906 135.904C206.703 136.052 206.552 136.26 206.473 136.499C206.43 136.621 206.409 136.749 206.409 136.877V147.154C206.408 147.311 206.439 147.468 206.499 147.613C206.559 147.759 206.647 147.892 206.758 148.003C206.869 148.115 207.001 148.203 207.146 148.263C207.291 148.323 207.447 148.354 207.604 148.354H217.837C218.154 148.354 218.458 148.227 218.682 148.002C218.906 147.777 219.032 147.472 219.032 147.154V136.877C219.031 136.559 218.905 136.255 218.681 136.03C218.457 135.805 218.154 135.678 217.837 135.677Z" fill="#FD550E"/>
<path d="M217.837 153.197H207.604C207.447 153.196 207.291 153.227 207.146 153.287C207.001 153.348 206.869 153.436 206.758 153.547C206.647 153.659 206.559 153.791 206.499 153.937C206.439 154.083 206.408 154.239 206.409 154.397V164.673C206.408 164.831 206.439 164.987 206.499 165.133C206.559 165.279 206.647 165.411 206.758 165.522C206.869 165.634 207.001 165.722 207.146 165.783C207.291 165.843 207.447 165.874 207.604 165.873H217.837C218.154 165.873 218.458 165.747 218.682 165.522C218.906 165.297 219.032 164.991 219.032 164.673V154.397C219.032 154.079 218.906 153.773 218.682 153.548C218.458 153.323 218.154 153.197 217.837 153.197Z" fill="#E6E6E6"/>
<path d="M239.333 83.1189H229.099C228.783 83.1191 228.479 83.2456 228.255 83.4706C228.03 83.6957 227.904 84.0009 227.904 84.3192V94.6C227.904 94.7573 227.936 94.9131 227.996 95.0584C228.056 95.2037 228.144 95.3357 228.255 95.4467C228.366 95.5578 228.498 95.6458 228.643 95.7056C228.788 95.7655 228.943 95.7961 229.099 95.7957H239.333C239.649 95.7958 239.952 95.67 240.176 95.4459C240.4 95.2217 240.527 94.9176 240.528 94.6V84.3192C240.527 84.0011 240.401 83.6964 240.177 83.4715C239.953 83.2466 239.649 83.1199 239.333 83.1189Z" fill="#FD550E"/>
<path d="M239.333 100.638H229.099C228.783 100.638 228.479 100.765 228.254 100.99C228.03 101.215 227.904 101.52 227.904 101.839V112.119C227.904 112.277 227.936 112.433 227.996 112.578C228.056 112.723 228.144 112.855 228.255 112.966C228.366 113.077 228.498 113.165 228.643 113.225C228.788 113.285 228.943 113.316 229.099 113.315H239.333C239.649 113.315 239.952 113.189 240.176 112.965C240.4 112.741 240.527 112.437 240.528 112.119V101.839C240.527 101.521 240.401 101.216 240.177 100.991C239.953 100.766 239.649 100.639 239.333 100.638Z" fill="#FD550E"/>
<path d="M239.333 118.158H229.099C228.783 118.158 228.479 118.284 228.254 118.51C228.03 118.735 227.904 119.04 227.904 119.358V129.634C227.904 129.792 227.935 129.948 227.995 130.094C228.055 130.24 228.143 130.372 228.254 130.484C228.365 130.595 228.497 130.684 228.642 130.744C228.787 130.804 228.942 130.835 229.099 130.834H239.333C239.65 130.834 239.953 130.708 240.178 130.483C240.402 130.258 240.528 129.953 240.528 129.634V119.358C240.527 119.04 240.401 118.735 240.177 118.51C239.953 118.285 239.649 118.159 239.333 118.158Z" fill="#E6E6E6"/>
<path d="M239.333 135.677H229.099C228.783 135.677 228.479 135.804 228.255 136.029C228.03 136.254 227.904 136.559 227.904 136.877V147.154C227.904 147.311 227.935 147.468 227.995 147.613C228.055 147.759 228.143 147.892 228.254 148.003C228.365 148.115 228.497 148.203 228.642 148.263C228.787 148.323 228.942 148.354 229.099 148.354H239.333C239.65 148.354 239.954 148.227 240.178 148.002C240.402 147.777 240.528 147.472 240.528 147.154V136.877C240.527 136.559 240.401 136.255 240.177 136.03C239.953 135.805 239.649 135.678 239.333 135.677Z" fill="#FD550E"/>
<path d="M239.333 153.197H229.099C228.942 153.196 228.787 153.227 228.642 153.287C228.497 153.348 228.365 153.436 228.254 153.547C228.143 153.659 228.055 153.791 227.995 153.937C227.935 154.083 227.904 154.239 227.904 154.397V164.673C227.904 164.831 227.935 164.987 227.995 165.133C228.055 165.279 228.143 165.411 228.254 165.522C228.365 165.634 228.497 165.722 228.642 165.783C228.787 165.843 228.942 165.874 229.099 165.873H239.333C239.65 165.873 239.954 165.747 240.178 165.522C240.402 165.297 240.528 164.991 240.528 164.673V154.397C240.528 154.079 240.402 153.773 240.178 153.548C239.954 153.323 239.65 153.197 239.333 153.197Z" fill="#FD550E"/>
<path d="M260.829 83.1189H250.596C250.279 83.1191 249.975 83.2456 249.751 83.4706C249.527 83.6957 249.401 84.0009 249.4 84.3192V94.6C249.401 94.7573 249.432 94.9131 249.492 95.0584C249.552 95.2037 249.64 95.3357 249.751 95.4467C249.862 95.5578 249.994 95.6458 250.139 95.7056C250.284 95.7655 250.439 95.7961 250.596 95.7957H260.829C261.145 95.7958 261.448 95.67 261.672 95.4459C261.896 95.2217 262.023 94.9176 262.024 94.6V84.3192C262.023 84.0011 261.897 83.6964 261.673 83.4715C261.449 83.2466 261.145 83.1199 260.829 83.1189Z" fill="#FD550E"/>
<path d="M260.829 100.638H250.596C250.279 100.638 249.975 100.765 249.751 100.99C249.526 101.215 249.401 101.52 249.4 101.839V112.119C249.401 112.277 249.432 112.433 249.492 112.578C249.552 112.723 249.64 112.855 249.751 112.966C249.862 113.077 249.994 113.165 250.139 113.225C250.284 113.285 250.439 113.316 250.596 113.315H260.829C261.145 113.315 261.448 113.189 261.672 112.965C261.896 112.741 262.023 112.437 262.024 112.119V101.839C262.023 101.521 261.897 101.216 261.673 100.991C261.449 100.766 261.145 100.639 260.829 100.638Z" fill="white"/>
<path d="M260.829 118.158H250.596C250.279 118.158 249.975 118.284 249.751 118.509C249.526 118.735 249.401 119.04 249.4 119.358V129.634C249.4 129.792 249.431 129.948 249.491 130.094C249.551 130.24 249.639 130.372 249.75 130.484C249.861 130.595 249.993 130.684 250.138 130.744C250.283 130.804 250.439 130.835 250.596 130.834H260.829C261.146 130.834 261.45 130.708 261.674 130.483C261.898 130.258 262.024 129.953 262.024 129.634V119.358C262.023 119.04 261.897 118.735 261.673 118.51C261.449 118.285 261.145 118.159 260.829 118.158Z" fill="white"/>
<path d="M260.829 135.677H250.596C250.279 135.677 249.975 135.804 249.751 136.029C249.527 136.254 249.401 136.559 249.4 136.877V147.154C249.4 147.311 249.431 147.468 249.491 147.613C249.551 147.759 249.639 147.892 249.75 148.003C249.861 148.115 249.993 148.203 250.138 148.263C250.283 148.323 250.439 148.354 250.596 148.354H260.829C261.146 148.354 261.45 148.227 261.674 148.002C261.898 147.777 262.024 147.472 262.024 147.154V136.877C262.023 136.559 261.897 136.255 261.673 136.03C261.449 135.805 261.145 135.678 260.829 135.677Z" fill="#E6E6E6"/>
<path d="M260.829 153.197H250.596C250.439 153.196 250.283 153.227 250.138 153.287C249.993 153.348 249.861 153.436 249.75 153.547C249.639 153.659 249.551 153.791 249.491 153.937C249.431 154.083 249.4 154.239 249.4 154.397V164.673C249.4 164.831 249.431 164.987 249.491 165.133C249.551 165.279 249.639 165.411 249.75 165.522C249.861 165.634 249.993 165.722 250.138 165.783C250.283 165.843 250.439 165.874 250.596 165.873H260.829C261.146 165.873 261.45 165.747 261.674 165.522C261.898 165.297 262.024 164.991 262.024 164.673V154.397C262.024 154.079 261.898 153.773 261.674 153.548C261.45 153.323 261.146 153.197 260.829 153.197Z" fill="#FD550E"/>
<path d="M282.325 83.1189H272.087C271.771 83.12 271.468 83.247 271.245 83.472C271.022 83.6969 270.896 84.0016 270.896 84.3192V94.6C270.897 94.9171 271.022 95.2212 271.245 95.4454C271.469 95.6696 271.771 95.7956 272.087 95.7957H282.325C282.641 95.7958 282.945 95.67 283.169 95.4459C283.393 95.2217 283.519 94.9176 283.52 94.6V84.3192C283.519 84.0011 283.393 83.6964 283.169 83.4715C282.945 83.2466 282.642 83.1199 282.325 83.1189Z" fill="white"/>
<path d="M282.325 100.638H272.087C271.771 100.639 271.468 100.766 271.245 100.991C271.022 101.216 270.896 101.521 270.896 101.839V112.119C270.897 112.437 271.022 112.741 271.245 112.965C271.469 113.189 271.771 113.315 272.087 113.315H282.325C282.641 113.315 282.945 113.189 283.169 112.965C283.393 112.741 283.519 112.437 283.52 112.119V101.839C283.519 101.521 283.393 101.216 283.169 100.991C282.945 100.766 282.642 100.639 282.325 100.638Z" fill="white"/>
<path d="M282.325 118.158H272.087C271.771 118.159 271.468 118.286 271.245 118.511C271.022 118.736 270.896 119.04 270.896 119.358V129.634C270.896 129.792 270.927 129.948 270.986 130.093C271.046 130.239 271.133 130.371 271.244 130.482C271.355 130.594 271.486 130.682 271.631 130.743C271.775 130.803 271.93 130.834 272.087 130.834H282.325C282.642 130.834 282.946 130.708 283.17 130.483C283.394 130.258 283.52 129.953 283.52 129.634V119.358C283.519 119.04 283.393 118.735 283.169 118.51C282.945 118.285 282.642 118.159 282.325 118.158Z" fill="white"/>
<path d="M282.325 135.677H272.087C271.771 135.678 271.468 135.805 271.245 136.03C271.022 136.255 270.896 136.56 270.896 136.877V147.154C270.896 147.311 270.927 147.467 270.986 147.612C271.046 147.758 271.133 147.89 271.244 148.002C271.355 148.113 271.486 148.202 271.631 148.262C271.775 148.323 271.93 148.354 272.087 148.354H282.325C282.642 148.354 282.946 148.227 283.17 148.002C283.394 147.777 283.52 147.472 283.52 147.154V136.877C283.519 136.559 283.393 136.255 283.169 136.03C282.945 135.805 282.642 135.678 282.325 135.677Z" fill="#FD550E"/>
<path d="M282.325 153.197H272.087C271.93 153.197 271.775 153.228 271.631 153.288C271.486 153.349 271.355 153.437 271.244 153.549C271.133 153.66 271.046 153.793 270.986 153.938C270.927 154.084 270.896 154.239 270.896 154.397V164.673C270.896 164.83 270.927 164.986 270.986 165.132C271.046 165.277 271.133 165.41 271.244 165.521C271.355 165.633 271.486 165.721 271.631 165.782C271.775 165.842 271.93 165.873 272.087 165.873H282.325C282.642 165.873 282.946 165.747 283.17 165.522C283.394 165.297 283.52 164.991 283.52 164.673V154.397C283.52 154.079 283.394 153.773 283.17 153.548C282.946 153.323 282.642 153.197 282.325 153.197Z" fill="#E6E6E6"/>
<path d="M303.821 83.1189H293.583C293.267 83.12 292.964 83.247 292.741 83.472C292.518 83.6969 292.392 84.0016 292.393 84.3192V94.6C292.393 94.9171 292.518 95.2212 292.741 95.4454C292.965 95.6696 293.267 95.7956 293.583 95.7957H303.821C304.137 95.7958 304.441 95.67 304.665 95.4459C304.889 95.2217 305.015 94.9175 305.016 94.6V84.3192C305.015 84.0011 304.889 83.6964 304.665 83.4715C304.441 83.2466 304.138 83.1199 303.821 83.1189Z" fill="white"/>
<path d="M303.821 100.638H293.583C293.267 100.639 292.964 100.766 292.741 100.991C292.518 101.216 292.392 101.521 292.393 101.839V112.119C292.393 112.437 292.518 112.741 292.741 112.965C292.965 113.189 293.267 113.315 293.583 113.315H303.821C304.137 113.315 304.441 113.189 304.665 112.965C304.889 112.741 305.015 112.437 305.016 112.119V101.839C305.015 101.521 304.889 101.216 304.665 100.991C304.441 100.766 304.138 100.639 303.821 100.638Z" fill="white"/>
<path d="M303.821 118.158H293.583C293.267 118.159 292.964 118.286 292.741 118.511C292.518 118.736 292.392 119.04 292.393 119.358V129.634C292.392 129.792 292.423 129.948 292.482 130.093C292.542 130.239 292.629 130.371 292.74 130.482C292.851 130.594 292.982 130.682 293.127 130.743C293.271 130.803 293.427 130.834 293.583 130.834H303.821C304.138 130.834 304.442 130.708 304.666 130.483C304.89 130.258 305.016 129.953 305.016 129.634V119.358C305.015 119.04 304.889 118.735 304.665 118.51C304.441 118.285 304.138 118.159 303.821 118.158Z" fill="#FD550E"/>
<path d="M303.821 135.677H293.583C293.267 135.678 292.964 135.805 292.741 136.03C292.518 136.255 292.392 136.56 292.393 136.877V147.154C292.392 147.311 292.423 147.467 292.482 147.612C292.542 147.758 292.629 147.89 292.74 148.002C292.851 148.113 292.982 148.202 293.127 148.262C293.271 148.323 293.427 148.354 293.583 148.354H303.821C304.138 148.354 304.442 148.227 304.666 148.002C304.89 147.777 305.016 147.472 305.016 147.154V136.877C305.015 136.559 304.889 136.255 304.665 136.03C304.441 135.805 304.138 135.678 303.821 135.677Z" fill="#E6E6E6"/>
<path d="M303.821 153.197H293.583C293.427 153.197 293.271 153.228 293.127 153.288C292.982 153.349 292.851 153.437 292.74 153.549C292.629 153.66 292.542 153.793 292.482 153.938C292.423 154.084 292.392 154.239 292.393 154.397V164.673C292.392 164.83 292.423 164.986 292.482 165.132C292.542 165.277 292.629 165.41 292.74 165.521C292.851 165.633 292.982 165.721 293.127 165.782C293.271 165.842 293.427 165.873 293.583 165.873H303.821C304.138 165.873 304.442 165.747 304.666 165.522C304.89 165.297 305.016 164.991 305.016 164.673V154.397C305.016 154.079 304.89 153.773 304.666 153.548C304.442 153.323 304.138 153.197 303.821 153.197Z" fill="white"/>
<path d="M325.317 83.1189H315.079C314.763 83.12 314.46 83.247 314.237 83.472C314.013 83.6969 313.888 84.0016 313.888 84.3192V94.6C313.888 94.9171 314.014 95.2212 314.237 95.4454C314.46 95.6696 314.763 95.7956 315.079 95.7957H325.317C325.633 95.7958 325.936 95.67 326.16 95.4459C326.384 95.2217 326.511 94.9175 326.512 94.6V84.3192C326.511 84.0011 326.385 83.6964 326.161 83.4715C325.937 83.2466 325.633 83.1199 325.317 83.1189Z" fill="#FD550E"/>
<path d="M325.317 100.638H315.079C314.763 100.639 314.46 100.766 314.237 100.991C314.013 101.216 313.888 101.521 313.888 101.839V112.119C313.888 112.437 314.014 112.741 314.237 112.965C314.46 113.189 314.763 113.315 315.079 113.315H325.317C325.633 113.315 325.936 113.189 326.16 112.965C326.384 112.741 326.511 112.437 326.512 112.119V101.839C326.511 101.521 326.385 101.216 326.161 100.991C325.937 100.766 325.633 100.639 325.317 100.638Z" fill="#FD550E"/>
<path d="M325.317 118.158H315.079C314.763 118.159 314.46 118.286 314.237 118.511C314.013 118.736 313.888 119.04 313.888 119.358V129.634C313.888 129.792 313.918 129.948 313.978 130.093C314.037 130.239 314.125 130.371 314.236 130.482C314.346 130.594 314.478 130.682 314.622 130.743C314.767 130.803 314.922 130.834 315.079 130.834H325.317C325.633 130.834 325.937 130.708 326.162 130.483C326.386 130.258 326.512 129.953 326.512 129.634V119.358C326.511 119.04 326.385 118.735 326.161 118.51C325.937 118.285 325.633 118.159 325.317 118.158Z" fill="#E6E6E6"/>
<path d="M325.317 135.677H315.079C314.763 135.678 314.46 135.805 314.237 136.03C314.013 136.255 313.888 136.56 313.888 136.877V147.154C313.888 147.311 313.918 147.467 313.978 147.612C314.037 147.758 314.125 147.89 314.236 148.002C314.346 148.113 314.478 148.202 314.622 148.262C314.767 148.323 314.922 148.354 315.079 148.354H325.317C325.634 148.354 325.937 148.227 326.162 148.002C326.386 147.777 326.512 147.472 326.512 147.154V136.877C326.511 136.559 326.385 136.255 326.161 136.03C325.937 135.805 325.633 135.678 325.317 135.677Z" fill="white"/>
<path d="M325.317 153.197H315.079C314.922 153.197 314.767 153.228 314.622 153.288C314.478 153.349 314.346 153.437 314.236 153.549C314.125 153.66 314.037 153.793 313.978 153.938C313.918 154.084 313.888 154.239 313.888 154.397V164.673C313.888 164.83 313.918 164.986 313.978 165.132C314.037 165.277 314.125 165.41 314.236 165.521C314.346 165.633 314.478 165.721 314.622 165.782C314.767 165.842 314.922 165.873 315.079 165.873H325.317C325.634 165.873 325.937 165.747 326.162 165.522C326.386 165.297 326.512 164.991 326.512 164.673V154.397C326.512 154.079 326.386 153.773 326.162 153.548C325.937 153.323 325.634 153.197 325.317 153.197Z" fill="#FD550E"/>
<path d="M346.813 83.1189H336.575C336.259 83.12 335.956 83.247 335.733 83.472C335.509 83.6969 335.384 84.0016 335.384 84.3192V94.6C335.384 94.9171 335.51 95.2212 335.733 95.4454C335.956 95.6696 336.259 95.7956 336.575 95.7957H346.813C347.129 95.7958 347.432 95.67 347.656 95.4459C347.88 95.2217 348.007 94.9175 348.008 94.6V84.3192C348.007 84.0011 347.881 83.6964 347.657 83.4715C347.433 83.2466 347.129 83.1199 346.813 83.1189Z" fill="#FD550E"/>
<path d="M346.813 100.638H336.575C336.259 100.639 335.956 100.766 335.733 100.991C335.509 101.216 335.384 101.521 335.384 101.839V112.119C335.384 112.437 335.51 112.741 335.733 112.965C335.956 113.189 336.259 113.315 336.575 113.315H346.813C347.129 113.315 347.432 113.189 347.656 112.965C347.88 112.741 348.007 112.437 348.008 112.119V101.839C348.007 101.521 347.881 101.216 347.657 100.991C347.433 100.766 347.129 100.639 346.813 100.638Z" fill="#FD550E"/>
<path d="M346.813 118.158H336.575C336.259 118.159 335.956 118.286 335.733 118.511C335.509 118.736 335.384 119.04 335.384 119.358V129.634C335.384 129.792 335.414 129.948 335.474 130.093C335.534 130.239 335.621 130.371 335.732 130.482C335.842 130.594 335.974 130.682 336.118 130.743C336.263 130.803 336.418 130.834 336.575 130.834H346.813C347.13 130.834 347.434 130.708 347.658 130.483C347.882 130.258 348.008 129.953 348.008 129.634V119.358C348.007 119.04 347.881 118.735 347.657 118.51C347.433 118.285 347.129 118.159 346.813 118.158Z" fill="#E6E6E6"/>
<path d="M346.813 135.677H336.575C336.259 135.678 335.956 135.805 335.733 136.03C335.509 136.255 335.384 136.56 335.384 136.877V147.154C335.384 147.311 335.414 147.467 335.474 147.612C335.534 147.758 335.621 147.89 335.732 148.002C335.842 148.113 335.974 148.202 336.118 148.262C336.263 148.323 336.418 148.354 336.575 148.354H346.813C347.13 148.354 347.434 148.227 347.658 148.002C347.882 147.777 348.008 147.472 348.008 147.154V136.877C348.007 136.559 347.881 136.255 347.657 136.03C347.433 135.805 347.129 135.678 346.813 135.677Z" fill="#FD550E"/>
<path d="M346.813 153.197H336.575C336.418 153.197 336.263 153.228 336.118 153.288C335.974 153.349 335.842 153.437 335.732 153.549C335.621 153.66 335.534 153.793 335.474 153.938C335.414 154.084 335.384 154.239 335.384 154.397V164.673C335.384 164.83 335.414 164.986 335.474 165.132C335.534 165.277 335.621 165.41 335.732 165.521C335.842 165.633 335.974 165.721 336.118 165.782C336.263 165.842 336.418 165.873 336.575 165.873H346.813C347.13 165.873 347.434 165.747 347.658 165.522C347.882 165.297 348.008 164.991 348.008 164.673V154.397C348.008 154.079 347.882 153.773 347.658 153.548C347.434 153.323 347.13 153.197 346.813 153.197Z" fill="#FD550E"/>
<path d="M368.309 83.1189H358.071C357.755 83.12 357.452 83.247 357.229 83.472C357.006 83.6969 356.88 84.0016 356.88 84.3192V94.6C356.88 94.9171 357.006 95.2212 357.229 95.4454C357.452 95.6696 357.755 95.7956 358.071 95.7957H368.309C368.625 95.7958 368.928 95.67 369.152 95.4459C369.376 95.2217 369.503 94.9175 369.504 94.6V84.3192C369.503 84.0011 369.377 83.6964 369.153 83.4715C368.929 83.2466 368.625 83.1199 368.309 83.1189Z" fill="#E6E6E6"/>
<path d="M368.309 100.638H358.071C357.755 100.639 357.452 100.766 357.229 100.991C357.006 101.216 356.88 101.521 356.88 101.839V112.119C356.88 112.437 357.006 112.741 357.229 112.965C357.452 113.189 357.755 113.315 358.071 113.315H368.309C368.625 113.315 368.928 113.189 369.152 112.965C369.376 112.741 369.503 112.437 369.504 112.119V101.839C369.503 101.521 369.377 101.216 369.153 100.991C368.929 100.766 368.625 100.639 368.309 100.638Z" fill="#FD550E"/>
<path d="M368.309 118.158H358.071C357.755 118.159 357.452 118.286 357.229 118.511C357.006 118.736 356.88 119.04 356.88 119.358V129.634C356.88 129.792 356.91 129.948 356.97 130.093C357.03 130.239 357.117 130.371 357.228 130.482C357.338 130.594 357.47 130.682 357.615 130.743C357.759 130.803 357.914 130.834 358.071 130.834H368.309C368.626 130.834 368.93 130.708 369.154 130.483C369.378 130.258 369.504 129.953 369.504 129.634V119.358C369.503 119.04 369.377 118.735 369.153 118.51C368.929 118.285 368.625 118.159 368.309 118.158Z" fill="#FD550E"/>
<path d="M368.309 135.677H358.071C357.755 135.678 357.452 135.805 357.229 136.03C357.006 136.255 356.88 136.56 356.88 136.877V147.154C356.88 147.311 356.91 147.467 356.97 147.612C357.03 147.758 357.117 147.89 357.228 148.002C357.338 148.113 357.47 148.202 357.614 148.262C357.759 148.323 357.914 148.354 358.071 148.354H368.309C368.626 148.354 368.93 148.227 369.154 148.002C369.378 147.777 369.504 147.472 369.504 147.154V136.877C369.503 136.559 369.377 136.255 369.153 136.03C368.929 135.805 368.625 135.678 368.309 135.677Z" fill="#FD550E"/>
<path d="M368.309 153.197H358.071C357.914 153.197 357.759 153.228 357.614 153.288C357.47 153.349 357.338 153.437 357.228 153.549C357.117 153.66 357.03 153.793 356.97 153.938C356.91 154.084 356.88 154.239 356.88 154.397V164.673C356.88 164.83 356.91 164.986 356.97 165.132C357.03 165.277 357.117 165.41 357.228 165.521C357.338 165.633 357.47 165.721 357.614 165.782C357.759 165.842 357.914 165.873 358.071 165.873H368.309C368.626 165.873 368.93 165.747 369.154 165.522C369.378 165.297 369.504 164.991 369.504 164.673V154.397C369.504 154.079 369.378 153.773 369.154 153.548C368.93 153.323 368.626 153.197 368.309 153.197Z" fill="#E6E6E6"/>
<path d="M389.805 83.1189H379.567C379.251 83.12 378.948 83.247 378.725 83.472C378.502 83.6969 378.376 84.0016 378.376 84.3192V94.6C378.377 94.9171 378.502 95.2212 378.725 95.4454C378.949 95.6696 379.251 95.7956 379.567 95.7957H389.805C390.121 95.7958 390.425 95.67 390.649 95.4459C390.873 95.2217 390.999 94.9175 391 94.6V84.3192C390.999 84.0011 390.873 83.6964 390.649 83.4715C390.425 83.2466 390.122 83.1199 389.805 83.1189Z" fill="#E6E6E6"/>
<path d="M389.805 100.638H379.567C379.251 100.639 378.948 100.766 378.725 100.991C378.502 101.216 378.376 101.521 378.376 101.839V112.119C378.377 112.437 378.502 112.741 378.725 112.965C378.949 113.189 379.251 113.315 379.567 113.315H389.805C390.121 113.315 390.425 113.189 390.649 112.965C390.873 112.741 390.999 112.437 391 112.119V101.839C390.999 101.521 390.873 101.216 390.649 100.991C390.425 100.766 390.122 100.639 389.805 100.638Z" fill="#E6E6E6"/>
<path d="M389.805 118.158H379.567C379.251 118.159 378.948 118.286 378.725 118.511C378.502 118.736 378.376 119.04 378.376 119.358V129.634C378.376 129.792 378.407 129.948 378.466 130.093C378.526 130.239 378.613 130.371 378.724 130.482C378.835 130.594 378.966 130.682 379.111 130.743C379.255 130.803 379.41 130.834 379.567 130.834H389.805C390.122 130.834 390.426 130.708 390.65 130.483C390.874 130.258 391 129.953 391 129.634V119.358C390.999 119.04 390.873 118.735 390.649 118.51C390.425 118.285 390.122 118.159 389.805 118.158Z" fill="#FD550E"/>
<path d="M389.805 135.677H379.567C379.251 135.678 378.948 135.805 378.725 136.03C378.502 136.255 378.376 136.56 378.376 136.877V147.154C378.376 147.311 378.407 147.467 378.466 147.612C378.526 147.758 378.613 147.89 378.724 148.002C378.835 148.113 378.966 148.202 379.111 148.262C379.255 148.323 379.41 148.354 379.567 148.354H389.805C390.122 148.354 390.426 148.227 390.65 148.002C390.874 147.777 391 147.472 391 147.154V136.877C390.999 136.559 390.873 136.255 390.649 136.03C390.425 135.805 390.122 135.678 389.805 135.677Z" fill="#E6E6E6"/>
<path d="M389.805 153.197H379.567C379.41 153.197 379.255 153.228 379.111 153.288C378.966 153.349 378.835 153.437 378.724 153.549C378.613 153.66 378.526 153.793 378.466 153.938C378.407 154.084 378.376 154.239 378.376 154.397V164.673C378.376 164.83 378.407 164.986 378.466 165.132C378.526 165.277 378.613 165.41 378.724 165.521C378.835 165.633 378.966 165.721 379.111 165.782C379.255 165.842 379.41 165.873 379.567 165.873H389.805C390.122 165.873 390.426 165.747 390.65 165.522C390.874 165.297 391 164.991 391 164.673V154.397C391 154.079 390.874 153.773 390.65 153.548C390.426 153.323 390.122 153.197 389.805 153.197Z" fill="#E6E6E6"/>
<path d="M154.506 304.709H154.221L154.465 304.677L154.506 304.709Z" fill="#2F2E41"/>
<path d="M130.012 113.128C147.358 113.128 161.42 99.007 161.42 81.5877C161.42 64.1685 147.358 50.0473 130.012 50.0473C112.666 50.0473 98.604 64.1685 98.604 81.5877C98.604 99.007 112.666 113.128 130.012 113.128Z" fill="#FFB6B6"/>
<path d="M157.517 58.4628C157.517 58.4628 165.732 42.6926 147.659 41.259C147.659 41.259 132.252 27.2239 116.548 38.6931C116.548 38.6931 107.982 38.6931 103.298 48.4272C103.298 48.4272 96.5611 45.8614 95.0806 52.7282C95.0806 52.7282 90.1509 67.0648 95.0806 79.9677C100.01 92.8706 101.648 94.3042 101.648 94.3042C101.648 94.3042 93.5472 67.2526 113.265 65.8189C132.982 64.3852 155.046 52.0114 156.689 67.7816C158.332 83.5517 160.805 87.4374 160.805 87.4374C160.805 87.4374 176.412 64.9143 157.517 58.4628Z" fill="#2F2E41"/>
<path d="M211.259 159.318L211.157 159.853L210.022 165.873L202.175 207.514L201.71 209.965L200.736 215.149L199.403 222.222L196.447 237.895L195.601 242.386L195.284 244.071L195.173 244.662L194.295 249.311L194.029 250.714L191.886 266.655L190.015 280.546L196.277 286.833L192.544 290.582L190.094 304.676L190.098 304.708H90.0977C86.0522 302.077 82.065 299.364 78.1361 296.57L78.9589 290.384C78.9589 290.384 81.7907 279.336 80.6 278.016C79.4141 276.696 76.812 274.337 76.812 274.337L80.0898 266.655L80.5449 265.589L79.7818 249.694L79.7634 249.311L79.5106 244.071L79.4784 243.397L79.4278 242.386L78.4578 222.222L78.4395 221.889L78.1453 215.777L77.8694 209.965L77.7499 207.514L76.5685 182.986L75.7686 166.33L75.0698 151.83L77.8786 150.875L107.921 140.621L120.365 124.376L146.265 124.57L158.944 124.667L180.1 144.37L184.913 146.678L184.95 146.697L188.402 148.354L197.155 152.55L206.409 156.991L211.157 159.267L211.259 159.318Z" fill="#CACACA"/>
<path d="M123.712 257.39C121.814 258.129 119.778 258.44 117.747 258.303C115.716 258.166 113.74 257.583 111.958 256.596C110.176 255.608 108.631 254.241 107.432 252.589C106.233 250.937 105.409 249.042 105.018 247.036L56.0322 240.057L73.0611 220.713L116.968 230.306C120.368 229.87 123.808 230.702 126.637 232.644C129.467 234.585 131.489 237.502 132.32 240.84C133.151 244.179 132.734 247.708 131.147 250.758C129.561 253.808 126.915 256.168 123.712 257.39Z" fill="#FFB6B6"/>
<path d="M101.871 222.222C100.963 221.066 99.6786 220.27 98.2436 219.973L78.1451 215.777L76.081 215.348C74.8815 215.096 73.7483 214.593 72.7557 213.872C71.763 213.15 70.9333 212.226 70.3208 211.161C69.6855 210.042 69.3011 208.797 69.1945 207.514C69.0987 206.347 69.2379 205.172 69.6037 204.061L76.5683 182.987L81.0872 169.313C81.6348 167.663 81.9581 165.948 82.048 164.211C82.2998 159.407 80.8195 154.672 77.8784 150.875C75.2927 147.536 71.7063 145.122 67.6492 143.988C63.592 142.854 59.2793 143.061 55.3481 144.578C55.2332 144.619 55.1136 144.665 54.9987 144.712C52.1794 145.842 49.6606 147.615 47.6413 149.892C45.6219 152.168 44.1574 154.884 43.3635 157.827L38.4538 175.762L28.3264 212.735C27.3126 216.439 27.1078 220.32 27.726 224.111C28.3442 227.902 29.7707 231.515 31.9081 234.701C34.0455 237.887 36.8431 240.572 40.1096 242.572C43.3761 244.572 47.0343 245.839 50.8337 246.287L79.7816 249.694L93.1775 251.273C94.7265 251.46 96.2888 251.054 97.5531 250.136C98.8175 249.218 99.691 247.855 99.9996 246.32C100.021 246.236 100.038 246.151 100.05 246.066L100.372 244.071L103.098 227.277L103.126 227.106C103.268 226.249 103.229 225.372 103.013 224.53C102.797 223.689 102.408 222.903 101.871 222.222Z" fill="#CACACA"/>
<path d="M154.914 257.929C156.897 258.391 158.956 258.411 160.947 257.988C162.938 257.564 164.813 256.707 166.439 255.477C168.065 254.248 169.402 252.675 170.357 250.87C171.312 249.065 171.862 247.072 171.967 245.03L219.483 231.184L199.908 214.445L157.786 230.16C154.36 230.21 151.071 231.521 148.542 233.844C146.014 236.167 144.422 239.34 144.068 242.763C143.714 246.186 144.622 249.62 146.621 252.416C148.62 255.211 151.571 257.172 154.914 257.929Z" fill="#FFB6B6"/>
<path d="M243.075 200.21L220.475 147.98C218.627 143.692 215.326 140.2 211.157 138.124C209.869 137.487 208.515 136.992 207.121 136.647C206.905 136.591 206.689 136.54 206.473 136.499C203.516 135.851 200.449 135.908 197.518 136.665C194.838 137.356 192.334 138.607 190.169 140.335C188.003 142.064 186.224 144.231 184.949 146.697C184.935 146.717 184.923 146.739 184.912 146.761C183.488 149.529 182.73 152.593 182.701 155.708C182.671 158.823 183.371 161.902 184.742 164.696L185.023 165.259L200.993 197.468C201.538 198.57 201.846 199.774 201.895 201.004C201.944 202.233 201.733 203.458 201.278 204.6C200.822 205.741 200.131 206.773 199.25 207.628C198.369 208.483 197.318 209.141 196.166 209.559L195.044 209.965L174.872 217.282C173.359 217.824 172.114 218.935 171.399 220.381C170.685 221.827 170.557 223.495 171.043 225.033L171.094 225.195L176.748 243.365C176.776 243.448 176.803 243.531 176.835 243.614C176.885 243.771 176.946 243.924 177.019 244.071C177.62 245.425 178.682 246.518 180.015 247.156C181.347 247.793 182.862 247.932 184.287 247.547L195.173 244.662L197.393 244.071L225.505 236.616C229.204 235.634 232.648 233.862 235.601 231.419C238.554 228.977 240.947 225.923 242.616 222.465C244.284 219.008 245.189 215.229 245.268 211.388C245.348 207.547 244.599 203.734 243.075 200.21Z" fill="#CACACA"/>
<path d="M20.6401 244.071C27.1544 252.05 34.1799 259.594 41.6718 266.655H249.447C251.448 266.658 253.367 267.458 254.782 268.88C256.197 270.302 256.993 272.23 256.995 274.24L257.294 327.112C270.076 321.215 282.046 313.685 292.907 304.708C295.923 302.22 298.845 299.624 301.674 296.92C303.527 295.157 305.335 293.35 307.099 291.501C320.322 277.668 331.029 261.615 338.736 244.071H20.6401Z" fill="#3F3D56"/>
<path d="M307.098 291.501C305.338 293.352 303.53 295.158 301.674 296.92H257.445V291.501H307.098Z" fill="white"/>
<path d="M210.845 118.158C210.626 117.753 210.303 117.415 209.909 117.179C209.515 116.943 209.065 116.819 208.606 116.819H57.8949C57.2192 116.821 56.5718 117.091 56.0944 117.572C55.617 118.052 55.3487 118.703 55.3481 119.381V209.965H211.157V119.381C211.16 118.953 211.052 118.532 210.845 118.158Z" fill="#110B1A"/>
<path d="M55.2114 207.513V218.691C55.2114 219.154 55.3023 219.613 55.4789 220.041C55.6555 220.469 55.9143 220.858 56.2406 221.186C56.5669 221.514 56.9543 221.774 57.3806 221.951C57.807 222.128 58.2639 222.22 58.7254 222.22H116.233V244.28H115.469C115.41 244.28 115.35 244.292 115.295 244.315C115.239 244.338 115.189 244.372 115.147 244.414C115.104 244.457 115.071 244.507 115.048 244.563C115.025 244.618 115.013 244.678 115.013 244.738V246.273C115.013 246.333 115.025 246.393 115.048 246.448C115.071 246.504 115.104 246.554 115.147 246.597C115.189 246.639 115.239 246.673 115.295 246.696C115.35 246.719 115.41 246.731 115.469 246.731H151.17C151.23 246.731 151.289 246.719 151.344 246.696C151.4 246.673 151.45 246.639 151.493 246.597C151.535 246.554 151.569 246.504 151.591 246.448C151.614 246.393 151.626 246.333 151.626 246.273V244.738C151.626 244.678 151.614 244.618 151.591 244.563C151.569 244.507 151.535 244.457 151.493 244.414C151.45 244.372 151.4 244.338 151.344 244.315C151.289 244.292 151.23 244.28 151.17 244.28H150.406V222.22H207.914C208.375 222.22 208.832 222.128 209.259 221.951C209.685 221.774 210.072 221.514 210.399 221.186C210.725 220.858 210.984 220.469 211.16 220.041C211.337 219.613 211.428 219.154 211.428 218.691V207.513H55.2114Z" fill="#110B1A"/>
<path d="M131.432 175.43C139.381 175.43 145.824 168.959 145.824 160.977C145.824 152.995 139.381 146.525 131.432 146.525C123.484 146.525 117.041 152.995 117.041 160.977C117.041 168.959 123.484 175.43 131.432 175.43Z" fill="#AB011A"/>
<path d="M168.101 79.8643H165.802C165.802 62.4142 148.605 50.9792 131.255 50.97C128.732 50.9626 126.214 51.2085 123.739 51.704C120.953 52.2626 118.062 52.932 115.221 53.8045C104.018 57.253 93.6281 63.9191 93.6281 79.8643C93.6257 82.961 94.0182 86.0452 94.7958 89.0418L92.5708 89.6235C91.7455 86.4367 91.3284 83.1572 91.3296 79.8643C91.3296 65.9319 97.0254 56.362 106.863 50.6561C112.035 47.6554 118.347 45.7211 125.578 44.7793C128.587 44.3773 131.629 44.2845 134.657 44.5024C154.609 45.9427 168.101 61.3062 168.101 79.8643Z" fill="#AB011A"/>
<path d="M171.93 81.1431L171.025 74.4215C170.801 72.7241 169.987 71.1607 168.726 70.0082C167.917 69.2569 166.948 68.7002 165.892 68.3803C164.837 68.0604 163.723 67.9856 162.635 68.1616L161.196 68.3601C160.802 68.4122 160.423 68.5422 160.08 68.7427C159.736 68.9432 159.436 69.2101 159.196 69.5281C158.955 69.8449 158.778 70.2068 158.676 70.5926C158.574 70.9785 158.55 71.3808 158.603 71.7763L160.695 87.2599C160.781 87.8909 161.063 88.4788 161.5 88.9403C161.937 89.4018 162.508 89.7134 163.132 89.8312C163.316 89.8684 163.504 89.8869 163.692 89.8866C163.828 89.8866 163.963 89.8773 164.097 89.8589L165.706 89.6419C166.687 89.5112 167.631 89.1805 168.48 88.67C169.329 88.1595 170.065 87.4802 170.643 86.6736C170.767 86.4981 170.887 86.3181 170.997 86.1334C171.859 84.6229 172.188 82.8646 171.93 81.1431Z" fill="#FD550E"/>
<path d="M160.268 68.6417C159.846 68.8477 159.478 69.1515 159.196 69.5281C158.955 69.845 158.778 70.2068 158.676 70.5926C158.574 70.9785 158.55 71.3808 158.603 71.7763L160.695 87.2599C160.781 87.891 161.063 88.4788 161.5 88.9403C161.937 89.4018 162.508 89.7135 163.132 89.8312L160.268 68.6417Z" fill="white"/>
<path d="M171.93 81.1431L171.025 74.4215C170.801 72.7241 169.987 71.1607 168.726 70.0082L170.809 85.4133C170.84 85.6606 170.903 85.9027 170.997 86.1334C171.859 84.6229 172.187 82.8646 171.93 81.1431Z" fill="#3F3D56"/>
<path d="M164.773 85.986C165.402 85.9003 165.718 84.3972 165.479 82.6287C165.24 80.8602 164.536 79.496 163.907 79.5817C163.278 79.6674 162.962 81.1705 163.201 82.939C163.44 84.7075 164.144 86.0717 164.773 85.986Z" fill="#3F3D56"/>
<path d="M163.394 77.6764C164.023 77.5908 164.339 76.0876 164.1 74.3191C163.861 72.5506 163.157 71.1864 162.528 71.2721C161.9 71.3578 161.583 72.8609 161.822 74.6294C162.061 76.3979 162.765 77.7621 163.394 77.6764Z" fill="#3F3D56"/>
<path d="M172.128 80.908C172.757 80.8223 173.073 79.3191 172.834 77.5506C172.595 75.7821 171.892 74.4179 171.263 74.5036C170.634 74.5893 170.318 76.0924 170.557 77.8609C170.796 79.6294 171.499 80.9936 172.128 80.908Z" fill="#3F3D56"/>
<path d="M131.255 50.97C128.732 50.9626 126.214 51.2085 123.739 51.704C120.953 52.2626 118.062 52.932 115.221 53.8045C110.785 53.5875 107.521 52.4334 106.863 50.6561C112.035 47.6554 118.347 45.7211 125.578 44.7793C128.587 44.3773 131.629 44.2845 134.657 44.5023C134.978 44.691 135.255 44.9457 135.47 45.2497C135.686 45.5536 135.835 45.8999 135.908 46.2658C136.124 47.8724 134.299 49.5804 131.255 50.97Z" fill="#3F3D56"/>
<path d="M101.907 95.8834L98.3677 81.1062C98.2415 80.573 97.9612 80.0892 97.562 79.7155C97.1629 79.3418 96.6627 79.0949 96.1243 79.0057C95.9722 78.9819 95.8185 78.9696 95.6646 78.9688C95.4477 78.9695 95.2317 78.9959 95.021 79.0472L93.6511 79.3796C91.8872 79.808 90.3647 80.9216 89.4175 82.476C88.4703 84.0304 88.1759 85.8986 88.5989 87.6707L90.1849 94.3C90.547 95.8607 91.4094 97.2588 92.6397 98.2794C92.8391 98.441 93.0478 98.5905 93.2649 98.7272C94.0355 99.2122 94.895 99.5372 95.7928 99.6831C96.6905 99.829 97.6082 99.7928 98.4918 99.5766L99.8571 99.2442C100.218 99.1596 100.558 99.0009 100.855 98.7779C101.296 98.4547 101.632 98.0069 101.82 97.4915C102.007 96.9761 102.038 96.4163 101.907 95.8834Z" fill="#FD550E"/>
<path d="M94.4864 93.1339C95.1035 92.9848 95.2667 91.4573 94.8509 89.7221C94.4351 87.9869 93.5978 86.7011 92.9807 86.8503C92.3635 86.9994 92.2004 88.5269 92.6162 90.2621C93.032 91.9973 93.8693 93.283 94.4864 93.1339Z" fill="#3F3D56"/>
<path d="M89.8897 94.5188C90.5069 94.3697 90.67 92.8422 90.2542 91.107C89.8384 89.3718 89.0011 88.0861 88.384 88.2352C87.7669 88.3843 87.6037 89.9119 88.0195 91.647C88.4353 93.3822 89.2726 94.668 89.8897 94.5188Z" fill="#3F3D56"/>
<path d="M102.133 95.828L98.593 81.0507C98.4551 80.4739 98.1508 79.9507 97.7182 79.5467C97.2857 79.1427 96.744 78.8758 96.1611 78.7794L100.993 98.9625C101.47 98.6116 101.833 98.1266 102.036 97.5687C102.239 97.0109 102.272 96.4051 102.133 95.828Z" fill="white"/>
<path d="M89.3985 84.7439C89.3008 84.333 89.1175 83.9475 88.8607 83.6129C88.3631 84.907 88.2717 86.323 88.5986 87.6707L90.1846 94.3C90.5468 95.8606 91.4092 97.2587 92.6395 98.2794L89.3985 84.7439Z" fill="#3F3D56"/>
</g>
<defs>
<clipPath id="clip0_49_947">
<rect width="391" height="342" fill="white"/>
</clipPath>
</defs>
</svg>
