<svg width="448" height="349" viewBox="0 0 448 349" fill="none" xmlns="http://www.w3.org/2000/svg">
<g clip-path="url(#clip0_50_1432)">
<path d="M93.0048 229.56C72.75 209.601 64.1953 188.779 68.9159 170.93C74.974 148.024 101.887 132.186 142.755 127.478L142.905 128.792C102.607 133.434 76.1045 148.916 70.1931 171.268C65.5989 188.639 74.0294 209.006 93.9317 228.618L93.0048 229.56Z" fill="#F0F0F0"/>
<path d="M288.43 300.408C263.15 300.408 235.68 296.648 208.394 289.417C174.651 280.475 143.713 266.979 118.923 250.386L119.657 249.287C144.327 265.799 175.129 279.234 208.732 288.139C239.098 296.186 269.693 299.915 297.196 298.931L297.244 300.252C294.339 300.356 291.401 300.408 288.43 300.408Z" fill="#F0F0F0"/>
<path d="M346.424 292.093L346 290.84C368.609 283.188 382.75 270.862 386.895 255.193C392.162 235.275 380.718 212.16 354.668 190.108C328.486 167.943 290.731 149.552 248.355 138.323L248.693 137.045C291.254 148.323 329.193 166.809 355.521 189.098C381.982 211.499 393.578 235.092 388.172 255.532C383.909 271.65 369.472 284.292 346.424 292.093Z" fill="#F0F0F0"/>
<path d="M138.821 300.961C89.149 278.909 50.8727 250.299 31.0439 220.402L32.1444 219.67C51.8361 249.361 89.9114 277.801 139.357 299.752L138.821 300.961Z" fill="#F0F0F0"/>
<path d="M313.465 339.164C308.341 339.164 303.131 339.049 297.832 338.82L297.889 337.499C337.43 339.213 372.317 334.476 398.787 323.799L399.281 325.026C376.191 334.339 346.761 339.164 313.465 339.164Z" fill="#F0F0F0"/>
<path d="M284.645 128.664C276.435 125.988 267.99 123.497 259.545 121.259C210.949 108.382 163.179 103.809 121.397 108.039L121.264 106.724C163.202 102.48 211.136 107.063 259.883 119.981C268.352 122.225 276.82 124.724 285.054 127.407L284.645 128.664Z" fill="#F0F0F0"/>
<path d="M61.9609 231.543C41.706 211.584 33.1513 190.762 37.872 172.913C43.9301 150.007 70.8432 134.17 111.711 129.462L111.862 130.776C71.5631 135.418 45.0605 150.9 39.1491 173.251C34.5549 190.622 42.9854 210.989 62.8878 230.601L61.9609 231.543Z" fill="#F0F0F0"/>
<path d="M257.386 302.391C232.106 302.391 204.636 298.631 177.35 291.4C143.607 282.459 112.669 268.962 87.8794 252.369L88.6134 251.27C113.283 267.783 144.085 281.218 177.688 290.122C208.055 298.169 238.649 301.898 266.152 300.914L266.2 302.235C263.295 302.34 260.357 302.392 257.386 302.391Z" fill="#F0F0F0"/>
<path d="M315.38 294.076L314.956 292.823C337.565 285.172 351.706 272.846 355.851 257.177C361.119 237.258 349.674 214.143 323.624 192.091C297.442 169.927 259.687 151.536 217.312 140.307L217.65 139.028C260.21 150.307 298.149 168.793 324.477 191.082C350.938 213.482 362.534 237.075 357.128 257.515C352.865 273.633 338.428 286.276 315.38 294.076Z" fill="#F0F0F0"/>
<path d="M107.777 302.944C58.1051 280.892 19.8288 252.283 0 222.385L1.10043 221.654C20.7922 251.344 58.8675 279.784 108.313 301.735L107.777 302.944Z" fill="#F0F0F0"/>
<path d="M282.421 341.147C277.298 341.147 272.087 341.033 266.788 340.804L266.845 339.483C306.386 341.196 341.273 336.46 367.743 325.782L368.237 327.009C345.147 336.322 315.717 341.147 282.421 341.147Z" fill="#F0F0F0"/>
<path d="M253.601 130.648C245.391 127.972 236.946 125.481 228.501 123.243C179.905 110.365 132.135 105.793 90.3526 110.023L90.2197 108.707C132.158 104.463 180.092 109.046 228.839 121.964C237.308 124.209 245.777 126.707 254.01 129.39L253.601 130.648Z" fill="#F0F0F0"/>
<path d="M22.516 196.126C32.009 185.472 47.152 178.979 60.8749 182.866C48.2149 191.834 39.132 204.995 35.2331 220.021C33.7504 225.821 32.7047 232.427 27.8856 235.974C24.887 238.181 20.9138 238.708 17.2262 238.205C13.5384 237.702 10.0515 236.267 6.61166 234.845L5.68604 234.925C8.34729 220.9 13.023 206.78 22.516 196.126Z" fill="#F2F2F2"/>
<path d="M60.8327 183.163C49.3595 185.943 39.0531 192.272 31.3777 201.249C29.6911 203.153 28.3147 205.31 27.2993 207.643C26.3835 209.947 26.1007 212.454 26.4805 214.904C26.7887 217.196 27.3691 219.505 27.1153 221.832C26.9678 223.021 26.5708 224.166 25.9503 225.19C25.3299 226.215 24.5001 227.097 23.5152 227.778C21.1054 229.54 18.207 230.329 15.3459 231.003C12.1691 231.751 8.85752 232.477 6.26792 234.591C5.95415 234.847 5.57558 234.344 5.88888 234.089C10.3943 230.412 16.6559 230.884 21.6408 228.213C23.9668 226.967 25.9317 225.012 26.4095 222.329C26.8272 219.983 26.2308 217.601 25.8987 215.284C25.4932 212.899 25.6774 210.451 26.435 208.153C27.3285 205.777 28.6196 203.57 30.2528 201.627C33.8601 197.194 38.1413 193.356 42.9396 190.254C48.3962 186.684 54.4227 184.074 60.7585 182.538C61.1507 182.443 61.2224 183.068 60.8327 183.163Z" fill="white"/>
<path d="M33.6796 198.213C32.3497 196.72 31.5934 194.801 31.5458 192.801C31.4983 190.801 32.1626 188.849 33.42 187.294C33.6756 186.98 34.1747 187.363 33.9188 187.677C32.7452 189.123 32.1266 190.942 32.1747 192.804C32.2228 194.666 32.9344 196.45 34.1811 197.834C34.4516 198.135 33.9487 198.512 33.6796 198.213Z" fill="white"/>
<path d="M26.1715 213.763C30.2483 214.034 34.2775 212.757 37.4555 210.187C37.7702 209.932 38.1488 210.434 37.8346 210.689C34.5225 213.357 30.3268 214.678 26.0849 214.386C25.6806 214.358 25.7694 213.735 26.1715 213.763Z" fill="white"/>
<path d="M48.5376 187.506C48.9318 188.191 49.49 188.768 50.1619 189.183C50.8337 189.599 51.5983 189.842 52.3868 189.889C52.7913 189.912 52.7021 190.535 52.3003 190.512C51.4293 190.456 50.5853 190.187 49.8419 189.729C49.0986 189.272 48.4786 188.638 48.0361 187.885C47.9885 187.818 47.9683 187.735 47.9797 187.653C47.991 187.571 48.0331 187.497 48.0973 187.445C48.164 187.395 48.2476 187.373 48.33 187.385C48.4125 187.396 48.487 187.44 48.5376 187.506Z" fill="white"/>
<path d="M80.3547 227.093C80.1018 227.086 79.8488 227.079 79.5927 227.076C76.1914 226.998 72.7895 227.197 69.4204 227.67C69.1593 227.703 68.8952 227.74 68.6356 227.78C60.5309 229.007 52.7242 231.73 45.6124 235.81C42.784 237.436 40.0832 239.275 37.5335 241.311C34.0125 244.123 30.4182 247.453 26.296 248.894C25.8676 249.05 25.43 249.178 24.9858 249.279L5.85558 236.049C5.82718 235.997 5.79556 235.949 5.76694 235.897L4.979 235.404C5.10317 235.29 5.23441 235.174 5.35858 235.06C5.43034 234.993 5.50637 234.93 5.5781 234.863C5.62729 234.82 5.67671 234.776 5.71861 234.734C5.73493 234.72 5.75146 234.705 5.76478 234.695C5.80669 234.653 5.85006 234.619 5.88895 234.581C6.62075 233.932 7.35837 233.287 8.10183 232.645C8.10485 232.641 8.10485 232.641 8.11214 232.64C13.7894 227.769 19.9228 223.329 26.5344 219.963C26.7333 219.861 26.9351 219.756 27.1428 219.661C30.1314 218.16 33.2375 216.906 36.4302 215.911C38.1802 215.373 39.9563 214.923 41.7517 214.564C46.3925 213.645 51.1488 213.462 55.8463 214.023C65.2105 215.142 74.113 219.246 79.9168 226.532C80.0651 226.719 80.2094 226.903 80.3547 227.093Z" fill="#F2F2F2"/>
<path d="M80.1439 227.307C69.3106 222.613 57.275 221.454 45.7467 223.997C43.2552 224.5 40.8585 225.393 38.6449 226.644C36.5279 227.931 34.794 229.763 33.6233 231.948C32.4909 233.964 31.5658 236.157 29.9636 237.862C29.1305 238.723 28.1251 239.397 27.0133 239.841C25.9015 240.286 24.7085 240.49 23.5123 240.44C20.5288 240.394 17.7396 239.278 15.05 238.092C12.0637 236.774 8.98262 235.359 5.64388 235.485C5.23935 235.501 5.2392 234.871 5.64313 234.856C11.452 234.636 16.1675 238.786 21.754 239.658C24.3607 240.065 27.1057 239.688 29.101 237.833C30.8458 236.212 31.8018 233.951 32.9308 231.9C34.0415 229.752 35.661 227.908 37.6477 226.53C39.7906 225.171 42.1489 224.187 44.6217 223.62C50.1682 222.255 55.8948 221.771 61.5917 222.186C68.096 222.623 74.4777 224.171 80.4605 226.763C80.8307 226.924 80.5117 227.466 80.1439 227.307Z" fill="white"/>
<path d="M49.4106 222.959C49.247 220.965 49.7969 218.978 50.962 217.353C52.127 215.727 53.8315 214.569 55.7709 214.085C56.1637 213.988 56.332 214.595 55.9387 214.691C54.1319 215.139 52.5443 216.218 51.4625 217.734C50.3806 219.25 49.8758 221.103 50.0392 222.959C50.0742 223.362 49.4454 223.361 49.4106 222.959Z" fill="white"/>
<path d="M34.0633 230.851C37.1554 233.524 41.1406 234.932 45.2241 234.795C45.6287 234.781 45.629 235.411 45.2249 235.425C40.9752 235.559 36.831 234.085 33.6194 231.296C33.3134 231.03 33.759 230.586 34.0633 230.851Z" fill="white"/>
<path d="M67.7143 223.365C67.617 224.15 67.7159 224.946 68.0022 225.683C68.2885 226.42 68.7531 227.075 69.3545 227.587C69.6636 227.849 69.2177 228.293 68.9105 228.033C68.2488 227.463 67.7365 226.74 67.4184 225.926C67.1003 225.113 66.9861 224.234 67.0857 223.366C67.0883 223.283 67.1221 223.205 67.1804 223.146C67.2388 223.088 67.3171 223.053 67.3996 223.051C67.4829 223.051 67.5626 223.084 67.6215 223.143C67.6804 223.202 67.7138 223.282 67.7143 223.365Z" fill="white"/>
<path d="M394.486 283.462C389.122 270.234 377.04 259.024 362.811 258.068C371.723 270.774 375.858 286.225 374.485 301.689C373.934 307.65 372.701 314.224 376.049 319.185C378.132 322.272 381.697 324.106 385.339 324.873C388.981 325.64 392.747 325.461 396.464 325.279L397.309 325.666C399.512 311.561 399.849 296.69 394.486 283.462Z" fill="#F2F2F2"/>
<path d="M362.751 258.362C372.623 264.841 380.205 274.268 384.419 285.306C385.369 287.666 385.941 290.161 386.114 292.699C386.203 295.177 385.627 297.634 384.447 299.814C383.387 301.869 382.065 303.848 381.523 306.125C381.262 307.295 381.252 308.506 381.492 309.68C381.733 310.854 382.218 311.964 382.917 312.937C384.595 315.406 387.06 317.125 389.528 318.722C392.269 320.495 395.144 322.294 396.873 325.155C397.083 325.502 397.608 325.156 397.399 324.81C394.39 319.831 388.334 318.169 384.536 313.977C382.764 312.021 381.57 309.518 382.021 306.83C382.415 304.48 383.776 302.438 384.867 300.367C386.05 298.257 386.699 295.89 386.756 293.471C386.713 290.932 386.238 288.419 385.352 286.04C383.443 280.651 380.7 275.596 377.222 271.061C373.282 265.862 368.482 261.377 363.031 257.798C362.693 257.577 362.416 258.142 362.751 258.362Z" fill="white"/>
<path d="M383.271 281.672C385.025 280.713 386.381 279.161 387.098 277.293C387.814 275.425 387.844 273.363 387.182 271.475C387.047 271.094 386.448 271.286 386.583 271.668C387.203 273.425 387.175 275.346 386.505 277.084C385.834 278.822 384.565 280.262 382.926 281.146C382.57 281.338 382.917 281.863 383.271 281.672Z" fill="white"/>
<path d="M385.121 298.843C381.191 297.727 377.825 295.169 375.694 291.678C375.484 291.332 374.958 291.678 375.169 292.024C377.392 295.651 380.901 298.307 384.993 299.459C385.384 299.569 385.509 298.952 385.121 298.843Z" fill="white"/>
<path d="M372.872 266.589C372.271 267.102 371.552 267.457 370.779 267.622C370.007 267.788 369.205 267.759 368.447 267.538C368.058 267.424 367.933 268.04 368.319 268.154C369.158 268.394 370.044 268.425 370.897 268.244C371.751 268.063 372.548 267.675 373.217 267.115C373.285 267.067 373.332 266.996 373.349 266.915C373.365 266.834 373.351 266.75 373.308 266.679C373.262 266.61 373.19 266.561 373.109 266.545C373.027 266.528 372.942 266.544 372.872 266.589Z" fill="white"/>
<path d="M329.614 293.169C329.854 293.248 330.095 293.326 330.337 293.41C333.567 294.48 336.704 295.812 339.718 297.391C339.953 297.51 340.19 297.633 340.421 297.758C347.642 301.641 354.08 306.831 359.408 313.067C361.526 315.55 363.452 318.19 365.17 320.966C367.542 324.799 369.809 329.144 373.208 331.889C373.559 332.179 373.928 332.447 374.312 332.692L396.772 326.667C396.816 326.628 396.862 326.594 396.906 326.554L397.814 326.355C397.736 326.206 397.651 326.052 397.572 325.903C397.527 325.816 397.477 325.731 397.432 325.644C397.4 325.586 397.368 325.529 397.342 325.475C397.332 325.456 397.321 325.437 397.312 325.423C397.287 325.369 397.258 325.322 397.234 325.274C396.762 324.416 396.284 323.56 395.799 322.706C395.798 322.701 395.798 322.701 395.792 322.697C392.08 316.2 387.794 309.955 382.698 304.56C382.544 304.398 382.39 304.23 382.226 304.071C379.915 301.652 377.411 299.426 374.738 297.415C373.271 296.319 371.749 295.298 370.178 294.356C366.116 291.929 361.698 290.157 357.085 289.104C347.89 287.008 338.127 287.878 330.215 292.788C330.012 292.914 329.815 293.038 329.614 293.169Z" fill="#F2F2F2"/>
<path d="M329.741 293.441C341.52 292.665 353.244 295.623 363.248 301.896C365.426 303.208 367.383 304.856 369.048 306.778C370.61 308.703 371.628 311.011 371.996 313.463C372.386 315.743 372.521 318.119 373.458 320.264C373.953 321.355 374.674 322.329 375.572 323.121C376.469 323.914 377.525 324.507 378.668 324.863C381.493 325.824 384.495 325.711 387.426 325.498C390.681 325.262 394.059 324.965 397.161 326.208C397.536 326.358 397.748 325.766 397.372 325.615C391.976 323.454 386.141 325.776 380.586 324.718C377.995 324.224 375.536 322.945 374.28 320.528C373.181 318.413 373.039 315.963 372.665 313.651C372.34 311.254 371.434 308.973 370.025 307.007C368.463 305.006 366.573 303.286 364.434 301.92C359.669 298.767 354.438 296.385 348.933 294.859C342.66 293.083 336.13 292.394 329.625 292.823C329.222 292.849 329.341 293.468 329.741 293.441Z" fill="white"/>
<path d="M360.145 299.686C360.969 297.863 361.118 295.807 360.567 293.884C360.016 291.96 358.799 290.296 357.135 289.188C356.798 288.965 356.435 289.479 356.773 289.703C358.325 290.732 359.458 292.282 359.968 294.074C360.477 295.866 360.331 297.781 359.554 299.474C359.385 299.842 359.978 300.052 360.145 299.686Z" fill="white"/>
<path d="M371.951 312.282C368.141 313.759 363.915 313.745 360.115 312.242C359.739 312.093 359.527 312.685 359.903 312.834C363.86 314.391 368.258 314.397 372.22 312.851C372.597 312.703 372.327 312.135 371.951 312.282Z" fill="white"/>
<path d="M342.771 293.91C342.599 294.682 342.238 295.399 341.721 295.997C341.204 296.595 340.547 297.055 339.808 297.335C339.429 297.478 339.7 298.046 340.077 297.904C340.891 297.59 341.617 297.081 342.189 296.422C342.762 295.763 343.165 294.973 343.362 294.122C343.388 294.044 343.382 293.958 343.347 293.884C343.312 293.809 343.249 293.75 343.173 293.72C343.094 293.692 343.008 293.697 342.933 293.732C342.857 293.768 342.799 293.832 342.771 293.91Z" fill="white"/>
<path d="M290.431 328.505C293.349 328.505 295.715 326.137 295.715 323.216C295.715 320.294 293.349 317.926 290.431 317.926C287.512 317.926 285.146 320.294 285.146 323.216C285.146 326.137 287.512 328.505 290.431 328.505Z" fill="#FD6584"/>
<path d="M309.148 238.417C312.066 238.417 314.432 236.049 314.432 233.128C314.432 230.207 312.066 227.839 309.148 227.839C306.23 227.839 303.864 230.207 303.864 233.128C303.864 236.049 306.23 238.417 309.148 238.417Z" fill="#E6E6E6"/>
<path d="M210.824 91.7041C213.742 91.7041 216.108 89.336 216.108 86.4149C216.108 83.4937 213.742 81.1256 210.824 81.1256C207.906 81.1256 205.54 83.4937 205.54 86.4149C205.54 89.336 207.906 91.7041 210.824 91.7041Z" fill="#E6E6E6"/>
<path d="M100.093 289.309C100.093 290.656 100.138 292.002 100.232 293.337C100.331 294.933 100.503 296.518 100.735 298.091C101.517 303.39 103.01 308.558 105.175 313.456C105.285 313.7 105.396 313.944 105.507 314.187L105.673 314.553C105.728 314.675 105.789 314.797 105.845 314.913C105.922 315.074 105.994 315.229 106.072 315.384C106.166 315.578 106.26 315.772 106.359 315.966C106.37 315.988 106.381 316.016 106.398 316.043C106.481 316.21 106.559 316.37 106.647 316.537C106.663 316.573 106.682 316.608 106.703 316.642C106.797 316.83 106.896 317.024 106.996 317.213C107.107 317.412 107.212 317.617 107.323 317.817C107.588 318.31 107.865 318.797 108.147 319.285C108.23 319.429 108.313 319.573 108.402 319.717C108.479 319.85 108.557 319.983 108.64 320.116C108.695 320.205 108.751 320.299 108.806 320.387C108.895 320.537 108.983 320.681 109.077 320.831C109.282 321.158 109.492 321.485 109.697 321.811H109.703C109.797 321.961 109.896 322.111 109.996 322.255V322.26C110.289 322.703 110.594 323.147 110.898 323.584L110.9 323.585L110.902 323.586L110.903 323.588L110.904 323.59C111.147 323.945 111.402 324.288 111.651 324.632V324.637C111.817 324.853 111.978 325.075 112.144 325.291C112.277 325.468 112.415 325.651 112.553 325.828C112.581 325.867 112.614 325.9 112.642 325.939V325.945C112.681 325.995 112.719 326.039 112.758 326.089C113.345 326.842 113.95 327.579 114.574 328.3L114.673 328.416C114.707 328.455 114.745 328.494 114.779 328.538C114.834 328.599 114.884 328.66 114.939 328.721C114.989 328.782 115.044 328.843 115.1 328.904C118.351 332.569 122.037 335.824 126.076 338.594C126.613 338.966 127.161 339.326 127.709 339.675C127.848 339.764 127.986 339.852 128.124 339.935C128.163 339.963 128.207 339.991 128.246 340.018C128.324 340.063 128.396 340.107 128.473 340.157C128.545 340.201 128.617 340.246 128.695 340.29C128.988 340.473 129.287 340.65 129.586 340.827C129.658 340.872 129.735 340.916 129.813 340.96C129.885 340.999 129.962 341.043 130.04 341.088C130.04 341.093 130.04 341.093 130.045 341.093H130.051V341.099H130.056C130.427 341.315 130.804 341.526 131.185 341.731C131.39 341.841 131.601 341.958 131.811 342.063C132.287 342.323 132.769 342.573 133.25 342.811C133.422 342.894 133.599 342.977 133.77 343.066C133.914 343.132 134.058 343.204 134.202 343.271C134.247 343.293 134.285 343.31 134.324 343.332C134.446 343.387 134.562 343.443 134.684 343.498C134.817 343.559 134.949 343.62 135.077 343.681C135.226 343.747 135.37 343.814 135.52 343.875C136.073 344.124 136.632 344.362 137.191 344.59C139.195 345.412 141.242 346.122 143.324 346.717C143.419 346.745 143.518 346.773 143.618 346.8C144.509 347.05 145.406 347.277 146.308 347.482C147.886 347.848 149.478 348.147 151.085 348.379H151.096C151.29 348.407 151.478 348.435 151.672 348.463C151.688 348.463 151.705 348.468 151.727 348.468C151.727 348.474 151.727 348.474 151.733 348.468C151.943 348.496 152.159 348.524 152.369 348.551C152.384 348.555 152.399 348.557 152.414 348.557C152.613 348.584 152.818 348.607 153.017 348.629C153.233 348.651 153.449 348.673 153.665 348.695C153.831 348.712 153.997 348.729 154.163 348.745C154.177 348.75 154.192 348.752 154.207 348.751C154.356 348.762 154.506 348.778 154.655 348.789H154.678C154.805 348.801 154.938 348.812 155.065 348.823C156.609 348.945 158.159 349 159.731 349C161.431 349 163.119 348.934 164.785 348.789H164.802C165.162 348.756 165.516 348.723 165.87 348.69C165.964 348.679 166.053 348.673 166.147 348.662C166.163 348.662 166.186 348.656 166.202 348.656C166.23 348.651 166.258 348.651 166.291 348.645C166.306 348.646 166.321 348.644 166.335 348.64C166.457 348.629 166.579 348.612 166.706 348.601L167.121 348.551C167.259 348.535 167.398 348.512 167.536 348.496C167.569 348.49 167.597 348.49 167.63 348.485C167.73 348.474 167.83 348.457 167.929 348.44C167.979 348.435 168.029 348.429 168.073 348.424C168.173 348.407 168.267 348.396 168.366 348.379H168.372C171.409 347.942 174.408 347.266 177.339 346.357C177.494 346.307 177.649 346.263 177.804 346.213C177.81 346.213 177.815 346.207 177.821 346.207C177.865 346.191 177.915 346.18 177.959 346.163C178.374 346.03 178.784 345.892 179.194 345.748C179.758 345.559 180.317 345.354 180.876 345.144C181.026 345.083 181.175 345.027 181.325 344.966C181.629 344.85 181.928 344.728 182.227 344.606C182.736 344.401 183.246 344.185 183.749 343.963C184.22 343.753 184.685 343.542 185.15 343.321C185.161 343.315 185.177 343.315 185.188 343.304C185.294 343.254 185.399 343.204 185.498 343.155H185.504C188.053 341.93 190.512 340.525 192.86 338.949C193.613 338.445 194.355 337.924 195.086 337.387C195.672 336.949 196.248 336.506 196.824 336.051C199.664 333.79 202.293 331.275 204.678 328.538V328.532C204.85 328.344 205.011 328.15 205.177 327.956C205.204 327.928 205.226 327.901 205.249 327.879C205.354 327.751 205.453 327.629 205.559 327.507V327.502C205.697 327.341 205.835 327.175 205.968 327.009C206.001 326.97 206.029 326.937 206.057 326.903V326.898C206.167 326.765 206.273 326.632 206.383 326.493C206.439 326.427 206.489 326.36 206.544 326.294V326.288C206.87 325.878 207.186 325.468 207.501 325.047C207.585 324.936 207.668 324.82 207.756 324.704C208.155 324.166 208.542 323.618 208.919 323.069V323.064C209.062 322.859 209.201 322.648 209.345 322.443C209.483 322.233 209.622 322.022 209.76 321.811C209.898 321.59 210.042 321.374 210.181 321.152L210.197 321.119C210.336 320.908 210.474 320.687 210.607 320.471C210.712 320.293 210.817 320.122 210.922 319.95C210.989 319.833 211.061 319.717 211.127 319.595C211.153 319.558 211.177 319.519 211.199 319.479C211.354 319.207 211.509 318.936 211.664 318.664C211.847 318.349 212.024 318.027 212.201 317.706C212.267 317.573 212.339 317.44 212.411 317.307C212.439 317.263 212.461 317.218 212.483 317.174C212.566 317.019 212.649 316.858 212.727 316.697C212.81 316.542 212.893 316.382 212.976 316.221C213.053 316.066 213.136 315.905 213.214 315.744C213.275 315.622 213.33 315.501 213.391 315.379C213.395 315.369 213.401 315.359 213.408 315.351C213.435 315.29 213.463 315.235 213.485 315.179C213.492 315.171 213.498 315.161 213.502 315.151C213.563 315.03 213.618 314.902 213.679 314.78C213.756 314.62 213.828 314.453 213.906 314.293C213.956 314.182 214.011 314.065 214.061 313.949C214.133 313.788 214.21 313.628 214.277 313.462C214.354 313.295 214.426 313.129 214.498 312.957C214.519 312.916 214.537 312.873 214.554 312.83C214.592 312.752 214.62 312.675 214.653 312.597C214.742 312.392 214.83 312.182 214.913 311.977C215.013 311.744 215.107 311.506 215.196 311.273C215.284 311.057 215.367 310.835 215.45 310.614L215.483 310.536C216.773 307.136 217.751 303.625 218.406 300.047V300.042C218.775 297.999 219.04 295.939 219.198 293.869C219.203 293.753 219.214 293.642 219.22 293.531C219.32 292.13 219.364 290.722 219.364 289.309C219.364 288.683 219.353 288.063 219.336 287.442C218.95 274.464 214.326 261.969 206.173 251.87C205.996 251.649 205.819 251.427 205.636 251.205C205.453 250.984 205.265 250.768 205.083 250.552C199.014 243.438 191.362 237.852 182.741 234.243C174.12 230.633 164.773 229.102 155.452 229.772C146.132 230.442 137.099 233.295 129.082 238.101C121.065 242.906 114.289 249.53 109.299 257.439C109.027 257.871 108.756 258.309 108.496 258.746C108.23 259.19 107.976 259.633 107.721 260.082C102.706 269.004 100.079 279.072 100.093 289.309Z" fill="#F2F2F2"/>
<path d="M157.361 250.265C167.168 252.784 177.217 254.236 187.334 254.596C188.864 254.679 190.398 254.669 191.927 254.564C195.286 254.282 198.163 253.225 201.368 252.647C202.909 252.37 204.625 252.168 206.176 251.869C205.818 251.424 205.453 250.984 205.082 250.55C201.737 250.833 198.34 251.758 194.956 252.189C189.202 252.921 182.755 252.104 178.394 250.088C176.277 249.11 174.657 247.89 172.548 246.907C172.261 246.76 171.95 246.664 171.63 246.626C171.022 246.608 170.422 246.764 169.899 247.075C166.361 248.863 161.225 250.316 156.457 249.517C156.102 249.795 156.777 250.112 157.361 250.265Z" fill="white"/>
<path d="M136.263 256.557C136.22 256.549 136.176 256.543 136.132 256.535C136.315 256.422 136.488 256.291 136.648 256.147L136.263 256.557Z" fill="white"/>
<path d="M107.722 260.084C109.713 260.243 111.715 260.362 113.727 260.44C115.257 260.523 116.791 260.512 118.319 260.409C121.679 260.124 124.556 259.069 127.761 258.491C130.698 257.963 134.267 257.708 136.132 256.535C131.312 255.7 126.319 257.4 121.349 258.033C117.329 258.528 113.253 258.326 109.301 257.437C108.751 258.304 108.225 259.186 107.722 260.084Z" fill="white"/>
<path d="M131.811 342.063C132.287 342.323 132.769 342.573 133.25 342.811C133.422 342.894 133.599 342.977 133.771 343.066C133.914 343.132 134.058 343.204 134.202 343.271C134.247 343.293 134.285 343.31 134.324 343.332C134.446 343.387 134.562 343.443 134.684 343.498C134.817 343.559 134.95 343.62 135.077 343.681C135.226 343.747 135.37 343.814 135.52 343.875C136.073 344.124 136.632 344.362 137.191 344.59C139.195 345.412 141.243 346.122 143.325 346.717C143.419 346.745 143.518 346.773 143.618 346.8C144.509 347.05 145.406 347.277 146.308 347.482C147.886 347.848 149.478 348.147 151.085 348.379H151.096C151.29 348.407 151.478 348.435 151.672 348.463C151.689 348.463 151.705 348.468 151.727 348.468C151.727 348.474 151.727 348.474 151.733 348.468C151.943 348.496 152.159 348.524 152.369 348.551C152.384 348.555 152.399 348.557 152.414 348.557C152.613 348.584 152.818 348.607 153.017 348.629C153.233 348.651 153.449 348.673 153.665 348.695C153.831 348.712 153.997 348.729 154.163 348.745C154.177 348.75 154.192 348.752 154.207 348.751C154.357 348.762 154.506 348.778 154.656 348.789H154.678C154.805 348.801 154.938 348.812 155.065 348.823C156.609 348.945 158.159 349 159.731 349C161.431 349 163.119 348.934 164.785 348.789H164.802C165.162 348.756 165.516 348.723 165.87 348.69C165.964 348.679 166.053 348.673 166.147 348.662C166.164 348.662 166.186 348.657 166.202 348.657C166.23 348.651 166.258 348.651 166.291 348.645C166.306 348.646 166.321 348.644 166.335 348.64C166.457 348.629 166.579 348.612 166.706 348.601L167.121 348.551C167.26 348.535 167.398 348.512 167.536 348.496C167.57 348.49 167.597 348.49 167.63 348.485C167.73 348.474 167.83 348.457 167.929 348.44C167.979 348.435 168.029 348.429 168.073 348.424C168.173 348.407 168.267 348.396 168.367 348.379H168.372C171.41 347.942 174.408 347.266 177.339 346.357C177.494 346.307 177.649 346.263 177.804 346.213C177.09 342.877 175.618 339.749 173.504 337.073C171.389 334.396 168.689 332.242 165.61 330.776C166.371 330.05 166.898 329.112 167.121 328.084C167.265 327.421 167.276 326.736 167.155 326.068C167.033 325.401 166.781 324.764 166.413 324.194C165.694 323.09 164.567 322.317 163.28 322.044L155.076 320.327C153.756 320.069 152.387 320.343 151.267 321.09C150.148 321.837 149.368 322.997 149.098 324.316C149.014 324.72 148.977 325.133 148.987 325.546C141.088 330.81 135.403 336.267 131.811 342.063Z" fill="#0D0024"/>
<path d="M156.033 317.083C165.472 317.083 173.124 309.424 173.124 299.976C173.124 290.528 165.472 282.868 156.033 282.868C146.594 282.868 138.942 290.528 138.942 299.976C138.942 309.424 146.594 317.083 156.033 317.083Z" fill="#FFB8B8"/>
<path d="M145.38 314.725C143.558 313.479 141.696 311.084 140.454 309.29C138.807 306.93 137.675 304.251 137.129 301.426C136.583 298.6 136.636 295.692 137.285 292.888C137.492 291.767 138.001 290.724 138.756 289.871C139.561 289.074 140.876 288.696 141.858 289.26C141.59 288.541 141.472 287.775 141.511 287.009C141.551 286.243 141.746 285.493 142.086 284.805C142.777 283.432 143.777 282.24 145.009 281.321C147.363 279.506 150.165 278.363 153.116 278.013C156.068 277.664 159.058 278.12 161.771 279.335C162.839 279.83 161.086 276.005 162.203 276.374C163.313 276.805 164.547 276.783 165.641 276.314C166.692 275.784 170.176 278.93 169.773 277.824C170.57 278.186 171.263 278.745 171.787 279.448C172.311 280.151 172.648 280.975 172.768 281.843C172.888 282.712 172.787 283.596 172.473 284.415C172.16 285.234 171.644 285.959 170.975 286.525C170.093 287.27 168.992 287.699 168.026 288.332C166.334 289.524 165.136 291.294 164.659 293.309C164.182 295.325 164.458 297.445 165.436 299.27C164.42 298.616 163.305 298.131 162.134 297.834C161.547 297.69 160.934 297.689 160.346 297.831C159.758 297.972 159.213 298.252 158.755 298.647C158.372 299.086 158.083 299.597 157.906 300.152C157.728 300.706 157.665 301.29 157.721 301.87C157.76 303.031 158.036 304.174 158.067 305.336C158.158 308.743 159.98 315.22 157.341 317.031C155.259 318.46 147.869 316.427 145.38 314.725Z" fill="#2F2E41"/>
<path d="M447.439 20.667H0.560935C0.411031 20.6637 0.268387 20.6017 0.163546 20.4944C0.0587037 20.3871 0 20.243 0 20.0929C0 19.9428 0.0587037 19.7987 0.163546 19.6914C0.268387 19.5841 0.411031 19.5222 0.560935 19.5188H447.439C447.589 19.5222 447.731 19.5841 447.836 19.6914C447.941 19.7987 448 19.9428 448 20.0929C448 20.243 447.941 20.3871 447.836 20.4944C447.731 20.6017 447.589 20.6637 447.439 20.667Z" fill="#CACACA"/>
<path d="M13.1883 12.6298C16.5966 12.6298 19.3595 9.80255 19.3595 6.31492C19.3595 2.82728 16.5966 0 13.1883 0C9.78004 0 7.01709 2.82728 7.01709 6.31492C7.01709 9.80255 9.78004 12.6298 13.1883 12.6298Z" fill="#3F3D56"/>
<path d="M34.5072 12.6298C37.9154 12.6298 40.6784 9.80255 40.6784 6.31492C40.6784 2.82728 37.9154 0 34.5072 0C31.0989 0 28.3359 2.82728 28.3359 6.31492C28.3359 9.80255 31.0989 12.6298 34.5072 12.6298Z" fill="#3F3D56"/>
<path d="M55.826 12.6298C59.2343 12.6298 61.9972 9.80255 61.9972 6.31492C61.9972 2.82728 59.2343 0 55.826 0C52.4177 0 49.6548 2.82728 49.6548 6.31492C49.6548 9.80255 52.4177 12.6298 55.826 12.6298Z" fill="#3F3D56"/>
<path d="M434.666 3.86263H419.518C419.219 3.856 418.933 3.73212 418.724 3.51752C418.514 3.30292 418.396 3.01465 418.396 2.71446C418.396 2.41426 418.514 2.126 418.724 1.9114C418.933 1.6968 419.219 1.57292 419.518 1.5663H434.666C434.966 1.57292 435.251 1.6968 435.461 1.9114C435.671 2.126 435.788 2.41426 435.788 2.71446C435.788 3.01465 435.671 3.30292 435.461 3.51752C435.251 3.73212 434.966 3.856 434.666 3.86263Z" fill="#3F3D56"/>
<path d="M434.666 8.16825H419.518C419.218 8.16166 418.933 8.03779 418.723 7.82319C418.513 7.60859 418.396 7.3203 418.396 7.02008C418.396 6.71987 418.513 6.43159 418.723 6.21699C418.933 6.00238 419.218 5.87852 419.518 5.87192H434.666C434.965 5.87852 435.251 6.00238 435.461 6.21699C435.67 6.43159 435.788 6.71987 435.788 7.02008C435.788 7.3203 435.67 7.60859 435.461 7.82319C435.251 8.03779 434.965 8.16166 434.666 8.16825Z" fill="#3F3D56"/>
<path d="M434.666 12.4739H419.518C419.218 12.4673 418.933 12.3434 418.723 12.1288C418.513 11.9142 418.396 11.6259 418.396 11.3257C418.396 11.0255 418.513 10.7372 418.723 10.5226C418.933 10.308 419.218 10.1841 419.518 10.1775H434.666C434.965 10.1841 435.251 10.308 435.461 10.5226C435.67 10.7372 435.788 11.0255 435.788 11.3257C435.788 11.6259 435.67 11.9142 435.461 12.1288C435.251 12.3434 434.965 12.4673 434.666 12.4739Z" fill="#3F3D56"/>
<path d="M167.785 214.348C167.425 214.347 167.068 214.275 166.736 214.136C166.241 213.937 165.817 213.593 165.52 213.148C165.224 212.704 165.068 212.18 165.074 211.646V208.938C165.073 208.37 164.847 207.825 164.446 207.423C164.045 207.022 163.501 206.796 162.934 206.795C162.219 206.794 161.535 206.51 161.03 206.005C160.525 205.499 160.241 204.814 160.24 204.099V167C160.241 166.285 160.525 165.6 161.03 165.095C161.535 164.589 162.219 164.305 162.933 164.304H285.722C286.437 164.305 287.121 164.589 287.626 165.095C288.131 165.6 288.416 166.285 288.416 167V204.099C288.416 204.814 288.131 205.499 287.626 206.005C287.121 206.51 286.437 206.794 285.722 206.795H177.309C177.028 206.794 176.75 206.85 176.49 206.957C176.23 207.065 175.994 207.223 175.796 207.423L169.673 213.552C169.426 213.803 169.133 214.003 168.808 214.14C168.484 214.276 168.136 214.347 167.785 214.348Z" fill="white"/>
<path d="M167.784 214.902C167.352 214.902 166.923 214.815 166.524 214.648C165.927 214.408 165.416 213.993 165.059 213.457C164.701 212.921 164.513 212.29 164.52 211.646V208.938C164.52 208.517 164.352 208.113 164.055 207.815C163.758 207.517 163.354 207.35 162.933 207.349C162.072 207.348 161.247 207.005 160.638 206.396C160.029 205.787 159.687 204.96 159.686 204.098V167C159.687 166.139 160.029 165.312 160.638 164.703C161.247 164.094 162.072 163.751 162.933 163.75H285.722C286.583 163.751 287.409 164.094 288.017 164.703C288.626 165.312 288.969 166.139 288.97 167V204.098C288.969 204.96 288.626 205.787 288.018 206.396C287.409 207.005 286.583 207.348 285.722 207.349H177.309C177.101 207.349 176.894 207.389 176.701 207.469C176.509 207.549 176.334 207.667 176.187 207.815L170.064 213.944C169.766 214.246 169.411 214.487 169.02 214.652C168.629 214.816 168.209 214.901 167.784 214.902ZM162.933 164.858C162.366 164.859 161.822 165.085 161.421 165.486C161.019 165.888 160.794 166.432 160.793 167V204.098C160.794 204.666 161.019 205.211 161.421 205.613C161.822 206.015 162.366 206.241 162.933 206.241C163.648 206.242 164.332 206.526 164.837 207.032C165.342 207.538 165.626 208.223 165.627 208.938V211.646C165.627 212.069 165.753 212.483 165.988 212.836C166.223 213.188 166.557 213.462 166.949 213.624C167.34 213.787 167.77 213.829 168.185 213.746C168.6 213.664 168.981 213.46 169.281 213.16L175.404 207.031C175.654 206.78 175.951 206.581 176.278 206.445C176.605 206.309 176.955 206.24 177.309 206.241H285.722C286.29 206.241 286.834 206.015 287.235 205.613C287.636 205.211 287.862 204.666 287.863 204.098V167C287.862 166.432 287.636 165.888 287.235 165.486C286.834 165.084 286.29 164.859 285.722 164.858L162.933 164.858Z" fill="#3F3D56"/>
<path d="M275.171 181.099H175.602C175.221 181.099 174.856 180.948 174.588 180.679C174.319 180.41 174.167 180.045 174.167 179.664C174.167 179.283 174.319 178.918 174.588 178.649C174.856 178.38 175.221 178.228 175.602 178.228H275.171C275.551 178.228 275.916 178.38 276.185 178.649C276.454 178.918 276.605 179.283 276.605 179.664C276.605 180.045 276.454 180.41 276.185 180.679C275.916 180.948 275.551 181.099 275.171 181.099Z" fill="#FD550E"/>
<path d="M274.988 187.198H175.602C175.221 187.198 174.856 187.047 174.588 186.778C174.319 186.508 174.167 186.143 174.167 185.762C174.167 185.382 174.319 185.017 174.588 184.747C174.856 184.478 175.221 184.327 175.602 184.327H274.988C275.368 184.327 275.733 184.478 276.002 184.747C276.271 185.017 276.422 185.382 276.422 185.762C276.422 186.143 276.271 186.508 276.002 186.778C275.733 187.047 275.368 187.198 274.988 187.198Z" fill="#E6E6E6"/>
<path d="M274.889 193.296H175.602C175.221 193.296 174.856 193.145 174.588 192.876C174.319 192.607 174.167 192.242 174.167 191.861C174.167 191.48 174.319 191.115 174.588 190.846C174.856 190.577 175.221 190.425 175.602 190.425H274.889C275.269 190.425 275.634 190.577 275.903 190.846C276.172 191.115 276.323 191.48 276.323 191.861C276.323 192.242 276.172 192.607 275.903 192.876C275.634 193.145 275.269 193.296 274.889 193.296Z" fill="#E6E6E6"/>
<path d="M431.972 158.547C431.972 159.893 431.927 161.24 431.833 162.575C431.734 164.171 431.562 165.755 431.33 167.329C430.548 172.627 429.055 177.796 426.89 182.694C426.78 182.937 426.669 183.181 426.558 183.425L426.392 183.791C426.337 183.913 426.276 184.034 426.22 184.151C426.143 184.312 426.071 184.467 425.993 184.622C425.899 184.816 425.805 185.01 425.706 185.204C425.695 185.226 425.683 185.253 425.667 185.281C425.584 185.447 425.506 185.608 425.418 185.774C425.402 185.81 425.383 185.846 425.362 185.88C425.268 186.068 425.169 186.262 425.069 186.45C424.958 186.65 424.853 186.855 424.742 187.054C424.477 187.547 424.2 188.035 423.918 188.522C423.835 188.667 423.752 188.811 423.663 188.955C423.586 189.088 423.508 189.221 423.425 189.354C423.37 189.442 423.314 189.536 423.259 189.625C423.17 189.775 423.082 189.919 422.988 190.068C422.783 190.395 422.573 190.722 422.368 191.049H422.362C422.268 191.199 422.169 191.348 422.069 191.492V191.498C421.776 191.941 421.471 192.384 421.167 192.822C421.166 192.822 421.165 192.822 421.164 192.823C421.164 192.823 421.163 192.823 421.163 192.824C421.162 192.824 421.162 192.825 421.161 192.826C421.161 192.826 421.161 192.827 421.161 192.828C420.918 193.182 420.663 193.526 420.414 193.869V193.875C420.248 194.091 420.087 194.313 419.921 194.529C419.788 194.706 419.65 194.889 419.512 195.066C419.484 195.105 419.451 195.138 419.423 195.177V195.182C419.384 195.232 419.345 195.277 419.307 195.327C418.72 196.08 418.115 196.817 417.491 197.537L417.392 197.654C417.358 197.692 417.32 197.731 417.286 197.776C417.231 197.837 417.181 197.897 417.126 197.958C417.076 198.019 417.021 198.08 416.965 198.141C413.714 201.807 410.028 205.061 405.989 207.832C405.452 208.203 404.904 208.563 404.356 208.913C404.217 209.001 404.079 209.09 403.941 209.173C403.902 209.201 403.858 209.228 403.819 209.256C403.741 209.3 403.669 209.345 403.592 209.395C403.52 209.439 403.448 209.483 403.37 209.528C403.077 209.71 402.778 209.888 402.479 210.065C402.407 210.109 402.33 210.154 402.252 210.198C402.18 210.237 402.103 210.281 402.025 210.325C402.025 210.331 402.025 210.331 402.02 210.331H402.014V210.337H402.009C401.638 210.553 401.261 210.763 400.88 210.968C400.675 211.079 400.464 211.195 400.254 211.301C399.778 211.561 399.296 211.81 398.815 212.049C398.643 212.132 398.466 212.215 398.295 212.303C398.151 212.37 398.007 212.442 397.863 212.508C397.818 212.531 397.78 212.547 397.741 212.569C397.619 212.625 397.503 212.68 397.381 212.736C397.248 212.797 397.115 212.858 396.988 212.919C396.839 212.985 396.695 213.051 396.545 213.112C395.992 213.362 395.433 213.6 394.874 213.827C392.87 214.649 390.823 215.36 388.74 215.955C388.646 215.983 388.547 216.01 388.447 216.038C387.556 216.287 386.659 216.514 385.757 216.719C384.179 217.085 382.587 217.384 380.98 217.617H380.969C380.775 217.645 380.587 217.672 380.393 217.7C380.376 217.7 380.36 217.706 380.338 217.706C380.338 217.711 380.338 217.711 380.332 217.706C380.122 217.733 379.906 217.761 379.696 217.789C379.681 217.793 379.666 217.795 379.651 217.794C379.452 217.822 379.247 217.844 379.048 217.866C378.832 217.889 378.616 217.911 378.4 217.933C378.234 217.95 378.068 217.966 377.902 217.983C377.888 217.988 377.873 217.99 377.858 217.988C377.708 217.999 377.559 218.016 377.41 218.027H377.387C377.26 218.038 377.127 218.049 377 218.06C375.456 218.182 373.906 218.238 372.334 218.238C370.634 218.238 368.946 218.171 367.28 218.027H367.263C366.903 217.994 366.549 217.961 366.195 217.927C366.101 217.916 366.012 217.911 365.918 217.9C365.902 217.9 365.879 217.894 365.863 217.894C365.835 217.889 365.807 217.889 365.774 217.883C365.759 217.884 365.744 217.882 365.73 217.878C365.608 217.866 365.486 217.85 365.359 217.839L364.944 217.789C364.806 217.772 364.667 217.75 364.529 217.733C364.496 217.728 364.468 217.728 364.435 217.722C364.335 217.711 364.235 217.695 364.136 217.678C364.086 217.673 364.036 217.667 363.992 217.661C363.892 217.645 363.798 217.634 363.698 217.617H363.693C360.655 217.179 357.657 216.503 354.726 215.595C354.571 215.545 354.416 215.501 354.261 215.451C354.255 215.451 354.25 215.445 354.244 215.445C354.2 215.429 354.15 215.417 354.106 215.401C353.691 215.268 353.281 215.129 352.871 214.985C352.307 214.797 351.748 214.592 351.189 214.381C351.039 214.32 350.89 214.265 350.74 214.204C350.436 214.088 350.137 213.966 349.838 213.844C349.329 213.639 348.819 213.423 348.316 213.201C347.845 212.991 347.38 212.78 346.915 212.558C346.904 212.553 346.888 212.553 346.876 212.542C346.771 212.492 346.666 212.442 346.567 212.392H346.561C344.012 211.168 341.553 209.762 339.204 208.187C338.452 207.682 337.71 207.162 336.979 206.624C336.393 206.187 335.817 205.743 335.241 205.289C332.401 203.028 329.772 200.513 327.387 197.776V197.77C327.215 197.582 327.054 197.388 326.888 197.194C326.861 197.166 326.838 197.138 326.816 197.116C326.711 196.989 326.612 196.867 326.506 196.745V196.739C326.368 196.579 326.23 196.413 326.097 196.246C326.064 196.208 326.036 196.174 326.008 196.141V196.136C325.897 196.003 325.792 195.87 325.682 195.731C325.626 195.665 325.576 195.598 325.521 195.532V195.526C325.194 195.116 324.879 194.706 324.563 194.285C324.48 194.174 324.397 194.058 324.309 193.941C323.91 193.404 323.523 192.855 323.146 192.307V192.301C323.002 192.096 322.864 191.886 322.72 191.681C322.582 191.47 322.443 191.26 322.305 191.049C322.167 190.827 322.023 190.611 321.884 190.39L321.868 190.357C321.729 190.146 321.591 189.924 321.458 189.708C321.353 189.531 321.248 189.359 321.143 189.187C321.076 189.071 321.004 188.955 320.938 188.833C320.912 188.795 320.888 188.756 320.866 188.716C320.711 188.445 320.556 188.173 320.401 187.902C320.218 187.586 320.041 187.265 319.864 186.943C319.798 186.81 319.726 186.677 319.654 186.544C319.626 186.5 319.604 186.456 319.582 186.411C319.499 186.256 319.416 186.096 319.338 185.935C319.255 185.78 319.172 185.619 319.089 185.458C319.011 185.303 318.928 185.143 318.851 184.982C318.79 184.86 318.735 184.738 318.674 184.616C318.67 184.606 318.664 184.597 318.657 184.589C318.63 184.528 318.602 184.472 318.58 184.417C318.573 184.408 318.567 184.399 318.563 184.389C318.502 184.267 318.447 184.14 318.386 184.018C318.309 183.857 318.237 183.691 318.159 183.53C318.109 183.419 318.054 183.303 318.004 183.187C317.932 183.026 317.855 182.865 317.788 182.699C317.711 182.533 317.639 182.367 317.567 182.195C317.546 182.154 317.528 182.111 317.511 182.068C317.473 181.99 317.445 181.912 317.412 181.835C317.323 181.63 317.235 181.419 317.152 181.214C317.052 180.982 316.958 180.743 316.869 180.511C316.781 180.294 316.698 180.073 316.615 179.851L316.581 179.774C315.292 176.373 314.313 172.863 313.659 169.285V169.279C313.29 167.237 313.025 165.177 312.867 163.107C312.862 162.991 312.851 162.88 312.845 162.769C312.745 161.367 312.701 159.96 312.701 158.547C312.701 157.921 312.712 157.3 312.729 156.68C313.115 143.701 317.739 131.207 325.892 121.108C326.069 120.886 326.246 120.665 326.429 120.443C326.612 120.221 326.8 120.005 326.982 119.789C333.05 112.676 340.703 107.09 349.324 103.48C357.945 99.8708 367.292 98.3394 376.613 99.0096C385.933 99.6798 394.966 102.533 402.983 107.338C411 112.144 417.776 118.768 422.766 126.676C423.038 127.109 423.309 127.546 423.569 127.984C423.835 128.427 424.089 128.871 424.344 129.319C429.359 138.242 431.986 148.309 431.972 158.547Z" fill="#F2F2F2"/>
<path d="M374.704 119.503C364.898 122.022 354.849 123.474 344.731 123.833C343.201 123.917 341.667 123.906 340.139 123.802C336.779 123.519 333.902 122.462 330.697 121.885C329.156 121.608 327.44 121.405 325.889 121.106C326.248 120.661 326.612 120.222 326.984 119.787C330.328 120.07 333.725 120.996 337.11 121.426C342.863 122.159 349.31 121.341 353.672 119.326C355.788 118.348 357.409 117.127 359.518 116.145C359.804 115.997 360.115 115.902 360.435 115.863C361.043 115.845 361.644 116.001 362.166 116.313C365.704 118.101 370.841 119.554 375.608 118.754C375.964 119.033 375.288 119.35 374.704 119.503Z" fill="white"/>
<path d="M395.802 125.795C395.846 125.787 395.889 125.78 395.933 125.773C395.75 125.659 395.577 125.529 395.417 125.384L395.802 125.795Z" fill="white"/>
<path d="M424.343 129.322C422.351 129.481 420.35 129.6 418.338 129.677C416.808 129.76 415.274 129.75 413.745 129.646C410.386 129.362 407.508 128.307 404.304 127.729C401.367 127.2 397.797 126.946 395.933 125.773C400.752 124.938 405.746 126.638 410.716 127.27C414.736 127.765 418.811 127.564 422.763 126.675C423.314 127.541 423.84 128.424 424.343 129.322Z" fill="white"/>
<path d="M365.611 184.667C375.503 184.667 383.522 176.461 383.522 166.338C383.522 156.216 375.503 148.01 365.611 148.01C355.719 148.01 347.699 156.216 347.699 166.338C347.699 176.461 355.719 184.667 365.611 184.667Z" fill="#FFB6B6"/>
<path d="M400.254 211.301C399.778 211.561 399.296 211.81 398.815 212.049C398.643 212.132 398.466 212.215 398.295 212.304C398.151 212.37 398.007 212.442 397.863 212.509C397.819 212.531 397.78 212.547 397.741 212.569C397.619 212.625 397.503 212.68 397.381 212.736C397.248 212.797 397.116 212.858 396.988 212.919C396.839 212.985 396.695 213.052 396.545 213.112C395.992 213.362 395.433 213.6 394.874 213.827C392.87 214.649 390.823 215.36 388.741 215.955C388.646 215.983 388.547 216.01 388.447 216.038C387.556 216.287 386.659 216.515 385.757 216.72C384.179 217.085 382.587 217.384 380.98 217.617H380.969C380.775 217.645 380.587 217.673 380.393 217.7C380.377 217.7 380.36 217.706 380.338 217.706C380.338 217.711 380.338 217.711 380.332 217.706C380.122 217.733 379.906 217.761 379.696 217.789C379.681 217.793 379.666 217.795 379.651 217.794C379.452 217.822 379.247 217.844 379.048 217.866C378.832 217.889 378.616 217.911 378.4 217.933C378.234 217.95 378.068 217.966 377.902 217.983C377.888 217.988 377.873 217.99 377.858 217.988C377.709 217.999 377.559 218.016 377.41 218.027H377.387C377.26 218.038 377.127 218.049 377 218.06C375.456 218.182 373.906 218.238 372.334 218.238C370.634 218.238 368.946 218.171 367.28 218.027H367.263C366.904 217.994 366.549 217.961 366.195 217.927C366.101 217.916 366.012 217.911 365.918 217.9C365.902 217.9 365.879 217.894 365.863 217.894C365.835 217.889 365.807 217.889 365.774 217.883C365.759 217.884 365.744 217.882 365.73 217.878C365.608 217.866 365.486 217.85 365.359 217.839L364.944 217.789C364.806 217.772 364.667 217.75 364.529 217.733C364.496 217.728 364.468 217.728 364.435 217.722C364.335 217.711 364.235 217.695 364.136 217.678C364.086 217.673 364.036 217.667 363.992 217.661C363.892 217.645 363.798 217.634 363.699 217.617H363.693C360.656 217.179 357.657 216.503 354.726 215.595C354.571 215.545 354.416 215.501 354.261 215.451C354.975 212.114 356.447 208.987 358.561 206.31C360.676 203.634 363.377 201.48 366.455 200.014C365.694 199.288 365.167 198.35 364.944 197.321C364.8 196.658 364.789 195.973 364.91 195.306C365.032 194.638 365.284 194.001 365.653 193.432C366.371 192.328 367.498 191.554 368.786 191.282L376.989 189.564C378.31 189.306 379.678 189.581 380.798 190.328C381.917 191.075 382.697 192.234 382.967 193.554C383.051 193.958 383.088 194.371 383.078 194.784C390.977 200.047 396.662 205.505 400.254 211.301Z" fill="#AB011A"/>
<path d="M413.54 158.389C410.496 154.835 409.048 150.12 406.614 146.084C404.18 142.049 399.945 138.437 395.47 139.376C392.386 140.023 390.002 142.748 388.795 145.785C387.589 148.823 387.362 152.172 387.151 155.454C387.226 148.71 382.787 142.172 376.673 140.021C370.559 137.869 363.241 140.269 359.4 145.687C357.723 144.131 355.534 143.246 353.249 143.198C350.963 143.15 348.74 143.943 346.999 145.426C343.563 148.501 342.802 154.352 345.33 158.274C347.857 162.195 353.33 163.656 357.347 161.481L358.767 162.789C357.967 165.587 359.517 168.892 362.123 169.946C364.236 170.8 367.218 170.658 368.009 172.877C368.562 174.428 367.529 176.083 366.43 177.275C365.332 178.466 364.028 179.697 363.896 181.346C363.697 183.834 366.265 185.577 368.6 186.102C374.23 187.367 380.478 184.758 383.723 179.784C383.785 179.688 383.853 179.592 383.927 179.496C385.747 177.165 387.074 174.488 387.826 171.626C388.578 168.765 388.739 165.781 388.3 162.855C388.117 161.705 388.301 160.85 389.093 160.578C392.515 159.402 402.104 161.871 405.005 164.103C407.907 166.335 410.231 169.289 413.026 171.665C415.821 174.041 419.383 175.874 422.932 175.227C425.775 174.709 428.193 172.643 429.819 170.152C431.446 167.66 432.382 164.756 433.22 161.87C426.935 165.504 418.333 163.983 413.54 158.389Z" fill="#2F2E41"/>
<path d="M45.8467 121.424C45.8467 122.77 45.891 124.117 45.9851 125.452C46.0848 127.048 46.2564 128.632 46.4888 130.206C47.2702 135.504 48.7635 140.673 50.9282 145.57C51.0389 145.814 51.1496 146.058 51.2603 146.302L51.4264 146.667C51.4817 146.789 51.5426 146.911 51.598 147.028C51.6755 147.188 51.7474 147.343 51.8249 147.499C51.919 147.693 52.0131 147.886 52.1128 148.08C52.1238 148.103 52.1349 148.13 52.1515 148.158C52.2345 148.324 52.312 148.485 52.4006 148.651C52.4169 148.687 52.4354 148.722 52.456 148.756C52.5501 148.945 52.6497 149.139 52.7493 149.327C52.86 149.527 52.9652 149.732 53.0759 149.931C53.3416 150.424 53.6184 150.912 53.9007 151.399C53.9837 151.543 54.0667 151.687 54.1553 151.831C54.2328 151.964 54.3103 152.097 54.3933 152.23C54.4487 152.319 54.504 152.413 54.5594 152.502C54.648 152.652 54.7365 152.796 54.8306 152.945C55.0354 153.272 55.2458 153.599 55.4506 153.926H55.4561C55.5502 154.075 55.6499 154.225 55.7495 154.369V154.375C56.0429 154.818 56.3473 155.261 56.6518 155.699C56.6525 155.699 56.6532 155.699 56.6539 155.699C56.6546 155.7 56.6552 155.7 56.6557 155.701C56.6562 155.701 56.6566 155.702 56.6569 155.702C56.6572 155.703 56.6573 155.704 56.6573 155.704C56.9009 156.059 57.1555 156.403 57.4046 156.746V156.752C57.5706 156.968 57.7312 157.189 57.8972 157.405C58.0301 157.583 58.1684 157.766 58.3068 157.943C58.3345 157.982 58.3677 158.015 58.3954 158.054V158.059C58.4341 158.109 58.4729 158.153 58.5116 158.203C59.0984 158.957 59.7036 159.694 60.3272 160.414L60.4269 160.53C60.4601 160.569 60.4988 160.608 60.5321 160.652C60.5874 160.713 60.6372 160.774 60.6926 160.835C60.7424 160.896 60.7977 160.957 60.8531 161.018C64.1041 164.684 67.7902 167.938 71.8297 170.709C72.3667 171.08 72.9146 171.44 73.4627 171.789C73.601 171.878 73.7394 171.967 73.8778 172.05C73.9165 172.077 73.9608 172.105 73.9996 172.133C74.0771 172.177 74.149 172.222 74.2265 172.271C74.2985 172.316 74.3704 172.36 74.4479 172.404C74.7413 172.587 75.0402 172.765 75.3391 172.942C75.4111 172.986 75.4886 173.03 75.5661 173.075C75.6381 173.114 75.7155 173.158 75.793 173.202C75.793 173.208 75.793 173.208 75.7986 173.208H75.8041V173.213H75.8096C76.1805 173.429 76.5569 173.64 76.9389 173.845C77.1437 173.956 77.354 174.072 77.5644 174.177C78.0404 174.438 78.522 174.687 79.0036 174.925C79.1751 175.009 79.3523 175.092 79.5239 175.18C79.6678 175.247 79.8117 175.319 79.9556 175.385C79.9999 175.407 80.0387 175.424 80.0774 175.446C80.1992 175.502 80.3154 175.557 80.4372 175.612C80.5701 175.673 80.7029 175.734 80.8302 175.795C80.9797 175.862 81.1236 175.928 81.2731 175.989C81.8266 176.239 82.3857 176.477 82.9447 176.704C84.9483 177.526 86.9958 178.236 89.0779 178.832C89.172 178.859 89.2716 178.887 89.3713 178.915C90.2625 179.164 91.1592 179.391 92.0615 179.596C93.6391 179.962 95.2314 180.261 96.8385 180.494H96.8496C97.0433 180.522 97.2315 180.549 97.4253 180.577C97.4419 180.577 97.4585 180.583 97.4806 180.583C97.4806 180.588 97.4806 180.588 97.4861 180.583C97.6965 180.61 97.9124 180.638 98.1227 180.666C98.1371 180.67 98.152 180.672 98.167 180.671C98.3663 180.699 98.5711 180.721 98.7704 180.743C98.9862 180.765 99.2021 180.788 99.418 180.81C99.584 180.826 99.7501 180.843 99.9162 180.86C99.9304 180.865 99.9455 180.866 99.9605 180.865C100.11 180.876 100.259 180.893 100.409 180.904H100.431C100.558 180.915 100.691 180.926 100.818 180.937C102.363 181.059 103.913 181.114 105.485 181.114C107.184 181.114 108.872 181.048 110.539 180.904H110.555C110.915 180.871 111.269 180.837 111.623 180.804C111.718 180.793 111.806 180.788 111.9 180.776C111.917 180.776 111.939 180.771 111.956 180.771C111.983 180.765 112.011 180.765 112.044 180.76C112.059 180.76 112.074 180.759 112.088 180.754C112.21 180.743 112.332 180.727 112.459 180.716L112.874 180.666C113.013 180.649 113.151 180.627 113.29 180.61C113.323 180.605 113.35 180.605 113.384 180.599C113.483 180.588 113.583 180.571 113.683 180.555C113.732 180.549 113.782 180.544 113.827 180.538C113.926 180.522 114.02 180.511 114.12 180.494H114.125C117.163 180.056 120.161 179.38 123.093 178.472C123.248 178.422 123.403 178.377 123.558 178.327C123.563 178.327 123.569 178.322 123.574 178.322C123.619 178.305 123.668 178.294 123.713 178.278C124.128 178.145 124.537 178.006 124.947 177.862C125.512 177.674 126.071 177.469 126.63 177.258C126.779 177.197 126.929 177.142 127.078 177.081C127.383 176.964 127.682 176.843 127.98 176.721C128.49 176.516 128.999 176.3 129.503 176.078C129.973 175.867 130.438 175.657 130.903 175.435C130.914 175.43 130.931 175.43 130.942 175.419C131.047 175.369 131.152 175.319 131.252 175.269H131.257C133.807 174.044 136.265 172.639 138.614 171.064C139.367 170.559 140.108 170.038 140.839 169.501C141.426 169.063 142.002 168.62 142.577 168.166C145.417 165.904 148.046 163.39 150.432 160.652V160.647C150.603 160.458 150.764 160.265 150.93 160.071C150.958 160.043 150.98 160.015 151.002 159.993C151.107 159.866 151.207 159.744 151.312 159.622V159.616C151.45 159.456 151.589 159.289 151.722 159.123C151.755 159.084 151.783 159.051 151.81 159.018V159.012C151.921 158.879 152.026 158.746 152.137 158.608C152.192 158.541 152.242 158.475 152.297 158.408V158.403C152.624 157.993 152.939 157.583 153.255 157.162C153.338 157.051 153.421 156.935 153.51 156.818C153.908 156.281 154.296 155.732 154.672 155.184V155.178C154.816 154.973 154.954 154.763 155.098 154.558C155.237 154.347 155.375 154.136 155.513 153.926C155.652 153.704 155.796 153.488 155.934 153.267L155.951 153.233C156.089 153.023 156.227 152.801 156.36 152.585C156.465 152.408 156.571 152.236 156.676 152.064C156.742 151.948 156.814 151.831 156.881 151.71C156.907 151.672 156.931 151.633 156.953 151.593C157.108 151.322 157.263 151.05 157.418 150.779C157.6 150.463 157.777 150.142 157.954 149.82C158.021 149.687 158.093 149.554 158.165 149.421C158.192 149.377 158.215 149.333 158.237 149.288C158.32 149.133 158.403 148.972 158.48 148.812C158.563 148.657 158.646 148.496 158.729 148.335C158.807 148.18 158.89 148.019 158.967 147.859C159.028 147.737 159.084 147.615 159.145 147.493C159.149 147.483 159.154 147.474 159.161 147.465C159.189 147.404 159.217 147.349 159.239 147.294C159.245 147.285 159.251 147.276 159.255 147.266C159.316 147.144 159.371 147.017 159.432 146.895C159.51 146.734 159.582 146.568 159.659 146.407C159.709 146.296 159.765 146.18 159.814 146.064C159.886 145.903 159.964 145.742 160.03 145.576C160.108 145.41 160.18 145.244 160.252 145.072C160.272 145.03 160.291 144.988 160.307 144.944C160.346 144.867 160.373 144.789 160.407 144.712C160.495 144.507 160.584 144.296 160.667 144.091C160.766 143.858 160.861 143.62 160.949 143.387C161.038 143.171 161.121 142.95 161.204 142.728L161.237 142.65C162.527 139.25 163.505 135.739 164.16 132.162V132.156C164.529 130.114 164.793 128.053 164.951 125.984C164.957 125.867 164.968 125.757 164.973 125.646C165.073 124.244 165.117 122.837 165.117 121.424C165.117 120.798 165.106 120.177 165.09 119.556C164.703 106.578 160.08 94.0835 151.926 83.9847C151.749 83.7631 151.572 83.5414 151.39 83.3198C151.207 83.0982 151.019 82.8821 150.836 82.666C144.768 75.5528 137.115 69.9664 128.494 66.357C119.874 62.7476 110.526 61.2162 101.206 61.8864C91.8852 62.5566 82.8525 65.4095 74.8356 70.2152C66.8188 75.0209 60.0421 81.6449 55.0521 89.5532C54.7808 89.9853 54.5096 90.4231 54.2494 90.8608C53.9837 91.3041 53.7291 91.7473 53.4745 92.1961C48.4598 101.119 45.8324 111.186 45.8467 121.424Z" fill="#F2F2F2"/>
<path d="M103.115 82.3799C112.921 84.8986 122.97 86.3504 133.088 86.7101C134.618 86.7936 136.151 86.7831 137.68 86.6789C141.039 86.3961 143.917 85.3392 147.122 84.7616C148.662 84.4847 150.378 84.2823 151.93 83.9831C151.571 83.538 151.206 83.0984 150.835 82.6642C147.49 82.947 144.094 83.8729 140.709 84.3031C134.956 85.0355 128.509 84.2183 124.147 82.2027C122.031 81.2247 120.41 80.0041 118.301 79.0216C118.014 78.8742 117.704 78.779 117.384 78.7403C116.776 78.722 116.175 78.878 115.653 79.1898C112.115 80.9776 106.978 82.4305 102.211 81.6311C101.855 81.9095 102.53 82.2265 103.115 82.3799Z" fill="white"/>
<path d="M82.0165 88.6714C81.973 88.6634 81.9293 88.6572 81.8857 88.6496C82.0689 88.536 82.2414 88.406 82.401 88.2611L82.0165 88.6714Z" fill="white"/>
<path d="M53.4756 92.1985C55.4668 92.3578 57.4685 92.4764 59.4806 92.5543C61.0106 92.637 62.5441 92.6265 64.0728 92.523C67.4323 92.2387 70.3098 91.1833 73.5146 90.6057C76.4517 90.0773 80.0208 89.8228 81.8856 88.6498C77.0659 87.8147 72.0721 89.5146 67.1021 90.1473C63.082 90.6421 59.0068 90.4406 55.0549 89.5518C54.5047 90.4182 53.9782 91.3004 53.4756 92.1985Z" fill="white"/>
<path d="M77.5645 174.177C78.0405 174.438 78.5221 174.687 79.0037 174.925C79.1752 175.009 79.3524 175.092 79.524 175.18C79.6679 175.247 79.8118 175.319 79.9557 175.385C80 175.407 80.0388 175.424 80.0775 175.446C80.1993 175.502 80.3155 175.557 80.4373 175.613C80.5702 175.673 80.703 175.734 80.8303 175.795C80.9798 175.862 81.1237 175.928 81.2732 175.989C81.8267 176.239 82.3858 176.477 82.9448 176.704C84.9484 177.526 86.9959 178.236 89.078 178.832C89.1721 178.859 89.2718 178.887 89.3714 178.915C90.2626 179.164 91.1593 179.391 92.0616 179.596C93.6392 179.962 95.2315 180.261 96.8386 180.494H96.8497C97.0434 180.522 97.2316 180.549 97.4254 180.577C97.442 180.577 97.4586 180.583 97.4807 180.583C97.4807 180.588 97.4807 180.588 97.4862 180.583C97.6966 180.61 97.9125 180.638 98.1228 180.666C98.1372 180.67 98.1521 180.672 98.1671 180.671C98.3664 180.699 98.5712 180.721 98.7705 180.743C98.9863 180.765 99.2022 180.788 99.4181 180.81C99.5842 180.826 99.7502 180.843 99.9163 180.86C99.9305 180.865 99.9456 180.866 99.9606 180.865C100.11 180.876 100.259 180.893 100.409 180.904H100.431C100.558 180.915 100.691 180.926 100.819 180.937C102.363 181.059 103.913 181.114 105.485 181.114C107.184 181.114 108.872 181.048 110.539 180.904H110.555C110.915 180.871 111.269 180.837 111.624 180.804C111.718 180.793 111.806 180.788 111.9 180.777C111.917 180.777 111.939 180.771 111.956 180.771C111.983 180.765 112.011 180.765 112.044 180.76C112.059 180.76 112.074 180.759 112.089 180.754C112.21 180.743 112.332 180.727 112.459 180.716L112.875 180.666C113.013 180.649 113.151 180.627 113.29 180.61C113.323 180.605 113.351 180.605 113.384 180.599C113.483 180.588 113.583 180.572 113.683 180.555C113.733 180.549 113.782 180.544 113.827 180.538C113.926 180.522 114.02 180.511 114.12 180.494H114.126C117.163 180.056 120.161 179.38 123.093 178.472C123.248 178.422 123.403 178.377 123.558 178.328C122.843 174.991 121.372 171.864 119.257 169.187C117.143 166.511 114.442 164.356 111.363 162.891C112.125 162.165 112.651 161.227 112.875 160.198C113.018 159.535 113.03 158.85 112.908 158.183C112.786 157.515 112.534 156.878 112.166 156.308C111.448 155.204 110.321 154.431 109.033 154.159L100.83 152.441C99.509 152.183 98.1402 152.458 97.0208 153.205C95.9013 153.952 95.1217 155.111 94.8514 156.43C94.7677 156.835 94.7306 157.248 94.7407 157.66C86.8417 162.924 81.1569 168.382 77.5645 174.177Z" fill="#FD550E"/>
<path d="M110.018 146.898C121.046 146.898 129.985 137.95 129.985 126.911C129.985 115.872 121.046 106.923 110.018 106.923C98.9897 106.923 90.0498 115.872 90.0498 126.911C90.0498 137.95 98.9897 146.898 110.018 146.898Z" fill="#9E616A"/>
<path d="M107.18 145.83C102.181 147.181 96.6702 145.385 92.769 141.976C88.8678 138.568 86.4275 133.739 85.0214 128.751C83.9916 125.097 83.5033 121.042 85.1284 117.612C86.7535 114.182 91.1271 111.868 94.5014 113.601C92.4198 111.173 93.4598 107.158 95.8909 105.081C98.322 103.005 101.66 102.409 104.84 102.084C109.454 101.611 114.22 101.559 118.611 103.055C123.002 104.551 126.991 107.823 128.365 112.257C129.769 112.911 131.35 113.081 132.86 112.74C134.37 112.398 135.724 111.565 136.711 110.371C136.965 111.743 136.761 113.16 136.13 114.404C135.498 115.647 134.475 116.648 133.218 117.251L139.946 115.068C141.103 117.519 139.075 120.553 136.483 121.338C133.89 122.123 131.092 121.265 128.632 120.131C126.171 118.997 123.787 117.563 121.115 117.121C118.443 116.678 115.304 117.538 114.068 119.95C113.42 121.214 113.387 122.694 113.011 124.063C112.635 125.432 111.683 126.852 110.268 126.964C109.375 127.035 108.5 126.558 107.609 126.656C107.062 126.764 106.559 127.029 106.16 127.418C105.762 127.808 105.485 128.306 105.365 128.851C105.143 129.944 105.14 131.07 105.357 132.164L107.066 145.239L107.18 145.83Z" fill="#2F2E41"/>
</g>
<defs>
<clipPath id="clip0_50_1432">
<rect width="448" height="349" fill="white"/>
</clipPath>
</defs>
</svg>
