<svg width="409" height="392" viewBox="0 0 409 392" fill="none" xmlns="http://www.w3.org/2000/svg">
<g clip-path="url(#clip0_50_1501)">
<path d="M9.65187 -3.8147e-06C7.09292 0.00287047 4.63958 1.02065 2.83013 2.83005C1.02067 4.63944 0.00287439 7.09267 0 9.65153V332.179C0.00287439 334.738 1.02067 337.191 2.83013 339C4.63958 340.81 7.09292 341.828 9.65187 341.83H255.54C258.099 341.828 260.552 340.81 262.362 339C264.171 337.191 265.189 334.738 265.192 332.179V9.65153C265.189 7.09267 264.171 4.63944 262.362 2.83006C260.552 1.02067 258.099 0.00288363 255.54 -3.8147e-06H9.65187Z" fill="#E6E6E6"/>
<path d="M248.157 129.738H17.0358C14.3118 129.735 11.7002 128.652 9.77398 126.726C7.84779 124.8 6.76431 122.188 6.76123 119.464V53.601C6.76431 50.877 7.84779 48.2655 9.77398 46.3394C11.7002 44.4133 14.3118 43.3298 17.0358 43.3267H248.157C250.881 43.3298 253.492 44.4132 255.419 46.3393C257.345 48.2655 258.428 50.877 258.431 53.601V119.464C258.428 122.188 257.345 124.8 255.419 126.726C253.492 128.652 250.881 129.735 248.157 129.738Z" fill="white"/>
<path d="M248.157 230.295H17.0358C14.3118 230.291 11.7002 229.208 9.774 227.282C7.84781 225.356 6.76431 222.744 6.76123 220.02V154.157C6.76431 151.433 7.84779 148.821 9.77398 146.895C11.7002 144.969 14.3118 143.886 17.0358 143.883H248.157C250.881 143.886 253.492 144.969 255.419 146.895C257.345 148.821 258.428 151.433 258.431 154.157V220.02C258.428 222.744 257.345 225.356 255.419 227.282C253.492 229.208 250.881 230.292 248.157 230.295Z" fill="white"/>
<path d="M17.0357 245.062C14.4767 245.064 12.0234 246.082 10.2139 247.892C8.40446 249.701 7.38665 252.154 7.38379 254.713V320.576C7.38665 323.135 8.40446 325.588 10.2139 327.398C12.0234 329.207 14.4767 330.225 17.0357 330.228H248.157C250.716 330.225 253.169 329.207 254.978 327.398C256.788 325.588 257.806 323.135 257.808 320.576V254.713C257.806 252.154 256.788 249.701 254.978 247.892C253.169 246.082 250.716 245.064 248.157 245.062H17.0357Z" fill="white"/>
<path d="M251.439 20.0811C255.323 20.0811 258.471 16.9328 258.471 13.0492C258.471 9.16562 255.323 6.01733 251.439 6.01733C247.555 6.01733 244.407 9.16562 244.407 13.0492C244.407 16.9328 247.555 20.0811 251.439 20.0811Z" fill="white"/>
<path d="M30.1024 194.12C33.9862 194.12 37.1346 190.972 37.1346 187.089C37.1346 183.205 33.9862 180.057 30.1024 180.057C26.2187 180.057 23.0703 183.205 23.0703 187.089C23.0703 190.972 26.2187 194.12 30.1024 194.12Z" fill="#E6E6E6"/>
<path d="M110.972 193.025H56.1215C54.5469 193.025 53.0368 192.4 51.9235 191.286C50.8101 190.173 50.1846 188.663 50.1846 187.089C50.1846 185.514 50.8101 184.004 51.9235 182.891C53.0368 181.777 54.5469 181.152 56.1215 181.152H110.972C112.547 181.152 114.057 181.777 115.17 182.891C116.284 184.004 116.909 185.514 116.909 187.089C116.909 188.663 116.284 190.173 115.17 191.286C114.057 192.4 112.547 193.025 110.972 193.025Z" fill="#E6E6E6"/>
<path d="M155.099 194.472C158.982 194.472 162.131 191.324 162.131 187.44C162.131 183.557 158.982 180.408 155.099 180.408C151.215 180.408 148.066 183.557 148.066 187.44C148.066 191.324 151.215 194.472 155.099 194.472Z" fill="#E6E6E6"/>
<path d="M235.968 193.377H181.118C179.543 193.377 178.033 192.752 176.92 191.638C175.806 190.525 175.181 189.015 175.181 187.44C175.181 185.866 175.806 184.355 176.92 183.242C178.033 182.129 179.543 181.503 181.118 181.503H235.968C237.543 181.503 239.053 182.129 240.167 183.242C241.28 184.355 241.905 185.866 241.905 187.44C241.905 189.015 241.28 190.525 240.167 191.638C239.053 192.752 237.543 193.377 235.968 193.377Z" fill="#E6E6E6"/>
<path d="M255.101 10.3819L254.106 9.38752L251.439 12.0551L248.772 9.38752L247.777 10.3819L250.445 13.0495L247.777 15.7164L248.772 16.7109L251.439 14.0433L254.106 16.7109L255.101 15.7164L252.434 13.0495L255.101 10.3819Z" fill="#E6E6E6"/>
<path d="M30.1024 93.5644C33.9862 93.5644 37.1346 90.4161 37.1346 86.5325C37.1346 82.6489 33.9862 79.5006 30.1024 79.5006C26.2187 79.5006 23.0703 82.6489 23.0703 86.5325C23.0703 90.4161 26.2187 93.5644 30.1024 93.5644Z" fill="#E6E6E6"/>
<path d="M236.496 91.7662H69.1307C67.5572 91.7646 66.0486 91.1384 64.9365 90.0252C63.8244 88.912 63.1997 87.4028 63.1997 85.8293C63.1997 84.2558 63.8244 82.7467 64.9365 81.6335C66.0486 80.5202 67.5572 79.894 69.1307 79.8924H236.496C238.069 79.894 239.578 80.5202 240.69 81.6335C241.802 82.7467 242.427 84.2558 242.427 85.8293C242.427 87.4028 241.802 88.912 240.69 90.0252C239.578 91.1384 238.069 91.7646 236.496 91.7662Z" fill="#E6E6E6"/>
<path d="M207.312 91.7662H58.231C56.6564 91.7662 55.1463 91.1407 54.0329 90.0273C52.9195 88.9139 52.2939 87.4039 52.2939 85.8293C52.2939 84.2548 52.9195 82.7447 54.0329 81.6313C55.1463 80.5179 56.6564 79.8924 58.231 79.8924H207.312C208.886 79.894 210.394 80.5202 211.507 81.6335C212.619 82.7467 213.243 84.2558 213.243 85.8293C213.243 87.4028 212.619 88.912 211.507 90.0252C210.394 91.1384 208.886 91.7646 207.312 91.7662Z" fill="#FD550E"/>
<path d="M30.1024 294.676C33.9862 294.676 37.1346 291.528 37.1346 287.645C37.1346 283.761 33.9862 280.613 30.1024 280.613C26.2187 280.613 23.0703 283.761 23.0703 287.645C23.0703 291.528 26.2187 294.676 30.1024 294.676Z" fill="#E6E6E6"/>
<path d="M236.496 292.878H69.1308C67.5562 292.878 66.0461 292.253 64.9327 291.139C63.8193 290.026 63.1938 288.516 63.1938 286.941C63.1938 285.367 63.8193 283.857 64.9327 282.743C66.0461 281.63 67.5562 281.005 69.1308 281.005H236.496C238.07 281.005 239.58 281.63 240.694 282.743C241.807 283.857 242.433 285.367 242.433 286.941C242.433 288.516 241.807 290.026 240.694 291.139C239.58 292.253 238.07 292.878 236.496 292.878Z" fill="#E6E6E6"/>
<path d="M147.364 292.878H58.2314C56.6568 292.878 55.1467 292.253 54.0333 291.139C52.9199 290.026 52.2944 288.516 52.2944 286.941C52.2944 285.367 52.9199 283.857 54.0333 282.743C55.1467 281.63 56.6568 281.005 58.2314 281.005H147.364C148.938 281.005 150.448 281.63 151.562 282.743C152.675 283.857 153.301 285.367 153.301 286.941C153.301 288.516 152.675 290.026 151.562 291.139C150.448 292.253 148.938 292.878 147.364 292.878Z" fill="#FD550E"/>
<path d="M65.7907 193.025H56.1215C54.5469 193.025 53.0369 192.4 51.9235 191.286C50.8101 190.173 50.1846 188.663 50.1846 187.089C50.1846 185.514 50.8101 184.004 51.9235 182.891C53.0369 181.777 54.5469 181.152 56.1215 181.152H65.7907C67.3653 181.152 68.8754 181.777 69.9888 182.891C71.1022 184.004 71.7277 185.514 71.7277 187.089C71.7277 188.663 71.1022 190.173 69.9888 191.286C68.8754 192.4 67.3653 193.025 65.7907 193.025Z" fill="#FD550E"/>
<path d="M211.356 193.377H181.118C179.543 193.377 178.033 192.752 176.92 191.638C175.806 190.525 175.181 189.015 175.181 187.44C175.181 185.866 175.806 184.355 176.92 183.242C178.033 182.129 179.543 181.503 181.118 181.503H211.356C212.93 181.505 214.438 182.131 215.55 183.244C216.662 184.357 217.287 185.867 217.287 187.44C217.287 189.014 216.662 190.523 215.55 191.636C214.438 192.749 212.93 193.375 211.356 193.377Z" fill="#FD550E"/>
<path d="M359.784 264.525C360.694 264.433 361.574 264.143 362.361 263.675C363.147 263.206 363.821 262.571 364.336 261.814C364.851 261.057 365.193 260.196 365.339 259.293C365.485 258.389 365.431 257.464 365.18 256.584L383.409 243.823L372.658 239.565L356.996 252.336C355.544 252.855 354.334 253.887 353.593 255.239C352.852 256.59 352.632 258.166 352.976 259.669C353.319 261.171 354.202 262.495 355.457 263.39C356.712 264.285 358.251 264.689 359.784 264.525Z" fill="#A0616A"/>
<path d="M368.28 255.206C367.888 255.205 367.501 255.122 367.143 254.963C366.737 254.786 366.38 254.514 366.1 254.171C365.821 253.828 365.628 253.423 365.537 252.99L364.313 247.307C364.209 246.819 364.236 246.313 364.392 245.84C364.548 245.366 364.827 244.943 365.201 244.614L376.011 235.095L365.34 212.738C364.598 211.183 364.47 209.405 364.984 207.761C365.497 206.116 366.612 204.726 368.107 203.869C369.602 203.012 371.365 202.752 373.043 203.14C374.722 203.528 376.192 204.536 377.158 205.962L390.824 226.119C391.84 227.604 392.54 229.28 392.883 231.046C393.225 232.812 393.202 234.629 392.815 236.385C392.386 238.241 391.576 239.988 390.435 241.514C389.295 243.04 387.849 244.313 386.191 245.25L369.682 254.825C369.257 255.073 368.773 255.205 368.28 255.206Z" fill="#CCCCCC"/>
<path d="M307.714 243.054C308.475 243.562 309.339 243.898 310.243 244.036C311.148 244.175 312.073 244.113 312.951 243.856C313.83 243.598 314.641 243.151 315.328 242.547C316.015 241.942 316.561 241.193 316.928 240.355L339.112 242.092L333.519 231.971L313.31 231.873C311.86 231.351 310.269 231.378 308.838 231.95C307.407 232.523 306.236 233.6 305.546 234.978C304.856 236.356 304.696 237.939 305.095 239.428C305.495 240.916 306.426 242.207 307.714 243.054Z" fill="#A0616A"/>
<path d="M360.765 190.062C369.212 190.062 376.06 183.215 376.06 174.768C376.06 166.322 369.212 159.475 360.765 159.475C352.319 159.475 345.471 166.322 345.471 174.768C345.471 183.215 352.319 190.062 360.765 190.062Z" fill="#A0616A"/>
<path d="M315.734 383.987L308.417 381.81L313.332 352.551L324.131 355.765L315.734 383.987Z" fill="#A0616A"/>
<path d="M315.49 391.635L291.896 384.615L291.985 384.317C292.344 383.111 292.937 381.987 293.73 381.01C294.523 380.034 295.5 379.222 296.607 378.623C297.713 378.024 298.927 377.649 300.178 377.519C301.43 377.389 302.695 377.507 303.901 377.866L303.901 377.866L318.311 382.153L315.49 391.635Z" fill="#2F2E41"/>
<path d="M395.9 383.612L388.265 383.612L384.634 354.167L392.165 354.167L395.9 383.612Z" fill="#A0616A"/>
<path d="M397.846 391.012L373.23 391.011V390.7C373.23 389.442 373.478 388.196 373.96 387.033C374.441 385.871 375.147 384.815 376.037 383.925C376.926 383.036 377.983 382.33 379.145 381.848C380.308 381.367 381.553 381.119 382.812 381.119L397.847 381.12L397.846 391.012Z" fill="#2F2E41"/>
<path d="M318.549 375.33H310.884C310.473 375.33 310.067 375.24 309.695 375.065C309.323 374.891 308.994 374.637 308.731 374.321C308.468 374.006 308.277 373.636 308.173 373.239C308.069 372.841 308.053 372.426 308.128 372.021L318.864 313.573C318.853 270.99 335.608 246.325 335.777 246.081L335.982 245.786L367.295 248.341L398.507 371.348C398.609 371.75 398.621 372.17 398.541 372.578C398.46 372.985 398.291 373.37 398.044 373.703C397.797 374.037 397.479 374.312 397.113 374.508C396.747 374.704 396.342 374.816 395.927 374.836L387.315 375.253C386.732 375.284 386.154 375.13 385.663 374.815C385.172 374.5 384.792 374.038 384.577 373.496L351.581 291.011C351.515 290.83 351.394 290.676 351.233 290.57C351.073 290.464 350.884 290.413 350.692 290.424C350.501 290.425 350.316 290.487 350.161 290.599C350.007 290.712 349.892 290.869 349.831 291.051L321.196 373.448C321.004 373.998 320.647 374.474 320.172 374.811C319.698 375.148 319.131 375.33 318.549 375.33Z" fill="#2F2E41"/>
<path d="M367.951 250.811L367.712 250.794L334.372 248.277L340.22 211.085C340.862 206.933 342.829 203.101 345.828 200.159C348.827 197.217 352.696 195.324 356.86 194.761C357.116 194.726 357.374 194.691 357.633 194.656C360.904 194.226 364.23 194.644 367.293 195.869C370.356 197.095 373.052 199.087 375.123 201.655C377.242 204.238 378.663 207.322 379.247 210.612C379.83 213.902 379.558 217.287 378.457 220.441L367.951 250.811Z" fill="#CCCCCC"/>
<path d="M350.992 241.099C349.639 242.186 348.084 242.994 346.418 243.479C344.751 243.964 343.005 244.114 341.28 243.923L321.985 241.846C321.544 241.798 321.12 241.647 320.749 241.404C320.378 241.161 320.07 240.833 319.85 240.448C319.631 240.062 319.505 239.63 319.485 239.187C319.465 238.744 319.551 238.302 319.734 237.898L322.308 232.25C322.517 231.79 322.847 231.394 323.263 231.107C323.679 230.819 324.165 230.649 324.67 230.615L338.734 229.673L343.351 205.337C343.649 203.775 344.482 202.366 345.707 201.352C346.932 200.337 348.472 199.782 350.062 199.78C351.023 199.776 351.974 199.976 352.851 200.368C353.728 200.76 354.512 201.335 355.15 202.053C356.359 203.437 356.98 205.238 356.88 207.072L355.986 231.199C355.927 233.024 355.488 234.816 354.699 236.462C353.909 238.108 352.786 239.571 351.4 240.76C351.266 240.876 351.13 240.989 350.992 241.099Z" fill="#CCCCCC"/>
<path d="M349.135 170.949C347.231 171.688 345.224 172.129 343.186 172.258C341.135 172.284 338.956 171.573 337.834 170.012C337.403 169.33 337.125 168.563 337.019 167.763C336.913 166.964 336.981 166.151 337.218 165.38C337.643 163.817 338.407 162.367 339.457 161.134C340.507 159.901 341.816 158.914 343.291 158.246C344.841 157.543 346.514 157.153 348.215 157.098C349.916 157.043 351.611 157.325 353.203 157.926C354.353 154.429 358.687 152.525 362.699 152.417C370.894 152.197 378.221 157.785 381.781 164.503C385.341 171.222 385.861 178.901 386.083 186.357C386.137 188.176 386.159 190.072 385.298 191.713C384.015 194.158 381.101 195.474 378.353 196.518C371.149 199.251 363.717 201.34 356.143 202.761C359.78 200.437 360.933 195.434 358.63 191.977C357.503 190.285 355.653 188.876 355.353 186.917C354.994 184.568 356.999 182.513 357.74 180.239C358.115 179.008 358.132 177.696 357.789 176.456C357.446 175.215 356.758 174.098 355.804 173.234C354.766 172.333 353.525 171.696 352.187 171.378C350.849 171.061 349.454 171.073 348.121 171.412" fill="#2F2E41"/>
<path d="M408.377 392H279.478C279.313 392 279.155 391.934 279.038 391.818C278.921 391.701 278.855 391.542 278.855 391.377C278.855 391.212 278.921 391.054 279.038 390.937C279.155 390.82 279.313 390.755 279.478 390.755H408.377C408.542 390.755 408.701 390.82 408.818 390.937C408.934 391.054 409 391.212 409 391.377C409 391.542 408.934 391.701 408.818 391.818C408.701 391.934 408.542 392 408.377 392Z" fill="#CCCCCC"/>
</g>
<defs>
<clipPath id="clip0_50_1501">
<rect width="409" height="392" fill="white"/>
</clipPath>
</defs>
</svg>
